<svg width="199" height="184" viewBox="0 0 199 184" fill="none" xmlns="http://www.w3.org/2000/svg">
<g filter="url(#filter0_ii)">
<path d="M136.038 174.832C136.038 179.894 121.042 184 102.514 184C83.9863 184 68.9903 179.894 68.9903 174.832C68.9903 169.769 83.9863 165.664 102.514 165.664C121.042 165.664 136.038 169.78 136.038 174.832Z" fill="#E8EDF1"/>
</g>
<path d="M135.194 148.47C135.194 155.125 120.223 160.518 101.758 160.518C83.2921 160.518 68.322 155.125 68.322 148.47C68.322 141.815 83.2921 136.421 101.758 136.421C120.223 136.421 135.194 141.815 135.194 148.47Z" fill="#B7C4CD"/>
<path d="M68.7973 21.749C68.7973 21.749 -0.44252 103.156 64.857 156.583H101.995V10.4555C101.995 10.4555 82.0299 10.4555 68.7973 21.749Z" fill="#B7C4CD"/>
<path d="M92.2479 156.583V174.47H84.388C84.388 174.47 54.9649 151.774 47.0119 136.421C47.0119 136.421 87.9508 137.497 92.2479 156.583Z" fill="#B7C4CD"/>
<path d="M111.398 156.583V174.47H119.258C119.258 174.47 148.681 151.774 156.65 136.421C156.639 136.421 115.695 137.497 111.398 156.583Z" fill="#B7C4CD"/>
<path d="M81.4772 14.4528C81.4772 14.4528 43.5375 45.877 52.8143 99.578C62.0911 153.279 125.917 170.085 156.638 137.202C156.638 137.202 184.044 103.834 150.748 44.9049C150.758 44.8894 134.583 -4.48342 81.4772 14.4528Z" fill="#D9E1E8"/>
<path d="M92.2481 174.469C92.2481 174.469 87.4442 179.346 85.7584 179.346C84.0727 179.346 85.7584 176.91 85.7584 176.91C85.7584 176.91 84.5381 178.492 81.9939 177.981C79.4498 177.469 84.3881 174.469 84.3881 174.469C84.3881 174.469 89.9832 173.699 92.2481 174.469Z" fill="#7F848C"/>
<path d="M111.416 174.469C111.416 174.469 116.215 179.346 117.906 179.346C119.597 179.346 117.906 176.91 117.906 176.91C117.906 176.91 119.126 178.492 121.671 177.981C124.215 177.469 119.276 174.469 119.276 174.469C119.276 174.469 113.681 173.699 111.416 174.469Z" fill="#7F848C"/>
<path d="M119.279 174.47C119.279 174.47 115.033 176.021 111.398 174.47C111.398 174.47 116.719 168.518 119.258 174.47" fill="#AAB4BC"/>
<path d="M84.3685 174.47C84.3685 174.47 88.6139 176.021 92.2491 174.47C92.2491 174.47 86.9282 168.518 84.3892 174.47" fill="#AAB4BC"/>
<path d="M69.1357 21.6257L56.2702 42.6458C56.2702 42.6458 43.7357 41.865 43.1152 32.9915C42.7748 28.1734 41.6772 23.439 39.8626 18.9626C39.8626 18.9626 45.0802 18.1404 49.1704 15.86C53.2607 13.5796 62.8788 12.1782 69.1357 21.6257Z" fill="#B7C4CD"/>
<path d="M60.141 31.2895C59.9624 31.2894 59.788 31.2356 59.6405 31.1351C59.4929 31.0346 59.379 30.892 59.3136 30.7258C56.5678 23.7191 50.2023 25.3635 49.9334 25.4359C49.7109 25.4856 49.4778 25.448 49.2822 25.3308C49.0867 25.2135 48.9436 25.0257 48.8825 24.806C48.8215 24.5864 48.8471 24.3517 48.9541 24.1503C49.0612 23.949 49.2414 23.7965 49.4577 23.7243C49.5404 23.7243 57.633 21.5525 60.9683 30.0743C61.0107 30.1839 61.0309 30.3008 61.0278 30.4183C61.0247 30.5357 60.9983 30.6514 60.9502 30.7587C60.9021 30.8659 60.8333 30.9625 60.7476 31.043C60.662 31.1234 60.5613 31.1861 60.4512 31.2274C60.3524 31.2666 60.2473 31.2876 60.141 31.2895Z" fill="#AAB4BC"/>
<path d="M59.5977 30.09C59.4823 30.0907 59.3679 30.0679 59.2616 30.0228C53.2167 27.5562 50.3881 29.785 50.2692 29.8832C50.0884 30.0322 49.856 30.1039 49.6227 30.0826C49.3894 30.0613 49.1738 29.9487 49.023 29.7694C48.9478 29.6816 48.8907 29.5797 48.8549 29.4697C48.8192 29.3598 48.8054 29.2438 48.8146 29.1285C48.8237 29.0132 48.8555 28.9009 48.9081 28.7979C48.9607 28.6949 49.0332 28.6033 49.1212 28.5284C49.266 28.3991 52.8133 25.4672 59.9338 28.3784C60.1239 28.4568 60.2809 28.5987 60.3782 28.7798C60.4755 28.961 60.507 29.1703 60.4674 29.372C60.4277 29.5738 60.3194 29.7556 60.1609 29.8865C60.0023 30.0174 59.8033 30.0893 59.5977 30.09Z" fill="#AAB4BC"/>
<path d="M134.858 21.6257L147.724 42.6458C147.724 42.6458 160.258 41.865 160.879 32.9915C161.219 28.1734 162.317 23.439 164.131 18.9626C164.131 18.9626 158.914 18.1404 154.798 15.86C150.682 13.5796 141.126 12.1782 134.858 21.6257Z" fill="#B7C4CD"/>
<path d="M143.85 31.2899C143.74 31.2888 143.632 31.2678 143.53 31.2278C143.42 31.1865 143.319 31.1238 143.233 31.0434C143.148 30.9629 143.079 30.8663 143.031 30.7591C142.982 30.6518 142.956 30.5361 142.953 30.4187C142.95 30.3012 142.97 30.1843 143.012 30.0747C146.348 21.5529 154.435 23.704 154.518 23.7247C154.734 23.7969 154.914 23.9494 155.021 24.1507C155.128 24.3521 155.154 24.5868 155.093 24.8064C155.032 25.0261 154.889 25.2139 154.693 25.3312C154.498 25.4484 154.265 25.486 154.042 25.4363C153.763 25.3639 147.408 23.7247 144.667 30.7262C144.601 30.8899 144.489 31.0307 144.343 31.1309C144.198 31.2311 144.027 31.2864 143.85 31.2899Z" fill="#AAB4BC"/>
<path d="M144.394 30.0904C144.189 30.0897 143.99 30.0177 143.831 29.8868C143.672 29.7559 143.564 29.5741 143.524 29.3724C143.485 29.1706 143.516 28.9613 143.614 28.7802C143.711 28.599 143.868 28.4572 144.058 28.3788C151.179 25.4727 154.726 28.3788 154.871 28.5287C155.035 28.6853 155.133 28.8987 155.145 29.1252C155.157 29.3517 155.082 29.5743 154.935 29.7473C154.789 29.9204 154.581 30.0309 154.356 30.0562C154.131 30.0815 153.904 30.0198 153.723 29.8835C153.588 29.7749 150.76 27.5617 144.73 30.0231C144.624 30.0682 144.51 30.0911 144.394 30.0904Z" fill="#AAB4BC"/>
<path d="M115.513 60.2834C115.513 63.6859 109.463 66.4472 101.996 66.4472C94.5292 66.4472 88.4791 63.6859 88.4791 60.2834C88.4791 56.8808 94.5292 62.6052 101.996 62.6052C109.463 62.6052 115.513 56.8757 115.513 60.2834Z" fill="#AAB4BC"/>
<path d="M100.12 56.7157C100.12 58.51 99.2715 59.9682 98.2269 59.9682C97.1824 59.9682 96.3395 58.51 96.3395 56.7157C96.3395 54.9213 97.1824 53.4631 98.2269 53.4631C99.2715 53.4631 100.12 54.9213 100.12 56.7157Z" fill="#363C46"/>
<path d="M107.653 56.7157C107.653 58.51 106.81 59.9682 105.765 59.9682C104.721 59.9682 103.873 58.51 103.873 56.7157C103.873 54.9213 104.721 53.4631 105.765 53.4631C106.81 53.4631 107.653 54.9213 107.653 56.7157Z" fill="#363C46"/>
<path d="M101.997 66.6749C93.3463 66.6749 86.3137 62.2227 86.3137 56.7155C86.3137 51.2084 93.3566 46.7562 102.008 46.7562C110.659 46.7562 117.702 51.2239 117.702 56.7155C117.702 62.2071 110.648 66.6749 101.997 66.6749ZM101.997 48.535C94.3236 48.535 88.0822 52.2012 88.0822 56.7155C88.0822 61.2298 94.3236 64.8961 101.997 64.8961C109.671 64.8961 115.913 61.2247 115.913 56.7155C115.913 52.2064 109.671 48.535 101.997 48.535Z" fill="#B7C4CD"/>
<path d="M109.169 11.8879C109.169 11.8879 94.3797 10.7038 89.6275 15.3732C86.075 18.8636 105.223 9.2921 128.007 19.51C135.127 22.6747 125.892 12.8136 109.169 11.8879Z" fill="#B7C4CD"/>
<path d="M86.1162 15.0632C86.747 14.9391 88.1535 14.5927 88.2777 15.2287C88.4018 15.8647 87.2072 17.2247 86.5764 17.3488C86.4263 17.379 86.2718 17.3794 86.1215 17.3499C85.9713 17.3204 85.8284 17.2615 85.7009 17.1768C85.4434 17.0056 85.2645 16.7392 85.2035 16.4361C85.1425 16.133 85.2043 15.8181 85.3755 15.5606C85.5467 15.3032 85.8131 15.1242 86.1162 15.0632Z" fill="#B7C4CD"/>
<path d="M101.676 49.4348C101.676 49.4348 94.3848 48.8505 92.0423 51.1516C90.2945 52.8735 99.7316 48.1524 110.963 53.1786C114.474 54.7506 109.919 49.8899 101.676 49.4348Z" fill="#B7C4CD"/>
<path d="M134.586 108.96C136.268 90.9608 123.041 75.0057 105.041 73.3233C87.0423 71.6409 71.0872 84.8683 69.4048 102.867C67.7223 120.867 80.9497 136.822 98.9489 138.504C116.948 140.187 132.903 126.959 134.586 108.96Z" fill="#7F848C"/>
<path d="M134.728 104.624C134.728 121.823 120.073 135.764 101.995 135.764C83.9174 135.764 69.2472 121.823 69.2472 104.624C69.2472 87.4257 83.9019 73.4898 101.98 73.4898C120.058 73.4898 134.728 87.4309 134.728 104.624Z" fill="#AAB4BC"/>
<path d="M129.082 104.625C129.082 109.982 127.493 115.219 124.517 119.673C121.541 124.127 117.31 127.599 112.361 129.649C107.412 131.699 101.966 132.235 96.7117 131.19C91.4575 130.145 86.6313 127.566 82.8433 123.778C79.0553 119.99 76.4756 115.163 75.4305 109.909C74.3854 104.655 74.9218 99.2091 76.9719 94.2598C79.0219 89.3105 82.4936 85.0803 86.9478 82.1041C91.402 79.1279 96.6388 77.5393 101.996 77.5393C105.553 77.5393 109.075 78.2399 112.361 79.6011C115.647 80.9623 118.633 82.9574 121.148 85.4725C123.663 87.9877 125.659 90.9736 127.02 94.2598C128.381 97.546 129.082 101.068 129.082 104.625Z" fill="#E8EDF1"/>
<path d="M105.849 84.856H102.777V87.544C98.745 88.168 96.873 91.192 96.873 95.8C96.873 105.256 108.105 105.352 108.105 112.84C108.105 115.864 106.905 117.592 104.169 117.592C101.481 117.592 100.233 115.864 100.233 112.84V110.536H96.729V112.6C96.729 117.16 98.601 120.328 102.777 120.904V123.448H105.849V120.904C109.929 120.328 111.849 117.112 111.849 112.6C111.849 103.144 100.569 103.096 100.569 95.56C100.569 92.584 101.769 90.76 104.409 90.76C107.097 90.76 108.297 92.584 108.297 95.56V96.712H111.801V95.8C111.801 91.288 109.929 88.12 105.849 87.544V84.856Z" fill="url(#paint0_linear)"/>
<path d="M133.369 106.507C133.369 106.507 134.718 94.8204 125.488 84.7059C122.018 80.9052 140.184 102.567 128.151 120.086C124.578 125.309 133.425 120.164 133.369 106.507Z" fill="#B7C4CD"/>
<path d="M47.0656 81.7122C47.0656 81.7122 51.1507 92.9385 59.6208 99.8728C69.5182 107.96 86.7273 114.796 89.7523 117.806C89.7523 117.806 93.0101 120.107 91.588 125.164C91.588 125.164 73.6395 144.886 39.8779 113.876C39.8934 113.876 43.177 91.2476 47.0656 81.7122Z" fill="#B7C4CD"/>
<path d="M91.5872 125.164C93.2715 125.774 95.1214 125.743 96.7841 125.076C99.6333 123.964 92.6783 121.596 92.6783 121.596C92.6783 121.596 95.905 119.76 95.8067 117.015C95.7085 114.269 89.7515 117.806 89.7515 117.806C89.7515 117.806 91.52 120.138 91.5872 125.164Z" fill="#7F848C"/>
<path d="M123.129 54.0059C122.181 53.2448 120.972 52.8881 119.763 53.0131C119.645 53.0266 119.532 53.0634 119.429 53.1212C119.326 53.179 119.236 53.2567 119.163 53.3498C119.091 53.4428 119.038 53.5494 119.007 53.6632C118.976 53.7771 118.968 53.896 118.983 54.0129C118.999 54.1299 119.037 54.2427 119.097 54.3446C119.156 54.4465 119.235 54.5356 119.329 54.6067C119.423 54.6777 119.531 54.7293 119.645 54.7584C119.76 54.7876 119.879 54.7937 119.995 54.7764C120.222 54.752 120.451 54.752 120.678 54.7764C120.605 63.3396 112.197 70.2894 101.876 70.2894C91.5547 70.2894 83.1777 63.3706 83.0743 54.8281C83.3803 54.7656 83.6932 54.743 84.005 54.7609C84.2337 54.7801 84.4609 54.7101 84.6392 54.5657C84.8175 54.4213 84.9331 54.2135 84.9618 53.9858C84.9905 53.7582 84.9301 53.5282 84.7933 53.3441C84.6564 53.1599 84.4536 53.0357 84.2274 52.9976C83.0199 52.8723 81.8118 53.2291 80.8662 53.9904C79.9303 54.8126 79.4545 56.0588 79.4545 57.6515C79.4452 57.7736 79.4612 57.8964 79.5015 58.0121C79.5419 58.1277 79.6057 58.2338 79.6889 58.3237C79.7722 58.4136 79.8731 58.4853 79.9854 58.5343C80.0977 58.5833 80.2189 58.6086 80.3414 58.6086C80.4639 58.6086 80.5851 58.5833 80.6973 58.5343C80.8096 58.4853 80.9105 58.4136 80.9938 58.3237C81.0771 58.2338 81.1409 58.1277 81.1812 58.0121C81.2215 57.8964 81.2375 57.7736 81.2282 57.6515C81.2236 57.2316 81.2811 56.8134 81.3988 56.4104C82.433 65.2011 91.2238 72.0682 101.876 72.0682C112.735 72.0682 121.634 64.9374 122.4 55.9295C122.658 56.4659 122.782 57.0567 122.762 57.6515C122.779 57.875 122.88 58.0838 123.044 58.2361C123.209 58.3885 123.424 58.4731 123.649 58.4731C123.873 58.4731 124.089 58.3885 124.253 58.2361C124.417 58.0838 124.518 57.875 124.535 57.6515C124.535 56.0588 124.06 54.8281 123.129 54.0059Z" fill="#B7C4CD"/>
<path d="M147.559 54.9058C147.559 57.0536 146.922 59.1531 145.728 60.9388C144.535 62.7246 142.839 64.1165 140.855 64.9384C138.871 65.7603 136.687 65.9753 134.581 65.5563C132.475 65.1373 130.54 64.1031 129.021 62.5844C127.502 61.0657 126.468 59.1308 126.049 57.0244C125.63 54.9179 125.845 52.7345 126.667 50.7502C127.489 48.766 128.881 47.07 130.666 45.8768C132.452 44.6836 134.552 44.0467 136.699 44.0467C139.579 44.0467 142.342 45.1908 144.378 47.2273C146.415 49.2638 147.559 52.0258 147.559 54.9058Z" fill="#B7C4CD"/>
<path d="M67.608 65.7859C73.6145 65.6203 78.3494 60.6168 78.1837 54.6103C78.018 48.6038 73.0145 43.8689 67.008 44.0346C61.0016 44.2003 56.2667 49.2038 56.4323 55.2103C56.598 61.2167 61.6015 65.9516 67.608 65.7859Z" fill="#B7C4CD"/>
<path d="M126.993 42.5731C126.993 47.165 124.655 50.8933 121.765 50.8933C118.874 50.8933 116.532 47.165 116.532 42.5731C116.532 37.9813 118.874 34.253 121.765 34.253C124.655 34.253 126.993 37.9865 126.993 42.5731Z" fill="#363C46"/>
<path d="M124.932 39.5791C124.929 40.0059 124.799 40.4223 124.56 40.7757C124.321 41.1291 123.982 41.4037 123.587 41.5649C123.191 41.7262 122.757 41.7668 122.339 41.6816C121.921 41.5965 121.537 41.3894 121.236 41.0865C120.936 40.7836 120.731 40.3985 120.649 39.9796C120.567 39.5607 120.611 39.1269 120.775 38.7329C120.939 38.3388 121.216 38.0022 121.571 37.7653C121.926 37.5285 122.343 37.4021 122.77 37.4021C123.055 37.4021 123.338 37.4585 123.601 37.5681C123.864 37.6777 124.103 37.8383 124.304 38.0407C124.505 38.243 124.664 38.4831 124.772 38.7472C124.879 39.0112 124.934 39.2939 124.932 39.5791Z" fill="#E8EDF1"/>
<path d="M87.4609 42.5731C87.4609 47.165 85.1185 50.8933 82.2279 50.8933C79.3373 50.8933 77.0051 47.1702 77.0051 42.5731C77.0051 37.9761 79.3476 34.253 82.233 34.253C85.1185 34.253 87.4609 37.9865 87.4609 42.5731Z" fill="#363C46"/>
<path d="M84.668 39.5785C84.668 40.006 84.5412 40.4239 84.3037 40.7794C84.0662 41.1348 83.7287 41.4119 83.3337 41.5755C82.9387 41.7391 82.5041 41.7819 82.0848 41.6985C81.6656 41.6151 81.2804 41.4092 80.9781 41.1069C80.6758 40.8046 80.47 40.4195 80.3866 40.0002C80.3032 39.5809 80.346 39.1463 80.5096 38.7513C80.6732 38.3564 80.9502 38.0188 81.3057 37.7813C81.6611 37.5438 82.079 37.417 82.5065 37.417C83.0798 37.417 83.6296 37.6447 84.0349 38.0501C84.4403 38.4555 84.668 39.0052 84.668 39.5785Z" fill="#E8EDF1"/>
<path d="M72.0915 77.8703H70.6436V76.4276C70.6436 76.1739 70.5428 75.9306 70.3634 75.7512C70.184 75.5718 69.9407 75.471 69.6869 75.471C69.4332 75.471 69.1899 75.5718 69.0105 75.7512C68.8311 75.9306 68.7303 76.1739 68.7303 76.4276V77.8703H67.2876C67.0339 77.8703 66.7906 77.9711 66.6111 78.1505C66.4317 78.3299 66.331 78.5733 66.331 78.827C66.331 79.0807 66.4317 79.324 66.6111 79.5034C66.7906 79.6828 67.0339 79.7836 67.2876 79.7836H68.7303V81.2263C68.7303 81.48 68.8311 81.7234 69.0105 81.9028C69.1899 82.0822 69.4332 82.183 69.6869 82.183C69.9407 82.183 70.184 82.0822 70.3634 81.9028C70.5428 81.7234 70.6436 81.48 70.6436 81.2263V79.8043H72.0915C72.3452 79.8043 72.5885 79.7035 72.7679 79.5241C72.9473 79.3447 73.0481 79.1014 73.0481 78.8476C73.0481 78.5939 72.9473 78.3506 72.7679 78.1712C72.5885 77.9918 72.3452 77.891 72.0915 77.891V77.8703Z" fill="#B7C4CD"/>
<path d="M136.704 130.252H135.261V128.805C135.261 128.551 135.16 128.308 134.981 128.128C134.802 127.949 134.558 127.848 134.305 127.848C134.051 127.848 133.808 127.949 133.628 128.128C133.449 128.308 133.348 128.551 133.348 128.805V130.252H131.9C131.646 130.252 131.403 130.353 131.224 130.533C131.044 130.712 130.943 130.955 130.943 131.209C130.943 131.463 131.044 131.706 131.224 131.886C131.403 132.065 131.646 132.166 131.9 132.166H133.369V133.608C133.369 133.862 133.469 134.105 133.649 134.285C133.828 134.464 134.072 134.565 134.325 134.565C134.579 134.565 134.822 134.464 135.002 134.285C135.181 134.105 135.282 133.862 135.282 133.608V132.166H136.725C136.978 132.166 137.222 132.065 137.401 131.886C137.581 131.706 137.681 131.463 137.681 131.209C137.681 130.955 137.581 130.712 137.401 130.533C137.222 130.353 136.978 130.252 136.725 130.252H136.704Z" fill="#B7C4CD"/>
<path d="M155.402 118.736C155.402 118.736 151.374 107.495 142.914 100.529C133.048 92.4056 115.865 85.5334 112.85 82.4877C112.85 82.4877 109.603 80.171 111.035 75.1241C111.035 75.1241 131.719 56.7153 162.693 86.5986C162.693 86.5986 159.327 109.211 155.402 118.736Z" fill="#D9E1E8"/>
<path d="M112.412 74.3898C111.105 73.1668 109.393 72.469 107.603 72.43C104.542 72.3317 110.007 77.2442 110.007 77.2442C110.007 77.2442 106.321 77.663 105.354 80.2279C104.387 82.7927 112.019 81.7792 112.019 81.7792C112.019 81.7792 110.509 79.0178 112.412 74.3898Z" fill="#7F848C"/>
<path d="M148.606 73.8213C148.606 73.8213 137.183 67.947 120.005 70.7601C106.964 72.8957 110.128 83.1705 116.039 85.2389C124.25 88.0726 140.999 97.8872 144.645 102.096C144.645 102.096 139.189 92.861 129.757 89.4326C117.347 84.9131 113.386 84.2874 112.988 78.6924C112.59 73.0974 127.86 69.2088 148.606 73.8213Z" fill="#B7C4CD"/>
<path d="M154.279 54.4658C154.667 55.5 155.639 57.7287 154.621 58.1217C153.602 58.5147 151.001 56.8962 150.592 55.8827C150.417 55.3965 150.439 54.861 150.654 54.391C150.869 53.9211 151.259 53.554 151.742 53.3686C152.224 53.1832 152.76 53.1943 153.234 53.3994C153.709 53.6045 154.084 53.9874 154.279 54.4658Z" fill="#B7C4CD"/>
<path d="M164.456 91.9039C164.456 91.9039 160.769 64.7768 154.766 60.4022C147.945 55.4276 167.838 82.6375 161.126 121.42C158.871 134.461 166.685 111.983 164.456 91.9039Z" fill="#B7C4CD"/>
<path d="M131.922 56.5349C131.805 56.5352 131.69 56.512 131.582 56.4667C131.475 56.4214 131.378 56.3549 131.296 56.2712C131.213 56.1893 131.146 56.0916 131.101 55.9837C131.056 55.8758 131.032 55.76 131.032 55.6429C131.032 55.5259 131.056 55.41 131.101 55.3021C131.146 55.1943 131.213 55.0965 131.296 55.0146L132.936 53.3754C133.102 53.2088 133.327 53.1149 133.562 53.1144C133.797 53.114 134.023 53.2069 134.19 53.3729C134.356 53.5388 134.45 53.7641 134.451 53.9993C134.451 54.2345 134.358 54.4602 134.192 54.6268L132.553 56.2712C132.47 56.3546 132.372 56.4209 132.264 56.4661C132.156 56.5114 132.039 56.5348 131.922 56.5349Z" fill="#AAB4BC"/>
<path d="M136.342 56.5349C136.225 56.5352 136.11 56.512 136.002 56.4667C135.895 56.4214 135.797 56.3549 135.716 56.2712C135.55 56.1045 135.456 55.8785 135.456 55.6429C135.456 55.4073 135.55 55.1814 135.716 55.0146L137.361 53.3754C137.526 53.2088 137.752 53.1149 137.987 53.1144C138.222 53.114 138.448 53.2069 138.615 53.3729C138.781 53.5388 138.875 53.7641 138.876 53.9993C138.876 54.2345 138.783 54.4602 138.617 54.6268L136.988 56.2815C136.903 56.365 136.802 56.4304 136.691 56.4739C136.58 56.5174 136.461 56.5382 136.342 56.5349Z" fill="#AAB4BC"/>
<path d="M140.686 56.5349C140.57 56.5352 140.454 56.512 140.347 56.4667C140.239 56.4214 140.142 56.3549 140.061 56.2712C139.894 56.1045 139.801 55.8785 139.801 55.6429C139.801 55.4073 139.894 55.1814 140.061 55.0146L141.7 53.3754C141.782 53.2929 141.88 53.2274 141.987 53.1826C142.095 53.1379 142.21 53.1147 142.326 53.1144C142.443 53.1142 142.558 53.1369 142.666 53.1812C142.774 53.2256 142.871 53.2907 142.954 53.3729C143.036 53.455 143.102 53.5526 143.147 53.6601C143.192 53.7676 143.215 53.8829 143.215 53.9993C143.215 54.1157 143.193 54.2311 143.148 54.3388C143.104 54.4464 143.039 54.5443 142.957 54.6268L141.317 56.2712C141.235 56.3546 141.137 56.4209 141.028 56.4661C140.92 56.5114 140.804 56.5348 140.686 56.5349Z" fill="#AAB4BC"/>
<path d="M62.1109 56.5349C61.9355 56.5333 61.7645 56.4801 61.6191 56.382C61.4737 56.2839 61.3603 56.1453 61.2931 55.9833C61.2259 55.8213 61.2077 55.6431 61.241 55.4709C61.2742 55.2986 61.3574 55.14 61.48 55.0146L63.1244 53.3754C63.2904 53.2088 63.5157 53.1149 63.7509 53.1144C63.986 53.114 64.2118 53.2069 64.3784 53.3729C64.545 53.5388 64.6389 53.7641 64.6394 53.9993C64.6399 54.2345 64.5469 54.4602 64.381 54.6268L62.7366 56.2712C62.6553 56.3549 62.5581 56.4214 62.4506 56.4667C62.3431 56.512 62.2276 56.5352 62.1109 56.5349Z" fill="#AAB4BC"/>
<path d="M66.5314 56.5349C66.4148 56.5352 66.2992 56.512 66.1917 56.4667C66.0842 56.4214 65.987 56.3549 65.9057 56.2712C65.7393 56.1045 65.6459 55.8785 65.6459 55.6429C65.6459 55.4073 65.7393 55.1814 65.9057 55.0146L67.5449 53.3754C67.6271 53.2929 67.7247 53.2274 67.8322 53.1826C67.9397 53.1379 68.0549 53.1147 68.1714 53.1144C68.2878 53.1142 68.4032 53.1369 68.5108 53.1812C68.6185 53.2256 68.7164 53.2907 68.7989 53.3729C68.8814 53.455 68.9469 53.5526 68.9917 53.6601C69.0365 53.7676 69.0597 53.8829 69.0599 53.9993C69.0601 54.1157 69.0374 54.2311 68.9931 54.3388C68.9488 54.4464 68.8837 54.5443 68.8015 54.6268L67.1778 56.2815C67.0925 56.365 66.9914 56.4304 66.8803 56.4739C66.7693 56.5174 66.6506 56.5382 66.5314 56.5349Z" fill="#AAB4BC"/>
<path d="M70.8766 56.5349C70.7012 56.5333 70.5302 56.4801 70.3848 56.382C70.2394 56.2839 70.126 56.1453 70.0588 55.9833C69.9916 55.8213 69.9734 55.6431 70.0067 55.4709C70.0399 55.2986 70.123 55.14 70.2457 55.0146L71.8901 53.3754C72.056 53.2088 72.2814 53.1149 72.5165 53.1144C72.7517 53.114 72.9774 53.2069 73.1441 53.3729C73.3107 53.5388 73.4046 53.7641 73.4051 53.9993C73.4056 54.2345 73.3126 54.4602 73.1467 54.6268L71.5023 56.2712C71.421 56.3549 71.3238 56.4214 71.2163 56.4667C71.1088 56.512 70.9932 56.5352 70.8766 56.5349Z" fill="#AAB4BC"/>
<path d="M188.372 35.2607H186.924V33.818C186.924 33.5643 186.823 33.321 186.644 33.1416C186.464 32.9622 186.221 32.8614 185.967 32.8614C185.714 32.8614 185.47 32.9622 185.291 33.1416C185.111 33.321 185.011 33.5643 185.011 33.818V35.2607H183.568C183.326 35.2785 183.099 35.3873 182.934 35.5652C182.768 35.7432 182.677 35.9771 182.677 36.22C182.677 36.4628 182.768 36.6967 182.934 36.8747C183.099 37.0526 183.326 37.1614 183.568 37.1792H185.011V38.6219C185.011 38.8756 185.111 39.1189 185.291 39.2983C185.47 39.4777 185.714 39.5785 185.967 39.5785C186.221 39.5785 186.464 39.4777 186.644 39.2983C186.823 39.1189 186.924 38.8756 186.924 38.6219V37.1792H188.372C188.614 37.1614 188.841 37.0526 189.006 36.8747C189.171 36.6967 189.263 36.4628 189.263 36.22C189.263 35.9771 189.171 35.7432 189.006 35.5652C188.841 35.3873 188.614 35.2785 188.372 35.2607Z" fill="#B7C4CD"/>
<path d="M131.483 5.81723H130.04V4.37451C130.04 4.1208 129.939 3.87748 129.76 3.69807C129.58 3.51867 129.337 3.41788 129.083 3.41788C128.829 3.41788 128.586 3.51867 128.407 3.69807C128.227 3.87748 128.127 4.1208 128.127 4.37451V5.81723H126.684C126.43 5.81723 126.187 5.91801 126.007 6.09742C125.828 6.27682 125.727 6.52015 125.727 6.77386C125.727 7.02758 125.828 7.2709 126.007 7.45031C126.187 7.62971 126.43 7.7305 126.684 7.7305H128.127V9.17838C128.127 9.4321 128.227 9.67542 128.407 9.85483C128.586 10.0342 128.829 10.135 129.083 10.135C129.337 10.135 129.58 10.0342 129.76 9.85483C129.939 9.67542 130.04 9.4321 130.04 9.17838V7.7305H131.483C131.736 7.7305 131.98 7.62971 132.159 7.45031C132.338 7.2709 132.439 7.02758 132.439 6.77386C132.439 6.52015 132.338 6.27682 132.159 6.09742C131.98 5.91801 131.736 5.81723 131.483 5.81723Z" fill="#B7C4CD"/>
<path d="M32.131 15.1667H30.6883V13.7137C30.6883 13.46 30.5875 13.2166 30.4081 13.0372C30.2287 12.8578 29.9853 12.757 29.7316 12.757C29.4779 12.757 29.2346 12.8578 29.0552 13.0372C28.8758 13.2166 28.775 13.46 28.775 13.7137V15.1667H27.3271C27.0849 15.1845 26.8583 15.2933 26.693 15.4713C26.5277 15.6492 26.4358 15.8831 26.4358 16.126C26.4358 16.3689 26.5277 16.6027 26.693 16.7807C26.8583 16.9586 27.0849 17.0674 27.3271 17.0852H28.775V18.5279C28.775 18.7816 28.8758 19.0249 29.0552 19.2043C29.2346 19.3837 29.4779 19.4845 29.7316 19.4845C29.9853 19.4845 30.2287 19.3837 30.4081 19.2043C30.5875 19.0249 30.6883 18.7816 30.6883 18.5279V17.0852H32.131C32.3732 17.0674 32.5997 16.9586 32.7651 16.7807C32.9304 16.6027 33.0223 16.3689 33.0223 16.126C33.0223 15.8831 32.9304 15.6492 32.7651 15.4713C32.5997 15.2933 32.3732 15.1845 32.131 15.1667Z" fill="#B7C4CD"/>
<path d="M6.23414 98.7143H4.79143V97.2664C4.77363 97.0242 4.66484 96.7977 4.48691 96.6323C4.30898 96.467 4.07509 96.3751 3.8322 96.3751C3.58932 96.3751 3.35542 96.467 3.17749 96.6323C2.99957 96.7977 2.89078 97.0242 2.87298 97.2664V98.7143H1.43027C1.17655 98.7143 0.933229 98.8151 0.753825 98.9945C0.574421 99.1739 0.473633 99.4173 0.473633 99.671C0.473633 99.9247 0.574421 100.168 0.753825 100.347C0.933229 100.527 1.17655 100.628 1.43027 100.628H2.87298V102.07C2.89078 102.313 2.99957 102.539 3.17749 102.704C3.35542 102.87 3.58932 102.962 3.8322 102.962C4.07509 102.962 4.30898 102.87 4.48691 102.704C4.66484 102.539 4.77363 102.313 4.79143 102.07V100.628H6.23414C6.48785 100.628 6.73118 100.527 6.91058 100.347C7.08999 100.168 7.19077 99.9247 7.19077 99.671C7.19077 99.4173 7.08999 99.1739 6.91058 98.9945C6.73118 98.8151 6.48785 98.7143 6.23414 98.7143Z" fill="#B7C4CD"/>
<path d="M36.0592 147.514H34.601V146.071C34.601 145.817 34.5002 145.574 34.3208 145.395C34.1414 145.215 33.898 145.114 33.6443 145.114C33.3906 145.114 33.1473 145.215 32.9679 145.395C32.7885 145.574 32.6877 145.817 32.6877 146.071V147.514H31.2553C31.0016 147.514 30.7583 147.614 30.5789 147.794C30.3995 147.973 30.2987 148.217 30.2987 148.47C30.2987 148.724 30.3995 148.967 30.5789 149.147C30.7583 149.326 31.0016 149.427 31.2553 149.427H32.698V150.875C32.698 151.129 32.7988 151.372 32.9782 151.551C33.1576 151.731 33.4009 151.832 33.6547 151.832C33.9084 151.832 34.1517 151.731 34.3311 151.551C34.5105 151.372 34.6113 151.129 34.6113 150.875V149.427H36.0592C36.3129 149.427 36.5562 149.326 36.7356 149.147C36.915 148.967 37.0158 148.724 37.0158 148.47C37.0158 148.217 36.915 147.973 36.7356 147.794C36.5562 147.614 36.3129 147.514 36.0592 147.514Z" fill="#B7C4CD"/>
<path d="M173.01 137.719H171.567V136.276C171.577 136.145 171.559 136.012 171.516 135.887C171.472 135.763 171.403 135.648 171.313 135.551C171.223 135.454 171.114 135.377 170.992 135.324C170.871 135.271 170.74 135.244 170.608 135.244C170.476 135.244 170.345 135.271 170.224 135.324C170.103 135.377 169.994 135.454 169.903 135.551C169.813 135.648 169.744 135.763 169.701 135.887C169.657 136.012 169.639 136.145 169.649 136.276V137.719H168.206C167.952 137.719 167.709 137.82 167.53 137.999C167.35 138.179 167.249 138.422 167.249 138.676C167.249 138.93 167.35 139.173 167.53 139.352C167.709 139.532 167.952 139.632 168.206 139.632H169.649V141.08C169.667 141.323 169.775 141.549 169.953 141.714C170.131 141.88 170.365 141.972 170.608 141.972C170.851 141.972 171.085 141.88 171.263 141.714C171.441 141.549 171.549 141.323 171.567 141.08V139.632H173.01C173.264 139.632 173.507 139.532 173.686 139.352C173.866 139.173 173.967 138.93 173.967 138.676C173.967 138.422 173.866 138.179 173.686 137.999C173.507 137.82 173.264 137.719 173.01 137.719Z" fill="#B7C4CD"/>
<path d="M18.6859 97.3081C18.6859 97.5055 18.6273 97.6985 18.5177 97.8626C18.408 98.0267 18.2521 98.1546 18.0698 98.2302C17.8874 98.3057 17.6867 98.3255 17.4931 98.2869C17.2996 98.2484 17.1217 98.1534 16.9822 98.0138C16.8426 97.8742 16.7475 97.6964 16.709 97.5028C16.6705 97.3092 16.6903 97.1086 16.7658 96.9262C16.8413 96.7438 16.9693 96.588 17.1334 96.4783C17.2975 96.3686 17.4905 96.3101 17.6878 96.3101C17.9521 96.3115 18.2052 96.4171 18.392 96.6039C18.5789 96.7908 18.6845 97.0439 18.6859 97.3081Z" fill="#B7C4CD"/>
<path d="M14.5477 42.6453C14.5477 42.8427 14.4892 43.0357 14.3795 43.1998C14.2698 43.3639 14.114 43.4918 13.9316 43.5674C13.7492 43.6429 13.5486 43.6627 13.355 43.6242C13.1614 43.5857 12.9836 43.4906 12.844 43.351C12.7044 43.2115 12.6094 43.0336 12.5709 42.84C12.5324 42.6464 12.5521 42.4458 12.6277 42.2634C12.7032 42.0811 12.8311 41.9252 12.9952 41.8155C13.1593 41.7059 13.3523 41.6473 13.5497 41.6473C13.8144 41.6473 14.0682 41.7525 14.2554 41.9396C14.4425 42.1268 14.5477 42.3807 14.5477 42.6453Z" fill="#B7C4CD"/>
<path d="M43.8467 46.7559C43.8466 46.9544 43.7874 47.1483 43.6765 47.313C43.5657 47.4776 43.4082 47.6054 43.2244 47.6802C43.0405 47.7549 42.8385 47.7731 42.6443 47.7324C42.45 47.6918 42.2723 47.5941 42.1338 47.4519C41.9953 47.3098 41.9023 47.1295 41.8668 46.9343C41.8313 46.739 41.8547 46.5376 41.9343 46.3557C42.0138 46.1739 42.1457 46.0199 42.3132 45.9134C42.4807 45.8069 42.6761 45.7528 42.8745 45.7579C43.1347 45.7646 43.382 45.8728 43.5636 46.0592C43.7452 46.2456 43.8468 46.4956 43.8467 46.7559Z" fill="#B7C4CD"/>
<path d="M81.3363 0.998018C81.3363 1.19562 81.2777 1.38878 81.1678 1.55301C81.0579 1.71724 80.9017 1.84516 80.719 1.92054C80.5364 1.99592 80.3354 2.01538 80.1417 1.97645C79.948 1.93752 79.7702 1.84196 79.6308 1.70187C79.4914 1.56178 79.3968 1.38347 79.3589 1.18953C79.3209 0.995599 79.3414 0.794774 79.4178 0.612505C79.4941 0.430236 79.6228 0.274729 79.7876 0.165691C79.9524 0.0566528 80.1459 -0.00101047 80.3435 1.34018e-05C80.4743 1.16275e-05 80.6038 0.0258626 80.7246 0.0760802C80.8454 0.126298 80.9551 0.199893 81.0474 0.292634C81.1396 0.385376 81.2126 0.495436 81.2622 0.616489C81.3118 0.737543 81.337 0.867203 81.3363 0.998018Z" fill="#B7C4CD"/>
<path d="M163.691 6.77437C163.691 6.97176 163.633 7.16471 163.523 7.32883C163.413 7.49296 163.258 7.62087 163.075 7.69641C162.893 7.77195 162.692 7.79171 162.499 7.7532C162.305 7.7147 162.127 7.61965 161.988 7.48007C161.848 7.3405 161.753 7.16267 161.714 6.96907C161.676 6.77548 161.696 6.57481 161.771 6.39245C161.847 6.21009 161.975 6.05422 162.139 5.94456C162.303 5.8349 162.496 5.77637 162.693 5.77637C162.824 5.77637 162.954 5.80218 163.075 5.85234C163.196 5.90249 163.306 5.976 163.399 6.06868C163.492 6.16135 163.565 6.27137 163.615 6.39245C163.665 6.51354 163.691 6.64331 163.691 6.77437Z" fill="#B7C4CD"/>
<path d="M191.32 52.9923C191.32 53.1897 191.262 53.3826 191.152 53.5467C191.042 53.7108 190.887 53.8388 190.704 53.9143C190.522 53.9898 190.321 54.0096 190.128 53.9711C189.934 53.9326 189.756 53.8375 189.617 53.698C189.477 53.5584 189.382 53.3806 189.343 53.187C189.305 52.9934 189.325 52.7927 189.4 52.6103C189.476 52.428 189.604 52.2721 189.768 52.1625C189.932 52.0528 190.125 51.9943 190.322 51.9943C190.587 51.9943 190.841 52.0994 191.028 52.2866C191.215 52.4737 191.32 52.7276 191.32 52.9923Z" fill="#B7C4CD"/>
<path d="M165.86 46.756C165.86 46.9534 165.801 47.1463 165.692 47.3104C165.582 47.4745 165.426 47.6025 165.244 47.678C165.061 47.7535 164.861 47.7733 164.667 47.7348C164.473 47.6963 164.296 47.6012 164.156 47.4617C164.016 47.3221 163.921 47.1443 163.883 46.9507C163.844 46.7571 163.864 46.5564 163.94 46.3741C164.015 46.1917 164.143 46.0358 164.307 45.9262C164.471 45.8165 164.664 45.758 164.862 45.758C164.993 45.758 165.123 45.7838 165.244 45.8339C165.365 45.8841 165.475 45.9576 165.567 46.0503C165.66 46.1429 165.734 46.253 165.784 46.3741C165.834 46.4951 165.86 46.6249 165.86 46.756Z" fill="#B7C4CD"/>
<path d="M176.474 83.0774C176.474 83.1899 176.44 83.2999 176.378 83.3934C176.315 83.487 176.227 83.5599 176.123 83.6029C176.019 83.646 175.904 83.6572 175.794 83.6353C175.684 83.6134 175.582 83.5592 175.503 83.4796C175.423 83.4001 175.369 83.2987 175.347 83.1884C175.325 83.0781 175.336 82.9637 175.38 82.8597C175.423 82.7558 175.495 82.667 175.589 82.6045C175.683 82.542 175.793 82.5086 175.905 82.5086C176.056 82.5086 176.201 82.5685 176.307 82.6752C176.414 82.7819 176.474 82.9266 176.474 83.0774Z" fill="#B7C4CD"/>
<path d="M179.361 21.7544C179.361 21.8669 179.328 21.9768 179.265 22.0704C179.203 22.1639 179.114 22.2368 179.01 22.2799C178.906 22.3229 178.792 22.3342 178.681 22.3122C178.571 22.2903 178.47 22.2361 178.39 22.1566C178.31 22.077 178.256 21.9757 178.234 21.8653C178.212 21.755 178.224 21.6406 178.267 21.5367C178.31 21.4327 178.383 21.3439 178.476 21.2814C178.57 21.2189 178.68 21.1855 178.792 21.1855C178.867 21.1849 178.941 21.1991 179.011 21.2274C179.08 21.2558 179.143 21.2976 179.196 21.3506C179.249 21.4036 179.291 21.4665 179.319 21.5359C179.347 21.6052 179.362 21.6795 179.361 21.7544Z" fill="#B7C4CD"/>
<path d="M95.9479 0.997765C95.9479 1.11027 95.9145 1.22024 95.852 1.31378C95.7895 1.40732 95.7007 1.48023 95.5967 1.52328C95.4928 1.56633 95.3784 1.5776 95.2681 1.55565C95.1577 1.5337 95.0564 1.47952 94.9768 1.39998C94.8973 1.32043 94.8431 1.21907 94.8212 1.10874C94.7992 0.998397 94.8105 0.884027 94.8535 0.780091C94.8966 0.676154 94.9695 0.58732 95.063 0.524819C95.1566 0.462317 95.2666 0.428955 95.3791 0.428955C95.5299 0.428955 95.6746 0.488883 95.7813 0.595556C95.8879 0.702228 95.9479 0.846907 95.9479 0.997765Z" fill="#B7C4CD"/>
<path d="M27.5076 39.5789C27.5076 39.6914 27.4743 39.8014 27.4118 39.895C27.3493 39.9885 27.2604 40.0614 27.1565 40.1045C27.0526 40.1475 26.9382 40.1588 26.8279 40.1368C26.7175 40.1149 26.6162 40.0607 26.5366 39.9812C26.4571 39.9016 26.4029 39.8003 26.3809 39.6899C26.359 39.5796 26.3703 39.4652 26.4133 39.3613C26.4564 39.2573 26.5293 39.1685 26.6228 39.106C26.7164 39.0435 26.8263 39.0101 26.9388 39.0101C27.0897 39.0101 27.2344 39.0701 27.341 39.1767C27.4477 39.2834 27.5076 39.4281 27.5076 39.5789Z" fill="#B7C4CD"/>
<path d="M7.75886 115.401C7.75886 115.513 7.7255 115.623 7.663 115.717C7.60049 115.81 7.51166 115.883 7.40772 115.926C7.30378 115.969 7.18942 115.981 7.07908 115.959C6.96874 115.937 6.86739 115.883 6.78784 115.803C6.70829 115.724 6.65411 115.622 6.63216 115.512C6.61022 115.402 6.62148 115.287 6.66453 115.183C6.70759 115.079 6.78049 114.99 6.87403 114.928C6.96757 114.865 7.07755 114.832 7.19005 114.832C7.26494 114.831 7.33921 114.846 7.40853 114.874C7.47786 114.902 7.54084 114.944 7.59379 114.997C7.64675 115.05 7.68862 115.113 7.71697 115.182C7.74531 115.252 7.75955 115.326 7.75886 115.401Z" fill="#B7C4CD"/>
<path d="M30.8628 77.2185C30.8628 77.331 30.8295 77.4409 30.767 77.5345C30.7045 77.628 30.6156 77.7009 30.5117 77.744C30.4078 77.787 30.2934 77.7983 30.183 77.7764C30.0727 77.7544 29.9714 77.7002 29.8918 77.6207C29.8123 77.5411 29.7581 77.4398 29.7361 77.3294C29.7142 77.2191 29.7255 77.1047 29.7685 77.0008C29.8116 76.8969 29.8845 76.808 29.978 76.7455C30.0715 76.683 30.1815 76.6497 30.294 76.6497C30.4449 76.6497 30.5896 76.7096 30.6962 76.8163C30.8029 76.9229 30.8628 77.0676 30.8628 77.2185Z" fill="#B7C4CD"/>
<path d="M33.6583 131.71C33.6593 131.823 33.6268 131.933 33.5649 132.028C33.5031 132.122 33.4146 132.196 33.3107 132.239C33.2069 132.283 33.0924 132.295 32.9817 132.274C32.871 132.252 32.7692 132.199 32.6891 132.119C32.6091 132.04 32.5544 131.939 32.532 131.828C32.5096 131.718 32.5206 131.603 32.5635 131.499C32.6064 131.395 32.6793 131.305 32.7729 131.243C32.8666 131.18 32.9767 131.147 33.0895 131.147C33.2394 131.147 33.3833 131.206 33.4899 131.311C33.5964 131.417 33.6569 131.56 33.6583 131.71Z" fill="#B7C4CD"/>
<path d="M67.883 171.848C67.883 171.999 67.8231 172.143 67.7164 172.25C67.6097 172.357 67.465 172.417 67.3142 172.417C67.1633 172.417 67.0187 172.357 66.912 172.25C66.8053 172.143 66.7454 171.999 66.7454 171.848C66.7454 171.697 66.8053 171.552 66.912 171.446C67.0187 171.339 67.1633 171.279 67.3142 171.279C67.465 171.279 67.6097 171.339 67.7164 171.446C67.8231 171.552 67.883 171.697 67.883 171.848Z" fill="#FEFAEF"/>
<path d="M160.227 142.581C160.227 142.693 160.194 142.803 160.131 142.897C160.069 142.99 159.98 143.063 159.876 143.106C159.772 143.149 159.658 143.161 159.547 143.139C159.437 143.117 159.336 143.062 159.256 142.983C159.176 142.903 159.122 142.802 159.1 142.692C159.078 142.581 159.09 142.467 159.133 142.363C159.176 142.259 159.249 142.17 159.342 142.108C159.436 142.045 159.546 142.012 159.658 142.012C159.809 142.012 159.954 142.072 160.06 142.178C160.167 142.285 160.227 142.43 160.227 142.581Z" fill="#B7C4CD"/>
<path d="M148.128 165.643C148.128 165.755 148.094 165.865 148.032 165.959C147.969 166.053 147.88 166.125 147.776 166.168C147.672 166.212 147.558 166.223 147.448 166.201C147.337 166.179 147.236 166.125 147.157 166.045C147.077 165.966 147.023 165.864 147.001 165.754C146.979 165.644 146.99 165.529 147.033 165.425C147.076 165.321 147.149 165.233 147.243 165.17C147.336 165.108 147.446 165.074 147.559 165.074C147.71 165.074 147.854 165.134 147.961 165.241C148.068 165.347 148.128 165.492 148.128 165.643Z" fill="#B7C4CD"/>
<path d="M59.8758 1.99085C59.8768 2.10378 59.8442 2.21446 59.7821 2.30879C59.72 2.40312 59.6312 2.47683 59.5271 2.52052C59.4229 2.56421 59.3081 2.57591 59.1973 2.55413C59.0865 2.53234 58.9847 2.47806 58.9048 2.3982C58.825 2.31835 58.7707 2.21652 58.7489 2.1057C58.7271 1.99488 58.7388 1.88009 58.7825 1.77595C58.8262 1.6718 58.8999 1.58302 58.9942 1.52091C59.0886 1.45881 59.1992 1.42619 59.3122 1.42721C59.4617 1.42721 59.605 1.48659 59.7107 1.59229C59.8164 1.698 59.8758 1.84136 59.8758 1.99085Z" fill="#B7C4CD"/>
<path d="M198.178 75.4657C198.18 75.5785 198.147 75.6889 198.085 75.7832C198.023 75.8774 197.935 75.9511 197.831 75.9949C197.727 76.0388 197.613 76.0508 197.502 76.0294C197.391 76.0081 197.289 75.9543 197.209 75.875C197.129 75.7956 197.075 75.6943 197.052 75.5838C197.03 75.4733 197.041 75.3587 197.084 75.2544C197.127 75.1502 197.199 75.0611 197.293 74.9983C197.387 74.9356 197.497 74.9021 197.61 74.9021C197.76 74.9021 197.904 74.9613 198.01 75.0669C198.117 75.1724 198.177 75.3158 198.178 75.4657Z" fill="#B7C4CD"/>
<path d="M17.2586 131.147C17.2586 131.259 17.2252 131.369 17.1627 131.463C17.1002 131.556 17.0114 131.629 16.9074 131.672C16.8035 131.715 16.6891 131.727 16.5788 131.705C16.4685 131.683 16.3671 131.629 16.2876 131.549C16.208 131.47 16.1538 131.368 16.1319 131.258C16.1099 131.148 16.1212 131.033 16.1643 130.929C16.2073 130.825 16.2802 130.736 16.3738 130.674C16.4673 130.611 16.5773 130.578 16.6898 130.578C16.7647 130.577 16.8389 130.592 16.9083 130.62C16.9776 130.648 17.0406 130.69 17.0935 130.743C17.1465 130.796 17.1883 130.859 17.2167 130.928C17.245 130.998 17.2593 131.072 17.2586 131.147Z" fill="#B7C4CD"/>
<path d="M33.0879 114.832C33.0879 114.945 33.0545 115.055 32.992 115.148C32.9295 115.242 32.8407 115.315 32.7368 115.358C32.6328 115.401 32.5185 115.412 32.4081 115.39C32.2978 115.368 32.1964 115.314 32.1169 115.235C32.0373 115.155 31.9831 115.054 31.9612 114.943C31.9393 114.833 31.9505 114.719 31.9936 114.615C32.0366 114.511 32.1095 114.422 32.2031 114.359C32.2966 114.297 32.4066 114.264 32.5191 114.264C32.6699 114.264 32.8146 114.323 32.9213 114.43C33.028 114.537 33.0879 114.682 33.0879 114.832Z" fill="#B7C4CD"/>
<path d="M171.173 54.9061C171.174 55.0188 171.142 55.1292 171.08 55.2235C171.018 55.3177 170.93 55.3914 170.826 55.4352C170.722 55.4791 170.608 55.4911 170.497 55.4697C170.386 55.4484 170.284 55.3946 170.204 55.3153C170.124 55.2359 170.069 55.1346 170.047 55.0241C170.025 54.9136 170.036 54.799 170.079 54.6948C170.121 54.5905 170.194 54.5014 170.288 54.4386C170.382 54.3759 170.492 54.3424 170.605 54.3424C170.755 54.3424 170.898 54.4016 171.005 54.5072C171.112 54.6127 171.172 54.7561 171.173 54.9061Z" fill="#B7C4CD"/>
<path d="M147.557 2.55914C147.557 2.67164 147.524 2.78161 147.461 2.87515C147.399 2.96869 147.31 3.0416 147.206 3.08465C147.102 3.1277 146.988 3.13897 146.877 3.11702C146.767 3.09507 146.666 3.0409 146.586 2.96135C146.507 2.8818 146.452 2.78045 146.43 2.67011C146.409 2.55977 146.42 2.4454 146.463 2.34147C146.506 2.23753 146.579 2.14869 146.672 2.08619C146.766 2.02369 146.876 1.99033 146.988 1.99033C147.139 1.99033 147.284 2.05026 147.391 2.15693C147.497 2.2636 147.557 2.40828 147.557 2.55914Z" fill="#B7C4CD"/>
<path d="M8.18884 69.9796C8.19295 70.178 8.1378 70.3731 8.03044 70.5401C7.92307 70.707 7.76837 70.8381 7.58611 70.9167C7.40384 70.9953 7.20229 71.0177 7.00721 70.9812C6.81213 70.9446 6.63238 70.8507 6.49093 70.7115C6.34948 70.5722 6.25277 70.394 6.21314 70.1995C6.17351 70.005 6.19277 69.8031 6.26846 69.6197C6.34415 69.4362 6.47282 69.2794 6.63805 69.1695C6.80327 69.0595 6.99753 69.0013 7.19601 69.0022C7.45625 69.0035 7.7057 69.1064 7.89117 69.289C8.07663 69.4716 8.18345 69.7194 8.18884 69.9796Z" fill="#B7C4CD"/>
<path d="M162.694 155.445C162.694 155.643 162.636 155.836 162.526 156C162.416 156.164 162.26 156.292 162.078 156.367C161.896 156.443 161.695 156.463 161.501 156.424C161.308 156.386 161.13 156.291 160.99 156.151C160.851 156.012 160.756 155.834 160.717 155.64C160.679 155.446 160.699 155.246 160.774 155.063C160.85 154.881 160.978 154.725 161.142 154.616C161.306 154.506 161.499 154.447 161.696 154.447C161.96 154.449 162.213 154.554 162.4 154.741C162.587 154.928 162.693 155.181 162.694 155.445Z" fill="#B7C4CD"/>
<path d="M47.997 161.506C47.999 161.704 47.9418 161.899 47.8327 162.065C47.7236 162.231 47.5676 162.36 47.3845 162.437C47.2014 162.513 46.9996 162.534 46.8049 162.495C46.6102 162.456 46.4315 162.361 46.2915 162.22C46.1515 162.079 46.0567 161.9 46.0191 161.705C45.9815 161.51 46.0029 161.309 46.0805 161.126C46.1581 160.943 46.2885 160.788 46.4548 160.68C46.6212 160.571 46.8161 160.515 47.0145 160.518C47.2747 160.522 47.5231 160.628 47.7066 160.812C47.8901 160.997 47.9943 161.246 47.997 161.506Z" fill="#B7C4CD"/>
<path d="M136.472 168.13C136.472 168.328 136.413 168.521 136.304 168.685C136.194 168.849 136.037 168.977 135.855 169.053C135.672 169.128 135.471 169.148 135.277 169.109C135.084 169.07 134.906 168.974 134.767 168.834C134.627 168.694 134.533 168.516 134.495 168.322C134.457 168.128 134.477 167.927 134.554 167.745C134.63 167.562 134.759 167.407 134.923 167.298C135.088 167.189 135.282 167.131 135.479 167.132C135.743 167.134 135.996 167.239 136.182 167.426C136.368 167.613 136.472 167.866 136.472 168.13Z" fill="#B7C4CD"/>
<path d="M44.8453 5.77596C44.8463 5.97356 44.7886 6.16702 44.6796 6.33182C44.5705 6.49662 44.415 6.62535 44.2328 6.70168C44.0505 6.77801 43.8497 6.79851 43.6557 6.76059C43.4618 6.72266 43.2835 6.62802 43.1434 6.48866C43.0033 6.34929 42.9077 6.17148 42.8688 5.97774C42.8299 5.78401 42.8493 5.58308 42.9247 5.40041C43.0001 5.21775 43.128 5.06158 43.2923 4.95169C43.4565 4.84179 43.6496 4.78313 43.8472 4.78313C43.9781 4.78244 44.1077 4.80762 44.2288 4.85721C44.3498 4.9068 44.4599 4.97982 44.5526 5.07208C44.6454 5.16435 44.719 5.27402 44.7692 5.39482C44.8194 5.51561 44.8453 5.64514 44.8453 5.77596Z" fill="#B7C4CD"/>
<defs>
<filter id="filter0_ii" x="67.9903" y="164.664" width="70.0473" height="21.3364" filterUnits="userSpaceOnUse" color-interpolation-filters="sRGB">
<feFlood flood-opacity="0" result="BackgroundImageFix"/>
<feBlend mode="normal" in="SourceGraphic" in2="BackgroundImageFix" result="shape"/>
<feColorMatrix in="SourceAlpha" type="matrix" values="0 0 0 0 0 0 0 0 0 0 0 0 0 0 0 0 0 0 127 0" result="hardAlpha"/>
<feOffset dx="2" dy="2"/>
<feGaussianBlur stdDeviation="1.5"/>
<feComposite in2="hardAlpha" operator="arithmetic" k2="-1" k3="1"/>
<feColorMatrix type="matrix" values="0 0 0 0 0.534167 0 0 0 0 0.645967 0 0 0 0 0.749167 0 0 0 0.48 0"/>
<feBlend mode="normal" in2="shape" result="effect1_innerShadow"/>
<feColorMatrix in="SourceAlpha" type="matrix" values="0 0 0 0 0 0 0 0 0 0 0 0 0 0 0 0 0 0 127 0" result="hardAlpha"/>
<feOffset dx="-1" dy="-1"/>
<feGaussianBlur stdDeviation="1.5"/>
<feComposite in2="hardAlpha" operator="arithmetic" k2="-1" k3="1"/>
<feColorMatrix type="matrix" values="0 0 0 0 0.9625 0 0 0 0 0.9625 0 0 0 0 0.9625 0 0 0 1 0"/>
<feBlend mode="normal" in2="effect1_innerShadow" result="effect2_innerShadow"/>
</filter>
<linearGradient id="paint0_linear" x1="95.001" y1="85" x2="117.826" y2="85.9529" gradientUnits="userSpaceOnUse">
<stop stop-color="#00B047"/>
<stop offset="1" stop-color="#4CD784"/>
</linearGradient>
</defs>
</svg>
