<svg viewBox="0 0 90 90" fill="none" xmlns="http://www.w3.org/2000/svg">
    <circle cx="45" cy="45" r="45" fill="#E8EDF1"/>
    <circle cx="45" cy="45" r="24" fill="#7F848C"/>
    <path d="M39.0198 35.2686L41.1094 49.1118C41.3705 50.6789 42.6765 51.9848 44.5049 51.9848C46.072 51.9848 47.6393 50.6789 47.9004 49.1118L49.99 35.2686C50.5123 31.873 47.9004 29 44.5049 29C41.1092 28.9998 38.7585 31.873 39.0198 35.2686Z" fill="#E8EDF1"/>
    <path d="M44.5035 61.1264C46.2345 61.1264 47.6378 59.7231 47.6378 57.992C47.6378 56.261 46.2345 54.8577 44.5035 54.8577C42.7724 54.8577 41.3691 56.261 41.3691 57.992C41.3691 59.7231 42.7724 61.1264 44.5035 61.1264Z" fill="#E8EDF1"/>
    <g clip-path="url(#clip0_228_5)">
        <path d="M69.7488 20.2512C63.1381 13.6407 54.3488 10 45 10C35.6512 10 26.8619 13.6407 20.2512 20.2512C13.6407 26.8619 10 35.6512 10 45C10 54.3488 13.6407 63.1381 20.2512 69.7488C26.8619 76.3593 35.6512 80 45 80C54.3488 80 63.1381 76.3593 69.7488 69.7488C76.3593 63.1381 80 54.3488 80 45C80 35.6512 76.3593 26.8619 69.7488 20.2512ZM45 72.6172C29.7719 72.6172 17.3828 60.2281 17.3828 45C17.3828 29.7719 29.7719 17.3828 45 17.3828C60.2281 17.3828 72.6172 29.7719 72.6172 45C72.6172 60.2281 60.2281 72.6172 45 72.6172Z" fill="#7F848C"/>
    </g>
    <defs>
        <clipPath id="clip0_228_5">
            <rect width="70" height="70" fill="white" transform="translate(10 10)"/>
        </clipPath>
    </defs>
</svg>
