<svg width="71" height="59" viewBox="0 0 71 59" fill="none" xmlns="http://www.w3.org/2000/svg">
<rect width="71" height="59" fill="#E5E5E5"/>
<rect x="-164" y="-3305" width="1600" height="3666" fill="#E8EDF1"/>
<rect x="-164" y="-6" width="1600" height="70" fill="#363C46"/>
<g filter="url(#filter0_dd)">
<path d="M33.8567 11.7136C34.64 10.4603 36.4653 10.4603 37.2487 11.7136L58.6402 45.94C59.4728 47.2721 58.5151 49 56.9442 49H14.1612C12.5904 49 11.6327 47.2721 12.4652 45.94L33.8567 11.7136Z" fill="#363C46"/>
</g>
<g filter="url(#filter1_ii)">
<path d="M33.8288 15.9306C34.6021 14.616 36.5032 14.616 37.2766 15.9306L53.7798 43.986C54.564 45.3192 53.6027 47 52.0559 47H19.0496C17.5027 47 16.5414 45.3192 17.3257 43.986L33.8288 15.9306Z" fill="#EB5757"/>
</g>
<path d="M32.8963 28.9205L33.9037 35.595C34.0297 36.3506 34.6593 36.9802 35.5409 36.9802C36.2964 36.9802 37.0521 36.3506 37.178 35.595L38.1855 28.9205C38.4373 27.2834 37.178 25.8982 35.5409 25.8982C33.9037 25.8981 32.7703 27.2834 32.8963 28.9205Z" fill="#3F4448"/>
<path d="M35.5405 41.3879C36.3751 41.3879 37.0517 40.7113 37.0517 39.8767C37.0517 39.0421 36.3751 38.3655 35.5405 38.3655C34.7059 38.3655 34.0293 39.0421 34.0293 39.8767C34.0293 40.7113 34.7059 41.3879 35.5405 41.3879Z" fill="#3F4448"/>
<defs>
<filter id="filter0_dd" x="0.158203" y="0.77356" width="70.7894" height="58.2264" filterUnits="userSpaceOnUse" color-interpolation-filters="sRGB">
<feFlood flood-opacity="0" result="BackgroundImageFix"/>
<feColorMatrix in="SourceAlpha" type="matrix" values="0 0 0 0 0 0 0 0 0 0 0 0 0 0 0 0 0 0 127 0"/>
<feOffset dx="4" dy="2"/>
<feGaussianBlur stdDeviation="4"/>
<feColorMatrix type="matrix" values="0 0 0 0 0.118854 0 0 0 0 0.139909 0 0 0 0 0.175 0 0 0 1 0"/>
<feBlend mode="normal" in2="BackgroundImageFix" result="effect1_dropShadow"/>
<feColorMatrix in="SourceAlpha" type="matrix" values="0 0 0 0 0 0 0 0 0 0 0 0 0 0 0 0 0 0 127 0"/>
<feOffset dx="-4" dy="-2"/>
<feGaussianBlur stdDeviation="4"/>
<feColorMatrix type="matrix" values="0 0 0 0 0.236979 0 0 0 0 0.265299 0 0 0 0 0.3125 0 0 0 1 0"/>
<feBlend mode="normal" in2="effect1_dropShadow" result="effect2_dropShadow"/>
<feBlend mode="normal" in="SourceGraphic" in2="effect2_dropShadow" result="shape"/>
</filter>
<filter id="filter1_ii" x="16.0469" y="13.9446" width="39.0124" height="34.0554" filterUnits="userSpaceOnUse" color-interpolation-filters="sRGB">
<feFlood flood-opacity="0" result="BackgroundImageFix"/>
<feBlend mode="normal" in="SourceGraphic" in2="BackgroundImageFix" result="shape"/>
<feColorMatrix in="SourceAlpha" type="matrix" values="0 0 0 0 0 0 0 0 0 0 0 0 0 0 0 0 0 0 127 0" result="hardAlpha"/>
<feOffset dx="1" dy="1"/>
<feGaussianBlur stdDeviation="2"/>
<feComposite in2="hardAlpha" operator="arithmetic" k2="-1" k3="1"/>
<feColorMatrix type="matrix" values="0 0 0 0 0.9875 0 0 0 0 0.497865 0 0 0 0 0.497865 0 0 0 1 0"/>
<feBlend mode="normal" in2="shape" result="effect1_innerShadow"/>
<feColorMatrix in="SourceAlpha" type="matrix" values="0 0 0 0 0 0 0 0 0 0 0 0 0 0 0 0 0 0 127 0" result="hardAlpha"/>
<feOffset dx="-1" dy="-1"/>
<feGaussianBlur stdDeviation="2"/>
<feComposite in2="hardAlpha" operator="arithmetic" k2="-1" k3="1"/>
<feColorMatrix type="matrix" values="0 0 0 0 0.8625 0 0 0 0 0.262344 0 0 0 0 0.262344 0 0 0 1 0"/>
<feBlend mode="normal" in2="effect1_innerShadow" result="effect2_innerShadow"/>
</filter>
</defs>
</svg>
