<svg width="90" height="90" viewBox="0 0 90 90" fill="none" xmlns="http://www.w3.org/2000/svg">
<circle cx="45" cy="45" r="45" fill="#E8EDF1"/>
<path d="M45 22.4414C32.5612 22.4414 22.4414 32.5612 22.4414 45C22.4414 57.4388 32.5612 67.5586 45 67.5586C57.4388 67.5586 67.5586 57.4388 67.5586 45C67.5586 32.5612 57.4388 22.4414 45 22.4414ZM57.3047 47.0508H47.0508V49.1016C47.0508 50.2351 46.1335 51.1523 45 51.1523C43.8665 51.1523 42.9492 50.2351 42.9492 49.1016V47.0508H40.8984C39.7649 47.0508 38.8477 46.1335 38.8477 45C38.8477 43.8665 39.7649 42.9492 40.8984 42.9492H42.9492V28.5938C42.9492 27.4602 43.8665 26.543 45 26.543C46.1335 26.543 47.0508 27.4602 47.0508 28.5938V42.9492H57.3047C58.4382 42.9492 59.3555 43.8665 59.3555 45C59.3555 46.1335 58.4382 47.0508 57.3047 47.0508Z" fill="#F2C94C"/>
<path d="M45 10C25.776 10 10 25.776 10 45C10 64.224 25.776 80 45 80C64.224 80 80 64.224 80 45C80 25.776 64.224 10 45 10ZM45 71.6602C30.3 71.6602 18.3398 59.7 18.3398 45C18.3398 30.3 30.3 18.3398 45 18.3398C59.7 18.3398 71.6602 30.3 71.6602 45C71.6602 59.7 59.7 71.6602 45 71.6602Z" fill="#F2C94C"/>
</svg>
