<svg width="260" height="225" viewBox="0 0 260 225" fill="none" xmlns="http://www.w3.org/2000/svg">
<path d="M139.03 225C193.066 225 236.871 181.195 236.871 127.159C236.871 73.1234 193.066 29.3186 139.03 29.3186C84.9943 29.3186 41.1895 73.1234 41.1895 127.159C41.1895 181.195 84.9943 225 139.03 225Z" fill="#525862"/>
<path d="M37.126 188.391C38.3659 188.968 39.6225 189.42 40.9123 189.472C46.0439 189.68 49.7067 183.484 54.8466 183.523C58.8076 183.554 62.0405 187.339 66.0001 187.25C71.1511 187.133 72.6933 181.939 75.9706 179.06C79.2991 176.132 84.2712 172.019 88.9936 172.632C93.888 173.268 97.365 178.443 102.289 178.784C105.803 179.028 108.968 176.704 111.434 174.181C113.9 171.658 116.134 168.739 119.302 167.195C120.844 166.458 122.533 166.081 124.242 166.091C125.951 166.101 127.635 166.499 129.168 167.253C132.103 168.726 134.226 171.396 136.724 173.529C139.222 175.662 142.618 177.343 145.717 176.261C147.944 175.485 149.461 173.479 151.147 171.823C154.232 168.772 158.401 166.635 162.733 166.728C169.309 166.866 173.859 171.607 178.405 175.718C181.775 178.769 185.294 184.935 190.382 184.948C196.177 184.96 199.74 176.894 205.519 177.302C210.868 177.679 213.53 185.086 218.86 185.685C225.058 186.379 230.727 177.418 236.039 180.693C238.928 182.476 239.576 187.211 242.895 187.922C246.25 188.639 248.757 184.483 252.154 184.002C254.875 183.616 257.424 185.814 258.406 188.393C265.855 208.045 227.164 209.955 216.677 209.955C206.189 209.955 196.595 208.589 189.256 206.332C177.883 213.999 155.149 219.231 128.957 219.231C102.648 219.231 79.8275 213.952 68.5034 206.227C61.1209 208.546 51.4001 209.955 40.7486 209.955C32.0791 209.955 23.2542 209.137 14.8814 206.787C10.0647 205.436 -0.1901 203.099 0.00268051 196.449C0.113633 192.642 3.44082 189.524 7.0981 188.509C9.0233 187.976 11.0462 187.899 13.0063 188.284C16.9146 189.058 21.2141 191.562 24.5038 189.308C25.7811 188.433 26.5925 186.963 27.9392 186.2C30.8433 184.558 33.9098 186.893 37.126 188.391Z" fill="#49505B"/>
<path d="M25.6791 16.1386C25.5474 15.3425 26.6014 13.7365 27.7512 13.7628C28.2075 13.7726 28.6554 13.8904 29.1117 13.8683C30.3281 13.81 30.9591 12.8627 31.4279 12.0778C31.8967 11.2928 32.83 10.4024 34.0158 10.5979C35.7231 10.885 36.583 13.1374 38.5233 11.4467C39.7937 10.3372 39.8894 8.79078 41.3276 7.71732C42.3151 6.98087 43.9198 6.54399 45.2443 6.95174C46.971 7.48986 47.6131 9.19576 49.4535 9.49394C51.4895 9.82403 52.9555 8.27347 53.6059 7.15562C54.3951 5.79922 54.6877 4.33326 55.3631 2.95329C55.9886 1.67595 57.2479 -0.0354991 59.4975 0.000560485C61.4031 0.0324594 62.2436 1.23907 63.1797 2.19742C64.3961 3.44564 66.9244 7.91703 69.7606 7.37752C70.8701 7.16671 71.4249 6.2888 72.4166 5.89492C74.0212 5.26249 76.0655 6.13208 77.0322 7.22496C77.9989 8.31785 78.3816 9.63818 79.4745 10.6728C79.7713 10.973 80.1391 11.1934 80.5438 11.3136C82.0694 11.7296 83.4896 10.4481 85.1206 10.3524C85.6418 10.3339 86.1612 10.4229 86.6465 10.6137C87.1318 10.8046 87.5727 11.0934 87.9416 11.462C88.5907 12.1083 88.9429 12.8711 89.4395 13.5798C89.5746 13.7982 89.7613 13.9801 89.9831 14.1096C90.7002 14.4937 91.7084 14.1706 92.5863 14.0194C94.7541 13.6463 97.2186 14.6421 97.8303 16.1386H25.6791Z" fill="#525862"/>
<path d="M244.308 21.7442C244.394 21.2227 243.704 20.1701 242.951 20.1867C242.651 20.1867 242.357 20.2713 242.058 20.2561C241.26 20.2172 240.847 19.5959 240.532 19.0827C240.217 18.5696 239.612 17.9815 238.836 18.1119C237.717 18.3005 237.152 19.7762 235.88 18.6667C235.048 17.9413 234.984 16.9261 234.041 16.2229C233.395 15.7389 232.342 15.4532 231.474 15.7195C230.342 16.069 229.921 17.191 228.714 17.3838C227.379 17.6001 226.419 16.5835 225.992 15.8512C225.474 14.9622 225.283 14.0011 224.839 13.0954C224.423 12.2633 223.605 11.1357 222.126 11.1538C220.878 11.1746 220.323 11.9651 219.713 12.5934C218.914 13.4103 217.257 16.338 215.397 15.9899C214.672 15.8512 214.31 15.2757 213.656 15.0191C212.604 14.603 211.264 15.1744 210.63 15.8915C209.996 16.6085 209.745 17.4725 209.03 18.1507C208.834 18.3455 208.593 18.4885 208.328 18.5668C207.328 18.8442 206.397 17.9982 205.325 17.9358C204.984 17.9239 204.644 17.9823 204.326 18.1073C204.008 18.2323 203.719 18.4213 203.477 18.6625C203.052 19.0869 202.819 19.5876 202.495 20.0494C202.406 20.1923 202.284 20.3114 202.138 20.3961C201.668 20.6485 201.006 20.4364 200.432 20.3365C199.009 20.0924 197.395 20.7526 196.994 21.7234L244.308 21.7442Z" fill="#525862"/>
<path d="M21.8535 218.925C21.8535 222.148 74.0817 224.761 138.508 224.761C202.934 224.761 255.162 222.148 255.162 218.925C255.162 215.702 202.934 213.087 138.508 213.087C74.0817 213.087 21.8535 215.702 21.8535 218.925Z" fill="#525862"/>
<path d="M200.444 175.117H206.803V145.059H200.444V175.117Z" fill="#381F7A"/>
<path d="M189.781 173.654H216.859C217.472 173.654 217.969 173.157 217.969 172.544V163.056C217.969 162.444 217.472 161.947 216.859 161.947H189.781C189.168 161.947 188.672 162.444 188.672 163.056V172.544C188.672 173.157 189.168 173.654 189.781 173.654Z" fill="#7F848C"/>
<path d="M171.739 167.799H218.867C222.1 167.799 224.721 165.178 224.721 161.945C224.721 158.712 222.1 156.092 218.867 156.092H171.739C168.506 156.092 165.885 158.712 165.885 161.945C165.885 165.178 168.506 167.799 171.739 167.799Z" fill="#1A1D22"/>
<path opacity="0.2" d="M168.671 156.62C168.498 157.124 168.409 157.653 168.407 158.186V160.201C168.409 161.486 168.92 162.717 169.828 163.625C170.737 164.533 171.969 165.043 173.253 165.043H222.396C223.157 165.042 223.907 164.862 224.586 164.516C224.26 165.471 223.643 166.301 222.823 166.89C222.002 167.478 221.018 167.795 220.009 167.797H170.868C169.58 167.797 168.346 167.286 167.435 166.375C166.525 165.465 166.014 164.23 166.014 162.943V160.929C166.016 160.036 166.265 159.16 166.734 158.4C167.203 157.639 167.874 157.023 168.671 156.62Z" fill="#26282D"/>
<path d="M200.444 186.413H206.803V170.229H200.444V186.413Z" fill="#7F848C"/>
<path d="M198.832 195.569H208.4V179.385H198.832V195.569Z" fill="#7F848C"/>
<path d="M189.125 207.384H192.47C192.47 201.792 196.112 197.241 200.589 197.241H221.085C225.562 197.241 229.204 201.792 229.204 207.384H232.549C232.549 199.947 227.406 193.896 221.085 193.896H200.589C194.268 193.891 189.125 199.947 189.125 207.384Z" fill="#7F848C"/>
<path d="M173.725 207.384H177.07C177.07 201.792 180.712 197.241 185.189 197.241H205.686C210.163 197.241 213.805 201.792 213.805 207.384H217.149C217.149 199.947 212.006 193.896 205.686 193.896H185.189C178.867 193.891 173.725 199.947 173.725 207.384Z" fill="#7F848C"/>
<path d="M182.971 148.436H225.019C228.25 148.436 230.872 146.004 230.872 143.004V106.306C230.872 92.5301 218.839 81.3613 203.995 81.3613C189.155 81.3613 177.119 92.5301 177.119 106.306V143.004C177.118 146.004 179.742 148.436 182.971 148.436Z" fill="#1A1D22"/>
<path d="M230.869 217.717C233.57 217.717 235.759 215.527 235.759 212.827C235.759 210.126 233.57 207.936 230.869 207.936C228.168 207.936 225.979 210.126 225.979 212.827C225.979 215.527 228.168 217.717 230.869 217.717Z" fill="#7F848C"/>
<path d="M236.953 212.826C236.953 211.215 236.313 209.669 235.173 208.53C234.034 207.39 232.488 206.75 230.877 206.75C229.265 206.75 227.72 207.39 226.58 208.53C225.441 209.669 224.801 211.215 224.801 212.826" fill="#7F848C"/>
<path d="M215.408 217.717C218.109 217.717 220.298 215.527 220.298 212.827C220.298 210.126 218.109 207.936 215.408 207.936C212.707 207.936 210.518 210.126 210.518 212.827C210.518 215.527 212.707 217.717 215.408 217.717Z" fill="#7F848C"/>
<path d="M221.472 212.826C221.472 211.215 220.832 209.669 219.693 208.53C218.553 207.39 217.008 206.75 215.396 206.75C213.785 206.75 212.239 207.39 211.1 208.53C209.96 209.669 209.32 211.215 209.32 212.826" fill="#7F848C"/>
<path d="M190.839 217.717C193.54 217.717 195.73 215.527 195.73 212.827C195.73 210.126 193.54 207.936 190.839 207.936C188.139 207.936 185.949 210.126 185.949 212.827C185.949 215.527 188.139 217.717 190.839 217.717Z" fill="#7F848C"/>
<path d="M196.922 212.826C196.922 211.215 196.281 209.669 195.142 208.53C194.003 207.39 192.457 206.75 190.846 206.75C189.234 206.75 187.689 207.39 186.549 208.53C185.41 209.669 184.77 211.215 184.77 212.826" fill="#7F848C"/>
<path d="M175.359 217.717C178.06 217.717 180.249 215.527 180.249 212.827C180.249 210.126 178.06 207.936 175.359 207.936C172.658 207.936 170.469 210.126 170.469 212.827C170.469 215.527 172.658 217.717 175.359 217.717Z" fill="#7F848C"/>
<path d="M181.441 212.826C181.441 211.215 180.801 209.669 179.662 208.53C178.522 207.39 176.977 206.75 175.365 206.75C173.754 206.75 172.208 207.39 171.069 208.53C169.929 209.669 169.289 211.215 169.289 212.826" fill="#7F848C"/>
<path opacity="0.2" d="M185.984 87.7908C182.425 92.0222 180.298 97.341 180.298 103.124V139.822C180.298 142.822 182.918 145.255 186.151 145.255H228.199C229 145.256 229.795 145.101 230.537 144.8C229.737 146.913 227.572 148.432 225.022 148.432H182.972C179.739 148.432 177.119 145.999 177.119 142.999V106.305C177.119 98.9609 180.539 92.3592 185.984 87.7908Z" fill="#26282D"/>
<path d="M28.8683 132.747L145.08 132.747V125.27L28.8683 125.27V132.747Z" fill="#1A1D22"/>
<path d="M33.9857 140.188H139.965V132.711H33.9857V140.188Z" fill="#26282D"/>
<path d="M133.635 218.923H126.66L118.033 140.188H125.008L133.635 218.923Z" fill="#26282D"/>
<path d="M40.1699 218.923H47.1447L55.7713 140.188H48.7965L40.1699 218.923Z" fill="#26282D"/>
<path d="M135.472 120.702H83.8555V125.275H135.472V120.702Z" fill="#7F848C"/>
<path d="M89.1718 123.387L72.8382 77.4053C72.7141 77.056 72.5224 76.7345 72.2739 76.4593C72.0255 76.184 71.7252 75.9605 71.3903 75.8014C71.0554 75.6423 70.6924 75.5508 70.3221 75.5321C69.9518 75.5135 69.5815 75.568 69.2323 75.6925C68.8829 75.8166 68.5614 76.0084 68.2862 76.2568C68.0109 76.5053 67.7874 76.8055 67.6283 77.1404C67.4692 77.4753 67.3777 77.8383 67.3591 78.2086C67.3404 78.5789 67.3949 78.9493 67.5194 79.2985L83.8586 125.274L89.1718 123.387Z" fill="#7F848C"/>
<path d="M52.2069 106.534C52.6618 105.595 52.58 104.607 52.2943 103.713C52.0086 102.818 51.5273 102.009 50.9948 101.147C50.4622 100.284 49.9088 99.3716 49.5718 98.2565C49.2348 97.1414 49.3291 95.8655 49.6425 94.7892C50.3193 92.6076 51.7063 91.0002 52.6605 89.3567C53.1389 88.5246 53.5314 87.6786 53.6854 86.7438C53.8854 85.7844 53.766 84.7859 53.3456 83.9006C54.1333 84.5941 54.5161 85.7036 54.5674 86.7937C54.6188 87.8838 54.3414 88.9989 53.9211 89.9753C53.089 91.9558 51.8491 93.5632 51.3651 95.3024C51.0847 96.1157 51.0339 96.9905 51.2181 97.8307C51.3817 98.6865 51.8283 99.5505 52.2319 100.487C52.6577 101.401 53.064 102.457 53.157 103.538C53.2499 104.618 53.0044 105.832 52.2069 106.534Z" fill="white"/>
<path d="M46.502 107.731H58.7497V122.084C58.7497 122.93 58.4137 123.741 57.8154 124.34C57.2172 124.938 56.4059 125.274 55.5598 125.274H49.6918C48.8458 125.274 48.0345 124.938 47.4362 124.34C46.838 123.741 46.502 122.93 46.502 122.084V107.731Z" fill="#3BCE77"/>
<path d="M59.6118 111.698C56.6743 111.698 54.293 114.114 54.293 117.095C54.293 120.075 56.6743 122.49 59.6118 122.49C62.5492 122.49 64.9292 120.074 64.9292 117.095C64.9292 114.116 62.5548 111.698 59.6118 111.698ZM59.6118 120.566C58.9241 120.576 58.2491 120.38 57.6728 120.005C57.0964 119.63 56.6447 119.092 56.375 118.459C56.1053 117.826 56.0299 117.128 56.1583 116.452C56.2867 115.776 56.6132 115.154 57.0961 114.665C57.5791 114.175 58.1968 113.84 58.8706 113.702C59.5445 113.565 60.244 113.631 60.8803 113.892C61.5167 114.152 62.061 114.597 62.4441 115.168C62.8272 115.739 63.0318 116.411 63.0319 117.099C63.0374 118.012 62.6804 118.89 62.0391 119.54C61.3979 120.19 60.5249 120.559 59.6118 120.566Z" fill="#62D892"/>
<path opacity="0.2" d="M48.3231 118.616C48.1476 118.615 47.9794 118.545 47.8552 118.421C47.731 118.298 47.6609 118.129 47.6602 117.954V109.416C47.6605 109.241 47.7305 109.072 47.8548 108.948C47.9791 108.824 48.1475 108.755 48.3231 108.755C48.4984 108.755 48.6665 108.825 48.7905 108.949C48.9145 109.073 48.9843 109.241 48.9847 109.416V117.954C48.9839 118.129 48.914 118.297 48.7901 118.421C48.6662 118.545 48.4983 118.615 48.3231 118.616Z" fill="white"/>
<path d="M55.917 107.731V122.173C55.9166 122.995 55.5896 123.784 55.0078 124.366C54.426 124.947 53.6371 125.274 52.8145 125.274H55.6424C56.0497 125.274 56.4531 125.194 56.8295 125.038C57.2059 124.883 57.548 124.654 57.8361 124.366C58.1242 124.078 58.3527 123.736 58.5087 123.36C58.6646 122.984 58.7449 122.58 58.7449 122.173V107.731H55.917Z" fill="#11B854"/>
<path d="M130.987 218.854C131.695 219.113 132.412 219.374 133.162 219.427C134.943 219.554 136.69 217.614 137.209 216.113C138.199 213.238 137.115 211.172 137.496 208.219C137.877 205.266 138.772 202.549 139.992 199.819C141.36 196.745 142.852 193.74 144.272 190.682C145.633 187.807 146.831 184.858 147.86 181.849C149.294 177.549 150.247 173.087 151.294 168.69C152.376 164.15 152.82 159.482 152.612 154.82C152.519 152.762 152.196 150.492 150.615 149.165C148.597 147.466 145.344 148.194 143.446 150.022C140.752 152.626 139.876 156.719 139.227 160.257C137.791 168.083 136.023 175.843 134.393 183.631C133.527 187.769 132.769 191.93 132.065 196.099C131.706 198.218 131.319 200.583 130.52 202.552C129.086 206.086 126.947 208.818 123.585 210.689C121.782 211.688 119.376 212.326 118.038 213.968C117.853 214.194 117.78 214.538 117.947 214.776C118.039 214.889 118.154 214.98 118.285 215.043C120.161 216.115 122.214 216.842 124.347 217.19C125.349 217.352 126.448 217.272 127.398 217.55C128.614 217.9 129.801 218.424 130.987 218.854Z" fill="#E5785C"/>
<path d="M134.148 214.123C132.193 214.599 130.056 214.401 128.06 214.417C127.013 214.417 125.918 214.417 124.988 213.943C124.057 213.469 123.365 212.348 123.723 211.365C124.049 210.473 124.348 209.637 125.156 209.137C126.531 208.286 127.685 207.287 128.484 205.882C129.534 204.028 130.13 203.153 130.829 200.982C133.094 201.928 136.316 202.597 138.984 202.453C138.699 203.763 138.152 205.762 138.075 206.197C137.815 207.565 137.52 207.853 137.898 209.207C138.051 209.762 138.054 210.455 138.075 211.028C138.122 212.351 136.6 213.159 135.395 213.706C134.993 213.883 134.576 214.022 134.148 214.123Z" fill="#7F848C"/>
<path d="M125.839 209.807C125.682 209.902 125.533 210.003 125.407 210.067C124.934 210.294 124.48 210.558 124.049 210.857C122.524 211.958 120.907 213.148 119.057 213.631C117.918 213.925 116.806 214.471 115.659 214.703C114.656 214.876 113.632 214.876 112.63 214.703C112.259 214.618 111.881 214.572 111.501 214.564C111.122 214.58 110.727 214.716 110.497 215.019C110.241 215.358 110.244 215.818 110.258 216.243C110.282 216.936 110.101 217.973 110.559 218.542C110.946 219.022 111.577 219.236 112.15 219.398C114.176 219.983 116.265 220.325 118.373 220.416C120.504 220.489 122.624 220.305 124.753 220.176C128.307 219.96 131.894 220.281 135.432 219.943C135.885 219.901 136.339 219.846 136.788 219.775C138.343 219.531 139.243 218.494 139.391 216.95C139.621 214.519 139.154 212.074 138.045 209.899C137.333 210.444 136.717 211.1 135.917 211.523C135.045 211.97 134.027 212.078 133.06 212.123C131.802 212.172 130.548 212.203 129.426 211.555C128.567 211.058 127.751 210.491 126.987 209.859C126.855 209.724 126.689 209.628 126.507 209.581C126.293 209.562 126.06 209.676 125.839 209.807Z" fill="#7F848C"/>
<path d="M125.847 207.76C125.69 207.854 125.542 207.957 125.416 208.019C124.943 208.247 124.489 208.511 124.058 208.81C122.532 209.911 120.915 211.102 119.065 211.584C117.112 212.086 115.232 212.908 113.24 213.342C112.766 213.427 112.298 213.547 111.842 213.703C111.324 213.882 110.875 214.217 110.556 214.663C110.4 214.886 110.303 215.145 110.273 215.416C110.244 215.687 110.283 215.961 110.387 216.213C110.694 216.872 111.459 217.16 112.158 217.357C114.185 217.943 116.274 218.285 118.381 218.375C120.513 218.449 122.632 218.264 124.761 218.135C128.316 217.919 131.902 218.242 135.44 217.902C135.894 217.861 136.347 217.807 136.797 217.736C138.351 217.49 139.251 216.454 139.4 214.909C139.63 212.479 139.163 210.033 138.053 207.858C137.342 208.403 136.726 209.059 135.926 209.484C135.053 209.929 134.035 210.039 133.069 210.083C131.811 210.133 130.557 210.162 129.435 209.514C128.576 209.018 127.76 208.45 126.995 207.818C126.864 207.683 126.698 207.588 126.516 207.541C126.302 207.513 126.069 207.63 125.847 207.76Z" fill="#26282D"/>
<path d="M127.635 206.192C127.66 205.51 127.242 205.049 126.482 205.411C125.504 205.876 124.76 207.119 124.303 208.059C123.816 209.063 122.977 210.113 122.027 210.706C122.424 210.837 122.851 210.676 123.233 210.508C124.664 209.88 125.993 208.962 126.962 207.712C127.261 207.364 127.479 206.954 127.6 206.511C127.621 206.406 127.632 206.299 127.635 206.192Z" fill="#525862"/>
<path d="M140.106 204.46C140.698 202.703 144.294 192.836 144.752 191.58C146.105 187.861 147.289 185.154 148.295 182.138C149.729 177.838 150.237 173.092 151.287 168.694C152.369 164.155 152.813 159.487 152.605 154.825C152.512 152.767 152.188 150.497 150.607 149.17C148.589 147.471 145.337 148.199 143.438 150.027C140.745 152.631 139.869 156.724 139.219 160.262C137.784 168.088 136.016 175.848 134.386 183.636C133.923 185.846 130.421 199.308 129.318 202.058" fill="#1A1D22"/>
<path d="M201.014 131.921C193.525 132.358 186.313 135.438 179.367 138.072C171.235 141.161 162.908 143.709 154.44 145.7C149.465 146.87 142.382 148.969 142.072 155.188C141.775 161.139 148.788 163.257 153.73 163.045C162.745 162.656 171.76 162.927 180.775 162.85C187.5 162.794 194.271 162.749 200.918 161.602C206.789 160.586 211.757 158.319 214.124 152.458C216.657 146.187 214.576 137.535 209.172 133.337C207.893 132.344 206.227 131.989 204.61 131.911C203.412 131.851 202.212 131.854 201.014 131.921Z" fill="#F8A17A"/>
<path d="M172.07 208.747C171.342 205.796 169.308 204.649 168.026 201.962C166.745 199.276 166.018 196.509 165.557 193.555C165.037 190.226 164.659 186.898 164.191 183.558C163.774 180.407 163.181 177.281 162.413 174.196C161.571 170.93 160.563 167.319 158.773 164.458C156.63 161.032 154.451 157.63 152.29 154.217C151.702 153.286 151.102 152.341 150.267 151.624C147.6 149.329 144.058 150.914 142.836 153.888C141.815 156.373 142.474 158.416 143.44 160.753C146.485 168.104 149.213 175.581 152.073 183.006C153.598 186.952 155.215 190.857 156.887 194.741C157.737 196.716 158.69 198.911 159.093 200.998C159.509 203.191 159.857 205.108 158.892 207.239C158.398 208.327 157.243 209.427 156.323 210.18C155.75 210.628 155.148 211.037 154.52 211.404L150.239 214.039C149.782 214.291 149.362 214.604 148.991 214.97C148.639 215.351 148.388 215.858 148.428 216.376C148.476 217.034 148.983 217.584 149.578 217.873C150.461 218.304 151.315 218.299 152.24 218.089L168.329 214.436C169.062 214.27 169.807 214.099 170.466 213.743C172.037 212.868 172.45 210.289 172.07 208.747Z" fill="#F8A17A"/>
<path d="M165.768 211.695C163.814 212.17 161.675 211.972 159.68 211.989C158.834 211.989 156.941 212.202 156.701 211.176C156.414 209.947 157.293 208.433 157.871 207.42C158.574 206.191 159.354 204.913 159.359 203.497C159.359 201.94 158.853 200.757 158.459 199.251C161.203 198.314 163.361 197.726 166.373 196.558C167.277 198.86 168.269 201.125 169.348 203.354C169.779 204.247 169.878 205.216 170.014 206.197C170.364 208.736 169.267 210.255 167.011 211.279C166.61 211.455 166.194 211.594 165.768 211.695Z" fill="#7F848C"/>
<path d="M158.342 207.831C158.203 207.956 158.083 208.086 157.973 208.174C157.557 208.494 157.168 208.846 156.808 209.228C155.539 210.614 154.205 212.119 152.489 212.972C151.435 213.495 150.46 214.259 149.385 214.722C148.441 215.1 147.438 215.312 146.421 215.349C146.042 215.346 145.662 215.381 145.29 215.453C144.922 215.548 144.563 215.763 144.402 216.105C144.22 216.489 144.319 216.937 144.42 217.353C144.588 218.03 144.624 219.08 145.19 219.542C145.668 219.932 146.329 220.011 146.923 220.05C149.027 220.205 151.142 220.108 153.223 219.761C155.323 219.394 157.359 218.776 159.411 218.211C162.845 217.265 166.421 216.84 169.813 215.777C170.249 215.642 170.679 215.494 171.106 215.333C172.577 214.778 173.243 213.573 173.069 212.031C172.792 209.605 171.83 207.308 170.296 205.409C169.713 206.089 169.246 206.859 168.55 207.438C167.788 208.056 166.816 208.379 165.878 208.615C164.658 208.924 163.437 209.211 162.206 208.809C161.263 208.501 160.347 208.114 159.468 207.653C159.311 207.552 159.129 207.495 158.942 207.488C158.736 207.495 158.524 207.658 158.342 207.831Z" fill="#7F848C"/>
<path d="M157.909 205.825C157.771 205.95 157.65 206.08 157.54 206.167C157.125 206.487 156.735 206.84 156.375 207.221C155.106 208.608 153.774 210.113 152.057 210.966C150.254 211.862 148.578 213.055 146.72 213.89C146.274 214.072 145.842 214.286 145.427 214.532C144.958 214.814 144.587 215.234 144.366 215.736C144.166 216.242 144.194 216.855 144.522 217.289C144.957 217.869 145.77 217.995 146.491 218.042C148.595 218.197 150.71 218.1 152.79 217.754C154.89 217.386 156.926 216.769 158.979 216.203C162.413 215.257 165.988 214.833 169.38 213.769C169.816 213.635 170.247 213.487 170.673 213.325C172.145 212.77 172.81 211.565 172.637 210.023C172.36 207.597 171.397 205.301 169.863 203.402C169.281 204.081 168.813 204.851 168.117 205.431C167.356 206.048 166.383 206.371 165.446 206.607C164.225 206.916 163.005 207.205 161.773 206.801C160.83 206.493 159.914 206.107 159.036 205.646C158.879 205.544 158.698 205.487 158.511 205.481C158.303 205.489 158.098 205.651 157.909 205.825Z" fill="#26282D"/>
<path d="M159.342 203.924C159.225 203.251 158.722 202.886 158.052 203.398C157.192 204.054 156.719 205.424 156.468 206.438C156.191 207.521 155.594 208.721 154.787 209.499C155.203 209.545 155.586 209.299 155.926 209.057C157.195 208.145 158.307 206.976 158.998 205.549C159.216 205.145 159.342 204.698 159.367 204.24C159.367 204.134 159.359 204.028 159.342 203.924Z" fill="#525862"/>
<path d="M168.22 196.784C167.623 194.537 165.473 185.505 165.071 183.824C164.051 179.567 163.606 176.764 162.813 173.685C161.972 170.419 160.559 167.315 158.769 164.454C158.445 163.936 158.117 163.423 157.798 162.907C165.46 162.725 173.127 162.907 180.791 162.843C187.516 162.786 194.287 162.742 200.935 161.595C206.806 160.578 211.773 158.312 214.141 152.451C216.673 146.18 214.593 137.528 209.188 133.33C207.91 132.337 206.244 131.982 204.627 131.904C203.431 131.847 202.233 131.854 201.037 131.924C193.548 132.36 186.336 135.441 179.391 138.075C171.259 141.163 162.931 143.711 154.464 145.703C149.489 146.873 142.406 148.971 142.095 155.19C142.045 156.028 142.163 156.866 142.441 157.658C142.622 158.677 142.995 159.687 143.442 160.759C146.486 168.109 149.214 175.586 152.074 183.012C153.184 185.89 156.663 197.413 157.831 200.731" fill="#26282D"/>
<path d="M151.464 105.979C149.893 107.04 148.457 108.522 147.202 109.576C146.876 109.854 146.542 110.131 146.15 110.27C144.849 110.732 143.506 109.588 142.294 108.755C141.176 107.987 139.936 107.427 138.942 106.468C137.947 105.51 137.216 103.972 137.626 102.649C137.752 102.233 137.659 102.463 137.97 102.205C139.079 101.29 140.218 100.329 141.315 99.3188C145.445 100.535 149.299 102.757 151.464 105.979Z" fill="#E5785C"/>
<path d="M133.631 98.1349C131.273 97.8727 129.009 97.9338 127.086 98.3207C118.788 99.985 115.64 109.722 120.667 116.4C122.387 118.686 125.244 120.488 128.07 120.807C132.37 121.293 136.759 121.183 140.83 122.876C140.968 122.943 141.116 122.988 141.268 123.008C141.838 123.048 142.211 122.404 142.301 121.839C142.497 120.618 142.625 120.188 143.784 119.643C145.364 118.9 146.86 117.934 148.083 116.674C148.906 115.806 149.523 114.763 149.888 113.624C150.253 112.485 150.357 111.279 150.192 110.094C149.151 102.949 140.98 98.9573 133.631 98.1349Z" fill="#F8A17A"/>
<path d="M128.13 120.814L128.07 120.807C125.251 120.488 122.384 118.686 120.667 116.4C115.64 109.722 118.788 99.9878 127.086 98.3207C129.009 97.9338 131.278 97.8727 133.631 98.1349C135.409 98.334 137.164 98.7056 138.87 99.2444C138.062 100.024 137.054 100.566 135.958 100.81C135.018 101.02 134.053 101.096 133.092 101.035C131.42 100.957 129.615 101.42 128.864 103.155C128.432 104.151 128.652 105.43 129.479 106.132C130.138 106.687 131.101 106.867 131.937 106.76C132.327 106.71 133.93 106.38 133.382 107.315C132.757 108.379 131.622 108.979 130.861 109.925C130.099 110.871 129.517 111.821 129.335 113.07C129.101 114.675 129.227 116.317 128.977 117.925C128.832 118.923 128.547 119.895 128.13 120.814Z" fill="#E5785C"/>
<path d="M169.433 98.5303C169.413 96.1877 168.76 93.8942 167.543 91.8926C166.287 89.8771 164.457 88.2833 162.288 87.3158C161.293 86.8747 160.162 87.0176 159.087 87.2478C157.93 87.4975 156.667 88.3657 155.62 88.9024C151.256 91.1436 147.613 93.6276 143.284 95.9271C140.677 97.3101 137.875 98.2871 134.973 98.8243C136.759 100.928 136.765 103.906 138.608 105.898C139.717 107.106 141.151 107.86 142.423 108.85C143.8 109.925 145.312 111.377 146.889 110.922C147.365 110.784 147.781 110.479 148.187 110.178C150.416 108.526 152.599 106.358 155.338 105.59C157.515 104.979 160.019 105.462 161.985 106.538C163.763 107.509 165.242 107.664 166.906 106.083C167.984 105.06 168.612 103.642 168.987 102.2C169.299 101.002 169.45 99.7681 169.433 98.5303Z" fill="#F8A17A"/>
<path d="M153.514 106.25C151.572 107.397 149.769 109.054 148.199 110.215C147.793 110.516 147.377 110.821 146.901 110.959C145.324 111.415 143.812 109.963 142.434 108.888C141.162 107.896 139.734 107.143 138.618 105.935C137.503 104.727 136.75 102.852 137.329 101.308C137.51 100.829 137.383 101.089 137.77 100.805C139.146 99.7981 139.732 98.095 141.107 96.9744C145.921 98.7163 151.18 102.272 153.514 106.25Z" fill="#E5785C"/>
<path d="M203.576 138.574L204.985 138.297C207.482 137.801 214.707 137.476 213.685 133.304C210.588 120.646 207.306 107.036 197.636 97.6218C187.139 87.3961 173.294 84.3408 159.08 87.2561C155.301 88.0313 151.699 90.4182 147.617 93.2447C148.637 95.3722 148.793 96.1323 149.888 98.2126L155.312 108.524C156.926 111.594 158.779 114.678 161.508 116.9C162.872 118.009 164.435 118.841 165.988 119.674C169.559 121.576 173.224 122.945 174.959 126.877C176.795 131.038 176.516 135.627 174.82 139.738C176.246 140.49 181.716 141.155 182.448 141.153C185.09 141.158 187.73 141.006 190.353 140.698C194.785 140.15 199.192 139.42 203.576 138.574Z" fill="#7F848C"/>
<path d="M160.197 136.945C160.271 142.754 160.601 148.546 161.51 154.319C161.949 157.105 162.718 159.84 163.268 162.607C163.628 164.407 163.971 166.21 164.295 168.016C164.434 168.814 164.582 169.623 164.921 170.361C165.359 171.315 166.125 172.09 167.218 172.124C168.224 172.154 169.862 171.341 169.973 170.2C170.027 169.645 169.885 169.021 169.908 168.45C170.273 159.712 170.55 150.966 170.855 142.223C170.855 139.161 171.111 136.099 171.228 133.039C171.346 129.98 171.292 126.906 171.299 123.841C171.307 121.285 171.307 118.728 171.299 116.17C171.285 110.9 171.653 105.418 171.181 100.082C170.765 95.4581 169.159 90.1491 163.553 89.9854C159.96 89.88 157.713 93.1448 156.989 96.3194C155.491 102.885 158.573 109.527 159.624 115.922C160.318 120.158 160.297 124.458 160.225 128.737C160.182 131.479 160.162 134.212 160.197 136.945Z" fill="#F8A17A"/>
<path d="M160.093 136.945C160.065 139.455 160.067 141.967 160.133 144.477C160.265 149.41 161.068 154.047 161.709 158.901C161.792 159.537 161.892 160.21 162.301 160.704C162.951 161.489 164.115 161.536 165.134 161.523L169.604 161.461C169.998 161.461 170.437 161.428 170.7 161.13C170.897 160.899 170.925 160.575 170.943 160.272C171.477 151.191 170.875 142.104 171.228 133.042C171.346 129.982 171.292 126.909 171.299 123.844C171.307 121.287 171.307 118.73 171.299 116.173C171.285 110.903 171.653 105.42 171.181 100.085C170.765 95.4608 169.159 90.1517 163.553 89.9881C159.96 89.8827 157.713 93.1475 156.989 96.3221C155.491 102.888 158.573 109.53 159.624 115.925C160.318 120.16 160.297 124.461 160.225 128.74C160.182 131.48 160.122 134.208 160.093 136.945Z" fill="#49505B"/>
<path d="M171.263 175.62C171.288 175.517 171.308 175.421 171.324 175.334C171.582 173.836 171.253 172.308 170.927 170.822L169.874 166.029C169.809 165.728 166.747 166.131 166.511 166.176C165.801 166.296 165.139 166.613 164.603 167.093C164.481 167.2 164.386 167.335 164.325 167.486C164.285 167.629 164.271 167.778 164.285 167.927C164.338 169.635 163.958 171.125 163.696 172.79C163.418 174.582 163.393 176.396 163.25 178.206C163.171 179.177 163.112 180.226 163.601 181.07C164.164 182.041 165.296 182.482 166.345 182.864C167.848 183.41 169.408 183.965 171.003 183.844C171.86 183.773 172.69 183.51 173.432 183.076C174.174 182.642 174.809 182.046 175.29 181.334C175.762 180.625 175.984 179.51 175.276 179.043C174.305 178.412 173.14 179.803 171.998 179.649C170.03 179.384 170.952 176.936 171.263 175.62Z" fill="#F8A17A"/>
<path d="M141.872 94.7602C141.604 96.9792 140.331 99.4313 138.721 100.863C137.334 102.084 135.613 102.908 134.083 103.932C130.338 106.441 127.695 110.382 126.215 114.64C124.925 118.349 124.273 121.419 119.809 122.067C117.017 122.472 114.122 121.731 111.773 120.195C110.538 119.393 109.465 118.366 108.609 117.168C107.629 115.782 107.408 114.696 107.069 113.049C106.121 108.46 104.006 104.191 102.84 99.6532C102.392 97.9085 102.091 96.032 102.683 94.3316C103.35 92.4121 105.031 91.046 106.705 89.8935C110.067 87.5728 113.7 85.6725 117.523 84.2349C119.369 83.5415 121.348 82.9493 123.293 83.2863C126.603 83.8619 128.856 86.6745 131.586 88.3263C133.222 89.3166 135.015 90.0045 136.672 90.9309C137.416 91.3359 138.24 91.5709 139.086 91.6188C139.932 91.6668 140.777 91.5266 141.562 91.2083C141.646 91.1736 141.935 93.7464 141.934 93.9821C141.927 94.2424 141.907 94.5021 141.872 94.7602Z" fill="#26282D"/>
<path d="M133.084 97.117C130.599 96.8937 128.211 97.0102 126.193 97.4624C117.49 99.404 114.396 109.738 119.846 116.659C121.712 119.027 124.771 120.86 127.752 121.13C132.294 121.546 136.915 121.327 141.235 123.018C141.382 123.084 141.539 123.127 141.7 123.145C142.302 123.174 142.679 122.488 142.762 121.897C142.94 120.607 143.065 120.151 144.274 119.549C145.92 118.729 147.475 117.678 148.73 116.322C149.579 115.389 150.206 114.277 150.567 113.069C150.927 111.86 151.01 110.586 150.811 109.341C149.548 101.83 140.846 97.8133 133.084 97.117Z" fill="#F8A17A"/>
<path d="M127.816 121.135H127.752C124.776 120.857 121.716 119.032 119.847 116.663C114.396 109.743 117.489 99.4145 126.193 97.4673C128.211 97.0151 130.599 96.8986 133.085 97.1219C134.964 97.291 136.822 97.644 138.632 98.176C137.801 99.0152 136.754 99.6089 135.608 99.8916C134.622 100.131 133.608 100.232 132.595 100.19C130.832 100.145 128.941 100.675 128.189 102.52C127.758 103.579 128.018 104.921 128.907 105.642C129.613 106.213 130.631 106.378 131.511 106.246C131.927 106.185 133.602 105.801 133.046 106.801C132.411 107.937 131.229 108.596 130.45 109.611C129.67 110.626 129.078 111.639 128.913 112.959C128.704 114.657 128.873 116.383 128.648 118.078C128.515 119.131 128.235 120.16 127.816 121.135Z" fill="#E5785C"/>
<path d="M136.67 100.436C137.557 100.354 138.473 100.158 139.27 99.7561C140.111 99.3303 140.584 98.6466 140.951 97.8061C141.066 97.5412 141.18 97.2514 141.108 96.974C141.018 96.6328 140.751 96.3499 140.536 96.0822C139.776 95.1363 138.76 94.4803 137.645 94.0282C136.563 93.5899 135.426 93.2737 134.258 93.246C133.973 93.2395 133.689 93.2483 133.405 93.2723C131.111 93.4734 128.913 94.2806 126.823 95.214C124.107 96.4248 121.26 98.0086 119.111 100.103C115.748 102.934 114.92 107.635 115.089 111.753C115.149 113.205 115.209 114.665 115.055 116.108C114.963 116.973 114.526 118.294 114.98 119.094C115.165 119.384 115.424 119.621 115.73 119.78C116.949 120.49 118.493 121.002 119.901 121.058C120.966 121.099 122.086 121.058 123.004 120.517C125.099 119.282 126.056 116.704 126.831 114.567C127.537 112.614 128.447 110.62 129.989 109.18C130.925 108.308 132.198 107.85 133.01 106.833C133.723 105.943 132 106.047 131.587 106.04C130.696 106.028 129.72 105.698 129.117 105.018C128.358 104.162 128.321 102.799 128.92 101.821C129.963 100.124 131.915 99.9101 133.648 100.243C134.641 100.449 135.658 100.513 136.67 100.436Z" fill="#26282D"/>
<path d="M119.284 120.505C117.203 121.934 114.367 121.452 111.998 120.57C110.862 120.154 109.744 119.641 108.79 118.894C107.021 117.507 105.944 115.427 105.247 113.288C104.549 111.15 104.173 108.929 103.499 106.789C102.764 104.434 101.655 102.197 101.06 99.8022C100.458 97.3834 100.483 94.6706 101.692 92.4377C102.784 90.4184 105.481 90.1216 107.444 89.4642C110.719 88.3671 113.399 86.0219 116.368 84.2563C119.338 82.4908 123.067 81.2995 126.206 82.7405C129.824 84.4047 131.29 88.8775 134.592 91.1007" fill="#26282D"/>
<path d="M119.284 120.505C117.203 121.934 114.367 121.452 111.998 120.57C110.862 120.154 109.744 119.641 108.79 118.894C107.021 117.507 105.944 115.427 105.247 113.288C104.549 111.15 104.173 108.929 103.499 106.789C102.764 104.434 101.655 102.197 101.06 99.8022C100.458 97.3834 100.483 94.6706 101.692 92.4377C102.784 90.4184 105.481 90.1216 107.444 89.4642C110.719 88.3671 113.399 86.0219 116.368 84.2563C119.338 82.4908 123.067 81.2995 126.206 82.7405C129.824 84.4047 131.29 88.8775 134.592 91.1007" stroke="#26282D" stroke-width="5" stroke-miterlimit="10"/>
<path d="M110.449 111.95C108.862 109.571 107.79 106.887 107.302 104.069C107.054 102.653 106.951 101.215 106.997 99.7784C107.009 99.3913 107.078 99.0082 107.202 98.6411C107.272 98.4441 107.368 98.2575 107.488 98.0864C107.613 97.9131 107.764 97.7601 107.936 97.6329C108.243 97.4278 108.563 97.2425 108.894 97.0781C109.034 97.001 109.168 96.9138 109.295 96.8174C109.423 96.719 109.545 96.613 109.66 96.4998C110.132 96.0271 110.519 95.4768 110.805 94.8729C111.11 94.2641 111.352 93.6081 111.619 92.9493C112.148 91.6206 112.843 90.3141 113.805 89.2227C114.282 88.6708 114.824 88.179 115.42 87.7581C116.016 87.3415 116.67 87.0144 117.361 86.7872C117.532 86.7276 117.709 86.6874 117.884 86.6388C118.059 86.5903 118.236 86.5598 118.415 86.5362C118.771 86.4779 119.132 86.4519 119.493 86.4585C120.208 86.4629 120.915 86.6091 121.573 86.8885C120.221 86.5045 118.779 86.5896 117.482 87.1298C116.193 87.6305 115.102 88.5264 114.243 89.593C114.029 89.86 113.828 90.1378 113.642 90.4251C113.452 90.7108 113.274 91.0062 113.112 91.3099C112.786 91.9195 112.504 92.5512 112.267 93.2003C112.017 93.8563 111.771 94.529 111.45 95.1877C111.134 95.8679 110.703 96.4885 110.177 97.0226C110.039 97.1562 109.893 97.2813 109.74 97.3971C109.585 97.5128 109.422 97.6175 109.252 97.7105C108.948 97.8572 108.653 98.0221 108.369 98.2043C108.137 98.3707 107.965 98.6062 107.876 98.8769C107.775 99.181 107.714 99.4972 107.696 99.8172C107.658 100.51 107.655 101.204 107.686 101.898C107.706 102.244 107.725 102.591 107.76 102.939C107.794 103.287 107.832 103.633 107.872 103.978C108.261 106.765 109.133 109.463 110.449 111.95Z" fill="#B7C4CD"/>
<path d="M159.482 0.97876H120.185C118.423 0.97876 116.994 2.40754 116.994 4.17003V18.1584C116.994 19.9209 118.423 21.3497 120.185 21.3497H159.482C161.245 21.3497 162.673 19.9209 162.673 18.1584V4.17003C162.673 2.40754 161.245 0.97876 159.482 0.97876Z" fill="#26282D"/>
<path fill-rule="evenodd" clip-rule="evenodd" d="M120.18 1.67402C118.8 1.67402 117.682 2.79233 117.682 4.17184V18.1602C117.682 19.5397 118.8 20.658 120.18 20.658H159.476C160.856 20.658 161.974 19.5397 161.974 18.1602V4.17184C161.974 2.79233 160.856 1.67402 159.476 1.67402H120.18ZM116.295 4.17184C116.295 2.02636 118.034 0.287109 120.18 0.287109H159.476C161.622 0.287109 163.361 2.02636 163.361 4.17184V18.1602C163.361 20.3057 161.622 22.0449 159.476 22.0449H120.18C118.034 22.0449 116.295 20.3057 116.295 18.1602V4.17184Z" fill="#525862"/>
<path d="M121.967 3.29346H125.85V19.0362H121.967C121.305 19.0362 120.67 18.7732 120.202 18.3051C119.734 17.8369 119.471 17.2019 119.471 16.5398V5.78989C119.471 5.1278 119.734 4.49282 120.202 4.02465C120.67 3.55647 121.305 3.29346 121.967 3.29346Z" fill="url(#paint0_linear)"/>
<path d="M134.446 3.29346H128.061V19.0362H134.446V3.29346Z" fill="#49505B"/>
<path d="M143.016 3.29346H136.631V19.0362H143.016V3.29346Z" fill="#49505B"/>
<path d="M151.604 3.29346H145.219V19.0362H151.604V3.29346Z" fill="#49505B"/>
<path d="M153.809 3.29346H157.692C158.354 3.29346 158.989 3.55647 159.457 4.02465C159.925 4.49282 160.188 5.1278 160.188 5.78989V16.5398C160.188 17.2019 159.925 17.8369 159.457 18.3051C158.989 18.7732 158.354 19.0362 157.692 19.0362H153.809V3.29346Z" fill="#49505B"/>
<path d="M162.678 4.2373H164.065C164.469 4.2373 164.857 4.39804 165.143 4.68414C165.429 4.97025 165.59 5.35829 165.59 5.7629V16.5669C165.59 16.9715 165.429 17.3596 165.143 17.6457C164.857 17.9318 164.469 18.0925 164.065 18.0925H162.678V4.2373Z" fill="#49505B"/>
<path fill-rule="evenodd" clip-rule="evenodd" d="M161.979 3.54297H164.059C164.647 3.54297 165.212 3.77677 165.628 4.19291C166.044 4.60906 166.278 5.17348 166.278 5.76202V16.566C166.278 17.1546 166.044 17.719 165.628 18.1351C165.212 18.5513 164.647 18.7851 164.059 18.7851H161.979V3.54297ZM163.365 4.92988V17.3982H164.059C164.28 17.3982 164.491 17.3105 164.647 17.1544C164.803 16.9984 164.891 16.7867 164.891 16.566V5.76202C164.891 5.54134 164.803 5.32967 164.647 5.17361C164.491 5.01754 164.28 4.92988 164.059 4.92988H163.365Z" fill="#525862"/>
<defs>
<linearGradient id="paint0_linear" x1="119.471" y1="3.29346" x2="126.51" y2="3.59418" gradientUnits="userSpaceOnUse">
<stop stop-color="#00B047"/>
<stop offset="1" stop-color="#4CD784"/>
</linearGradient>
</defs>
</svg>
