<svg width="190" height="190" viewBox="0 0 190 190" fill="none" xmlns="http://www.w3.org/2000/svg">
<g clip-path="url(#clip0)">
<path d="M185.693 75.43L178.093 96.235L162.925 137.908C162.54 138.972 162.064 140 161.5 140.98V96.5833C161.5 86.0899 152.993 77.5833 142.5 77.5833H22.1668C20.0769 77.5772 18.0006 77.9197 16.0234 78.5967L29.3234 42.085L36.8918 21.28C38.6128 16.5427 42.1455 12.6833 46.7126 10.5512C51.2796 8.41916 56.5067 8.18909 61.2434 9.91168L174.325 51.0783C179.062 52.7993 182.922 56.3321 185.054 60.8992C187.186 65.4662 187.416 70.6933 185.693 75.43Z" fill="#525862"/>
<path d="M174.325 51.0785L61.2431 9.91182C57.6392 8.59723 53.7204 8.41057 50.0078 9.37665C50.5873 9.52865 51.1668 9.69332 51.7431 9.91182L164.825 51.0785C169.562 52.7995 173.421 56.3322 175.554 60.8993C177.686 65.4664 177.916 70.6934 176.193 75.4302L168.593 96.2352L161.5 115.723V140.98C162.063 140 162.54 138.972 162.925 137.909L178.093 96.2352L185.693 75.4302C187.416 70.6934 187.186 65.4664 185.054 60.8993C182.921 56.3322 179.062 52.7995 174.325 51.0785Z" fill="#49505B"/>
<path d="M160.201 89.7117L178.092 96.235L185.692 75.43L36.8906 21.28L29.3223 42.085L126.856 77.5834L160.201 89.7117Z" fill="#7F848C"/>
<path d="M36.8927 21.28L35.7812 24.3327L176.194 75.43L169.712 93.1792L178.094 96.235L185.694 75.43L36.8927 21.28Z" fill="#525862"/>
<path d="M161.501 96.5836V163.084C161.501 173.577 152.995 182.084 142.501 182.084H22.168C11.6746 182.084 3.16797 173.577 3.16797 163.084V96.5836C3.17839 88.4595 8.34131 81.2365 16.0246 78.5969C18.0018 77.9199 20.0781 77.5774 22.168 77.5836H142.501C147.54 77.5836 152.373 79.5854 155.936 83.1485C159.5 86.7117 161.501 91.5445 161.501 96.5836Z" fill="#525862"/>
<path d="M142.5 77.5835H133C143.493 77.5835 152 86.0901 152 96.5835V163.084C152 173.577 143.493 182.084 133 182.084H142.5C152.993 182.084 161.5 173.577 161.5 163.084V96.5835C161.5 86.0901 152.993 77.5835 142.5 77.5835Z" fill="#49505B"/>
<path d="M44.3333 93.4167H25.3333C21.8355 93.4167 19 96.2523 19 99.7501V112.417C19 115.915 21.8355 118.75 25.3333 118.75H44.3333C47.8311 118.75 50.6667 115.915 50.6667 112.417V99.7501C50.6667 96.2523 47.8311 93.4167 44.3333 93.4167Z" fill="#7F848C"/>
<path d="M136.166 115.583C141.413 115.583 145.666 111.33 145.666 106.083C145.666 100.837 141.413 96.5835 136.166 96.5835C130.919 96.5835 126.666 100.837 126.666 106.083C126.666 111.33 130.919 115.583 136.166 115.583Z" fill="#7F848C"/>
<path d="M117.168 115.583C122.415 115.583 126.668 111.33 126.668 106.083C126.668 100.837 122.415 96.5835 117.168 96.5835C111.921 96.5835 107.668 100.837 107.668 106.083C107.668 111.33 111.921 115.583 117.168 115.583Z" fill="#7F848C"/>
<path d="M12.668 163.083V96.5833C12.6784 88.4592 17.8413 81.2362 25.5246 78.5967C41.738 34.086 36.9056 47.3607 46.393 21.28C48.5296 15.4386 53.3876 11.0111 59.4016 9.42398C58.1753 8.97926 56.8774 8.76456 55.5731 8.79064C47.2907 8.44995 39.7378 13.5015 36.8898 21.2863C27.3898 47.367 32.2348 34.0923 16.0215 78.603C8.34159 81.2429 3.18062 88.4624 3.16797 96.5833V163.083C3.16797 173.577 11.6746 182.083 22.168 182.083H31.668C21.1746 182.083 12.668 173.577 12.668 163.083Z" fill="#49505B"/>
<path d="M0 137.75H6.33333V163.083H0V137.75Z" fill="#7F848C"/>
<path d="M3.16667 153.584C4.91557 153.584 6.33333 152.166 6.33333 150.417C6.33333 148.668 4.91557 147.25 3.16667 147.25C1.41776 147.25 0 148.668 0 150.417C0 152.166 1.41776 153.584 3.16667 153.584Z" fill="#1A1D22"/>
<path d="M175.408 48.1018L62.3232 6.93511C50.8176 2.78152 38.1188 8.70976 33.915 20.1971L13.5407 76.1648C5.33967 79.6384 0.00872996 87.6772 0 96.5835V137.75C0 139.499 1.41776 140.917 3.16667 140.917C4.91557 140.917 6.33333 139.499 6.33333 137.75V96.5835C6.3438 87.8433 13.4265 80.7606 22.1667 80.7501H142.5C151.24 80.7606 158.323 87.8433 158.333 96.5835V163.083C158.323 171.824 151.24 178.906 142.5 178.917H22.1667C13.4265 178.906 6.3438 171.824 6.33333 163.083C6.33333 161.335 4.91557 159.917 3.16667 159.917C1.41776 159.917 0 161.335 0 163.083C0.0139607 175.32 9.93014 185.236 22.1667 185.25H142.5C154.737 185.236 164.653 175.32 164.667 163.083V141.743C165.141 140.855 165.553 139.936 165.902 138.991L188.54 76.8678L188.67 76.5163C192.831 65.0086 186.901 52.3028 175.408 48.1018ZM20.9 74.4801L31.2202 46.1416L108.899 74.4168H22.1667C21.736 74.4168 21.3148 74.458 20.9 74.4801ZM142.5 74.4168H127.411L33.383 40.1914L38.5067 26.1029L38.7853 25.3398L181.63 77.3206L176.206 92.1755L162.555 87.1974C158.914 79.4085 151.098 74.4272 142.5 74.4168ZM164.667 123.883V96.5835C164.667 95.9501 164.626 95.3168 164.569 94.6835L174.05 98.1415L164.667 123.883ZM183.496 71.2501L41.2553 19.4973C45.2017 13.0976 53.0925 10.3387 60.1667 12.8853L173.248 54.0519C180.305 56.6358 184.582 63.8144 183.496 71.2501Z" fill="#1A1D22"/>
<path d="M44.334 90.25H25.334C20.0873 90.25 15.834 94.5033 15.834 99.75V112.417C15.834 117.663 20.0873 121.917 25.334 121.917H44.334C49.5807 121.917 53.834 117.663 53.834 112.417V99.75C53.834 94.5033 49.5807 90.25 44.334 90.25ZM47.5007 99.75V102.917H34.834V96.5833H44.334C46.0829 96.5833 47.5007 98.0011 47.5007 99.75ZM25.334 96.5833H28.5007V102.917H22.1673V99.75C22.1673 98.0011 23.5851 96.5833 25.334 96.5833ZM22.1673 112.417V109.25H28.5007V115.583H25.334C23.5851 115.583 22.1673 114.166 22.1673 112.417ZM44.334 115.583H34.834V109.25H47.5007V112.417C47.5007 114.166 46.0829 115.583 44.334 115.583Z" fill="#1A1D22"/>
<path d="M47.5013 144.084C47.5013 142.335 46.0835 140.917 44.3346 140.917H25.3346C23.5857 140.917 22.168 142.335 22.168 144.084C22.168 145.833 23.5857 147.25 25.3346 147.25H44.3346C46.0835 147.25 47.5013 145.833 47.5013 144.084Z" fill="url(#paint0_linear)"/>
<path d="M76.0007 147.25C77.7496 147.25 79.1673 145.833 79.1673 144.084C79.1673 142.335 77.7496 140.917 76.0007 140.917H57.0007C55.2517 140.917 53.834 142.335 53.834 144.084C53.834 145.833 55.2517 147.25 57.0007 147.25H76.0007Z" fill="url(#paint1_linear)"/>
<path d="M85.5 144.084C85.5 145.833 86.9178 147.25 88.6667 147.25H107.667C109.416 147.25 110.833 145.833 110.833 144.084C110.833 142.335 109.416 140.917 107.667 140.917H88.6667C86.9178 140.917 85.5 142.335 85.5 144.084Z" fill="url(#paint2_linear)"/>
<path d="M120.335 140.917C118.586 140.917 117.168 142.335 117.168 144.084C117.168 145.833 118.586 147.25 120.335 147.25H139.335C141.084 147.25 142.501 145.833 142.501 144.084C142.501 142.335 141.084 140.917 139.335 140.917H120.335Z" fill="url(#paint3_linear)"/>
<path d="M25.3346 159.917C23.5857 159.917 22.168 161.335 22.168 163.083C22.168 164.832 23.5857 166.25 25.3346 166.25H31.668C33.4169 166.25 34.8346 164.832 34.8346 163.083C34.8346 161.335 33.4169 159.917 31.668 159.917H25.3346Z" fill="url(#paint4_linear)"/>
<path d="M47.4987 166.25H53.832C55.5809 166.25 56.9987 164.832 56.9987 163.083C56.9987 161.335 55.5809 159.917 53.832 159.917H47.4987C45.7498 159.917 44.332 161.335 44.332 163.083C44.332 164.832 45.7498 166.25 47.4987 166.25Z" fill="url(#paint5_linear)"/>
<path d="M148.834 106.083C148.857 100.801 145.587 96.0642 140.64 94.2138C135.692 92.3635 130.116 93.792 126.667 97.7931C123.205 93.794 117.623 92.3671 112.667 94.2143C107.71 96.0616 104.424 100.794 104.424 106.083C104.424 111.373 107.71 116.105 112.667 117.952C117.623 119.8 123.205 118.373 126.667 114.374C130.116 118.375 135.692 119.803 140.64 117.953C145.587 116.103 148.857 111.365 148.834 106.083ZM117.167 112.417C113.669 112.417 110.834 109.581 110.834 106.083C110.834 102.586 113.669 99.7501 117.167 99.7501C120.665 99.7501 123.501 102.586 123.501 106.083C123.501 109.581 120.665 112.417 117.167 112.417ZM136.167 112.417C132.669 112.417 129.834 109.581 129.834 106.083C129.834 102.586 132.669 99.7501 136.167 99.7501C139.665 99.7501 142.501 102.586 142.501 106.083C142.501 109.581 139.665 112.417 136.167 112.417Z" fill="#1A1D22"/>
</g>
<defs>
<linearGradient id="paint0_linear" x1="22.168" y1="140.917" x2="45.9444" y2="150.943" gradientUnits="userSpaceOnUse">
<stop stop-color="#00B047"/>
<stop offset="1" stop-color="#4CD784"/>
</linearGradient>
<linearGradient id="paint1_linear" x1="53.834" y1="140.917" x2="77.6105" y2="150.943" gradientUnits="userSpaceOnUse">
<stop stop-color="#00B047"/>
<stop offset="1" stop-color="#4CD784"/>
</linearGradient>
<linearGradient id="paint2_linear" x1="85.5" y1="140.917" x2="109.276" y2="150.943" gradientUnits="userSpaceOnUse">
<stop stop-color="#00B047"/>
<stop offset="1" stop-color="#4CD784"/>
</linearGradient>
<linearGradient id="paint3_linear" x1="117.168" y1="140.917" x2="140.944" y2="150.943" gradientUnits="userSpaceOnUse">
<stop stop-color="#00B047"/>
<stop offset="1" stop-color="#4CD784"/>
</linearGradient>
<linearGradient id="paint4_linear" x1="22.168" y1="159.917" x2="35.574" y2="162.743" gradientUnits="userSpaceOnUse">
<stop stop-color="#00B047"/>
<stop offset="1" stop-color="#4CD784"/>
</linearGradient>
<linearGradient id="paint5_linear" x1="44.332" y1="159.917" x2="57.7381" y2="162.743" gradientUnits="userSpaceOnUse">
<stop stop-color="#00B047"/>
<stop offset="1" stop-color="#4CD784"/>
</linearGradient>
<clipPath id="clip0">
<rect width="190" height="190" fill="white"/>
</clipPath>
</defs>
</svg>
