<svg id="Слой_1" data-name="Слой 1" xmlns="http://www.w3.org/2000/svg" viewBox="0 0 20 20"><defs><style>.cls-1{fill:#092972;}.cls-2{fill:#fff;}</style></defs><title>vtb</title><circle class="cls-1" cx="10" cy="10" r="10"/><path class="cls-2" d="M3.118,6.976c.917.033,1.82.016,2.711.111a1.42,1.42,0,0,1,1.21,1.9,1.534,1.534,0,0,1-.792.845c.131.068.234.115.329.174a1.532,1.532,0,0,1,.718,1.649A1.46,1.46,0,0,1,6.1,12.932a3.642,3.642,0,0,1-.721.086c-.721.011-1.442,0-2.163,0-.027,0-.054-.007-.1-.013ZM4.323,12a8.669,8.669,0,0,0,1.143-.011.669.669,0,0,0,.568-.739.671.671,0,0,0-.522-.749c-.385-.054-.779-.046-1.189-.066ZM4.328,8V9.4c.29,0,.558.006.826,0a.641.641,0,0,0,.7-.651A.632.632,0,0,0,5.211,8C4.926,7.978,4.639,8,4.328,8Z"/><path class="cls-2" d="M12.63,13.024V7h3.913L16.2,8H13.852V9.318c.3,0,.592-.01.886,0a2.425,2.425,0,0,1,1.486.394,1.961,1.961,0,0,1,.586,2.013,1.6,1.6,0,0,1-1.465,1.208C14.449,12.992,13.55,13,12.63,13.024Zm1.217-2.667V11.97c.39,0,.759.018,1.125-.005a.757.757,0,0,0,.649-.778.747.747,0,0,0-.557-.819A10.7,10.7,0,0,0,13.847,10.357Z"/><path class="cls-2" d="M9.154,8H7.421V7h4.807c-.1.3-.179.6-.292.879-.023.061-.152.11-.234.112-.431.01-.862,0-1.329,0v5.029H9.154Z"/></svg>