<svg width="90" height="90" viewBox="0 0 90 90" fill="none" xmlns="http://www.w3.org/2000/svg">
<circle cx="45" cy="45" r="45" fill="#E8EDF1"/>
<circle cx="45" cy="45" r="24" fill="url(#paint0_linear)"/>
<path d="M41.3388 55.5954C41.0811 55.8551 40.7294 56 40.3642 56C39.9989 56 39.6473 55.8551 39.3895 55.5954L31.6058 47.7975C30.7981 46.9884 30.7981 45.6764 31.6058 44.8688L32.5805 43.8922C33.3885 43.0831 34.6968 43.0831 35.5046 43.8922L40.3642 48.7601L53.4954 35.6068C54.3034 34.7977 55.613 34.7977 56.4195 35.6068L57.3942 36.5834C58.2019 37.3925 58.2019 38.7043 57.3942 39.5121L41.3388 55.5954Z" fill="#E8EDF1"/>
<path d="M69.7488 20.2512C63.1381 13.6407 54.3488 10 45 10C35.6512 10 26.8619 13.6407 20.2512 20.2512C13.6407 26.8619 10 35.6512 10 45C10 54.3488 13.6407 63.1381 20.2512 69.7488C26.8619 76.3593 35.6512 80 45 80C54.3488 80 63.1381 76.3593 69.7488 69.7488C76.3593 63.1381 80 54.3488 80 45C80 35.6512 76.3593 26.8619 69.7488 20.2512ZM45 72.6172C29.7719 72.6172 17.3828 60.2281 17.3828 45C17.3828 29.7719 29.7719 17.3828 45 17.3828C60.2281 17.3828 72.6172 29.7719 72.6172 45C72.6172 60.2281 60.2281 72.6172 45 72.6172Z" fill="url(#paint1_linear)"/>
<defs>
<linearGradient id="paint0_linear" x1="21" y1="21" x2="73.4767" y2="26.5318" gradientUnits="userSpaceOnUse">
<stop stop-color="#00B047"/>
<stop offset="1" stop-color="#4CD784"/>
</linearGradient>
<linearGradient id="paint1_linear" x1="10" y1="10" x2="86.5286" y2="18.0672" gradientUnits="userSpaceOnUse">
<stop stop-color="#00B047"/>
<stop offset="1" stop-color="#4CD784"/>
</linearGradient>
</defs>
</svg>
