<svg width="90" height="90" viewBox="0 0 90 90" fill="none" xmlns="http://www.w3.org/2000/svg">
<circle cx="45" cy="45" r="45" fill="#E8EDF1"/>
<path d="M49.1468 46.0383L41.3711 46.04V55.8035H49.1467C51.8384 55.8035 54.0285 53.6131 54.0285 50.921C54.0287 49.6242 53.5188 48.4001 52.593 47.4742C51.6671 46.5482 50.4431 46.0382 49.1468 46.0383Z" fill="#2D9CDB"/>
<path d="M51.9232 38.0674C51.9233 37.0398 51.5189 36.0697 50.7846 35.3354C50.0503 34.6011 49.0801 34.1966 48.0528 34.1968H41.3711V41.9367H48.1158C50.2208 41.9027 51.9232 40.1807 51.9232 38.0674Z" fill="#2D9CDB"/>
<path d="M45 21.4844C32.0335 21.4844 21.4844 32.0335 21.4844 45C21.4844 57.9665 32.0335 68.5156 45 68.5156C57.9665 68.5156 68.5156 57.9665 68.5156 45C68.5156 32.0335 57.9665 21.4844 45 21.4844ZM49.147 59.9049H47.0508V63.8672H42.9492V59.9049H33.9204V55.8034H37.2698V34.1966H33.9204V30.0951H42.9492V26.1328H47.0508V30.0951H48.0529C50.1758 30.0949 52.1761 30.9259 53.6852 32.435C55.1942 33.9441 56.0251 35.9444 56.025 38.0674C56.025 40.101 55.2586 41.9581 54.0009 43.368C54.533 43.7125 55.0341 44.1142 55.4934 44.5738C57.1941 46.2746 58.1305 48.5287 58.1302 50.921C58.1303 55.8747 54.1004 59.9049 49.147 59.9049Z" fill="#2D9CDB"/>
<path d="M69.7488 20.2512C63.1381 13.6407 54.3488 10 45 10C35.6512 10 26.8619 13.6407 20.2512 20.2512C13.6407 26.8619 10 35.6512 10 45C10 54.3488 13.6407 63.1381 20.2512 69.7488C26.8619 76.3593 35.6512 80 45 80C54.3488 80 63.1381 76.3593 69.7488 69.7488C76.3593 63.1381 80 54.3488 80 45C80 35.6512 76.3593 26.8619 69.7488 20.2512ZM45 72.6172C29.7719 72.6172 17.3828 60.2281 17.3828 45C17.3828 29.7719 29.7719 17.3828 45 17.3828C60.2281 17.3828 72.6172 29.7719 72.6172 45C72.6172 60.2281 60.2281 72.6172 45 72.6172Z" fill="#2D9CDB"/>
</svg>
