<?xml version="1.0" encoding="UTF-8"?>
<!DOCTYPE svg PUBLIC "-//W3C//DTD SVG 1.1//EN" "http://www.w3.org/Graphics/SVG/1.1/DTD/svg11.dtd">
<svg xmlns="http://www.w3.org/2000/svg" version="1.1" width="1738px" height="1740px" style="shape-rendering:geometricPrecision; text-rendering:geometricPrecision; image-rendering:optimizeQuality; fill-rule:evenodd; clip-rule:evenodd" xmlns:xlink="http://www.w3.org/1999/xlink">
<g><path style="opacity:1" fill="#26a07a" d="M 1278.5,107.5 C 1278.82,109.048 1279.82,109.715 1281.5,109.5C 1290.63,114.234 1299.63,119.234 1308.5,124.5C 1308.82,126.048 1309.82,126.715 1311.5,126.5C 1312.17,126.833 1312.83,127.167 1313.5,127.5C 1313.82,129.048 1314.82,129.715 1316.5,129.5C 1319,130.58 1321.33,131.914 1323.5,133.5C 1323.82,135.048 1324.82,135.715 1326.5,135.5C 1329.17,137.167 1331.83,138.833 1334.5,140.5C 1334.82,142.048 1335.82,142.715 1337.5,142.5C 1396.03,179.825 1449.36,223.825 1497.5,274.5C 1497.43,276.027 1498.09,277.027 1499.5,277.5C 1503.5,280.833 1507.17,284.5 1510.5,288.5C 1510.43,290.027 1511.09,291.027 1512.5,291.5C 1514.5,292.833 1516.17,294.5 1517.5,296.5C 1517.74,298.404 1518.74,299.738 1520.5,300.5C 1522.5,301.833 1524.17,303.5 1525.5,305.5C 1525.43,307.027 1526.09,308.027 1527.5,308.5C 1530.86,310.895 1533.53,313.895 1535.5,317.5C 1535.74,319.404 1536.74,320.738 1538.5,321.5C 1539.5,321.833 1540.17,322.5 1540.5,323.5C 1540.43,325.027 1541.09,326.027 1542.5,326.5C 1543.5,326.833 1544.17,327.5 1544.5,328.5C 1544.43,330.027 1545.09,331.027 1546.5,331.5C 1547.5,331.833 1548.17,332.5 1548.5,333.5C 1548.43,335.027 1549.09,336.027 1550.5,336.5C 1551.5,336.833 1552.17,337.5 1552.5,338.5C 1552.43,340.027 1553.09,341.027 1554.5,341.5C 1557.52,344.52 1560.18,347.854 1562.5,351.5C 1562.43,353.027 1563.09,354.027 1564.5,354.5C 1571.23,362.295 1577.23,370.629 1582.5,379.5C 1582.43,381.027 1583.09,382.027 1584.5,382.5C 1584.43,384.027 1585.09,385.027 1586.5,385.5C 1589.66,389.148 1592.33,393.148 1594.5,397.5C 1594.43,399.027 1595.09,400.027 1596.5,400.5C 1596.43,402.027 1597.09,403.027 1598.5,403.5C 1598.43,405.027 1599.09,406.027 1600.5,406.5C 1600.43,408.027 1601.09,409.027 1602.5,409.5C 1603.34,409.842 1603.67,410.508 1603.5,411.5C 1603.43,413.027 1604.09,414.027 1605.5,414.5C 1605.43,416.027 1606.09,417.027 1607.5,417.5C 1608.34,417.842 1608.67,418.508 1608.5,419.5C 1608.43,421.027 1609.09,422.027 1610.5,422.5C 1613.33,426.164 1615.67,430.164 1617.5,434.5C 1617.43,436.027 1618.09,437.027 1619.5,437.5C 1647.26,484.03 1669.93,533.03 1687.5,584.5C 1687.12,586.698 1687.79,588.365 1689.5,589.5C 1691.9,595.696 1693.9,602.029 1695.5,608.5C 1695.12,610.698 1695.79,612.365 1697.5,613.5C 1699.24,618.393 1700.58,623.393 1701.5,628.5C 1701.41,631.152 1702.08,633.485 1703.5,635.5C 1703.41,638.152 1704.08,640.485 1705.5,642.5C 1706.43,643.568 1706.77,644.901 1706.5,646.5C 1706.41,649.152 1707.08,651.485 1708.5,653.5C 1736.27,759.598 1743.77,867.264 1731,976.5C 1706.52,1167.09 1629.18,1332.09 1499,1471.5C 1346.51,1628.79 1160.68,1718.13 941.5,1739.5C 892.833,1739.5 844.167,1739.5 795.5,1739.5C 745.767,1735.04 696.767,1726.38 648.5,1713.5C 646.485,1712.08 644.152,1711.41 641.5,1711.5C 639.901,1711.77 638.568,1711.43 637.5,1710.5C 635.485,1709.08 633.152,1708.41 630.5,1708.5C 628.485,1707.08 626.152,1706.41 623.5,1706.5C 618.393,1705.58 613.393,1704.24 608.5,1702.5C 607.365,1700.79 605.698,1700.12 603.5,1700.5C 597.029,1698.9 590.696,1696.9 584.5,1694.5C 583.365,1692.79 581.698,1692.12 579.5,1692.5C 528.03,1674.93 479.03,1652.26 432.5,1624.5C 432.027,1623.09 431.027,1622.43 429.5,1622.5C 425.164,1620.67 421.164,1618.33 417.5,1615.5C 417.027,1614.09 416.027,1613.43 414.5,1613.5C 413.508,1613.67 412.842,1613.34 412.5,1612.5C 412.027,1611.09 411.027,1610.43 409.5,1610.5C 409.027,1609.09 408.027,1608.43 406.5,1608.5C 405.508,1608.67 404.842,1608.34 404.5,1607.5C 404.027,1606.09 403.027,1605.43 401.5,1605.5C 401.027,1604.09 400.027,1603.43 398.5,1603.5C 398.027,1602.09 397.027,1601.43 395.5,1601.5C 395.027,1600.09 394.027,1599.43 392.5,1599.5C 388.148,1597.33 384.148,1594.66 380.5,1591.5C 380.027,1590.09 379.027,1589.43 377.5,1589.5C 377.027,1588.09 376.027,1587.43 374.5,1587.5C 365.629,1582.23 357.295,1576.23 349.5,1569.5C 349.027,1568.09 348.027,1567.43 346.5,1567.5C 342.854,1565.18 339.52,1562.52 336.5,1559.5C 336.027,1558.09 335.027,1557.43 333.5,1557.5C 332.5,1557.17 331.833,1556.5 331.5,1555.5C 331.027,1554.09 330.027,1553.43 328.5,1553.5C 327.5,1553.17 326.833,1552.5 326.5,1551.5C 326.027,1550.09 325.027,1549.43 323.5,1549.5C 322.5,1549.17 321.833,1548.5 321.5,1547.5C 321.027,1546.09 320.027,1545.43 318.5,1545.5C 317.5,1545.17 316.833,1544.5 316.5,1543.5C 315.738,1541.74 314.404,1540.74 312.5,1540.5C 308.895,1538.53 305.895,1535.86 303.5,1532.5C 303.027,1531.09 302.027,1530.43 300.5,1530.5C 298.5,1529.17 296.833,1527.5 295.5,1525.5C 294.738,1523.74 293.404,1522.74 291.5,1522.5C 289.5,1521.17 287.833,1519.5 286.5,1517.5C 286.027,1516.09 285.027,1515.43 283.5,1515.5C 279.5,1512.17 275.833,1508.5 272.5,1504.5C 272.027,1503.09 271.027,1502.43 269.5,1502.5C 218.825,1454.36 174.825,1401.03 137.5,1342.5C 137.715,1340.82 137.048,1339.82 135.5,1339.5C 135.715,1337.82 135.048,1336.82 133.5,1336.5C 132.248,1335 131.248,1333.33 130.5,1331.5C 130.715,1329.82 130.048,1328.82 128.5,1328.5C 119.982,1314.8 111.982,1300.8 104.5,1286.5C 104.715,1284.82 104.048,1283.82 102.5,1283.5C 11.9196,1110.68 -18.5804,927.684 11,734.5C 15.2591,707.028 21.0924,680.028 28.5,653.5C 29.9238,651.485 30.5905,649.152 30.5,646.5C 30.2322,644.901 30.5655,643.568 31.5,642.5C 32.9238,640.485 33.5905,638.152 33.5,635.5C 34.9238,633.485 35.5905,631.152 35.5,628.5C 36.4242,623.393 37.7576,618.393 39.5,613.5C 41.2132,612.365 41.8799,610.698 41.5,608.5C 43.1016,602.029 45.1016,595.696 47.5,589.5C 49.2132,588.365 49.8799,586.698 49.5,584.5C 67.0716,533.03 89.7382,484.03 117.5,437.5C 118.906,437.027 119.573,436.027 119.5,434.5C 121.332,430.164 123.665,426.164 126.5,422.5C 127.906,422.027 128.573,421.027 128.5,419.5C 128.328,418.508 128.662,417.842 129.5,417.5C 130.906,417.027 131.573,416.027 131.5,414.5C 132.906,414.027 133.573,413.027 133.5,411.5C 134.11,409.566 135.11,407.899 136.5,406.5C 137.906,406.027 138.573,405.027 138.5,403.5C 139.906,403.027 140.573,402.027 140.5,400.5C 141.906,400.027 142.573,399.027 142.5,397.5C 144.673,393.148 147.34,389.148 150.5,385.5C 151.906,385.027 152.573,384.027 152.5,382.5C 153.906,382.027 154.573,381.027 154.5,379.5C 159.768,370.629 165.768,362.295 172.5,354.5C 173.906,354.027 174.573,353.027 174.5,351.5C 176.817,347.854 179.484,344.52 182.5,341.5C 183.906,341.027 184.573,340.027 184.5,338.5C 184.833,337.5 185.5,336.833 186.5,336.5C 187.906,336.027 188.573,335.027 188.5,333.5C 188.833,332.5 189.5,331.833 190.5,331.5C 191.906,331.027 192.573,330.027 192.5,328.5C 192.833,327.5 193.5,326.833 194.5,326.5C 195.906,326.027 196.573,325.027 196.5,323.5C 196.833,322.5 197.5,321.833 198.5,321.5C 200.262,320.738 201.262,319.404 201.5,317.5C 203.472,313.895 206.139,310.895 209.5,308.5C 210.906,308.027 211.573,307.027 211.5,305.5C 212.833,303.5 214.5,301.833 216.5,300.5C 218.262,299.738 219.262,298.404 219.5,296.5C 220.833,294.5 222.5,292.833 224.5,291.5C 225.906,291.027 226.573,290.027 226.5,288.5C 229.833,284.5 233.5,280.833 237.5,277.5C 239.587,276.415 240.92,274.749 241.5,272.5C 247.167,266.167 253.167,260.167 259.5,254.5C 264.44,251.23 268.773,247.23 272.5,242.5C 273.167,241.167 274.167,240.167 275.5,239.5C 279.771,236.899 283.437,233.566 286.5,229.5C 286.5,228.833 286.833,228.5 287.5,228.5C 290.764,226.906 293.431,224.573 295.5,221.5C 295.5,220.833 295.833,220.5 296.5,220.5C 299.427,219.243 301.761,217.243 303.5,214.5C 306.089,213.581 308.089,211.914 309.5,209.5C 309.5,208.833 309.833,208.5 310.5,208.5C 313.089,207.581 315.089,205.914 316.5,203.5C 318.749,202.92 320.415,201.587 321.5,199.5C 324.46,196.355 327.793,193.688 331.5,191.5C 333.749,190.92 335.415,189.587 336.5,187.5C 342.922,181.45 349.922,176.117 357.5,171.5C 359.027,171.573 360.027,170.906 360.5,169.5C 363.597,166.112 367.264,163.445 371.5,161.5C 373.027,161.573 374.027,160.906 374.5,159.5C 385.645,151.091 397.312,143.424 409.5,136.5C 411.027,136.573 412.027,135.906 412.5,134.5C 465.052,101.727 520.718,75.0606 579.5,54.5C 581.698,54.8799 583.365,54.2132 584.5,52.5C 586.701,51.4336 589.035,50.767 591.5,50.5C 598.167,49.2762 604.501,47.2762 610.5,44.5C 611.209,43.596 612.209,43.2627 613.5,43.5C 617.162,43.2766 620.495,42.2766 623.5,40.5C 626.152,40.5905 628.485,39.9238 630.5,38.5C 633.152,38.5905 635.485,37.9238 637.5,36.5C 638.568,35.5655 639.901,35.2322 641.5,35.5C 644.152,35.5905 646.485,34.9238 648.5,33.5C 754.597,5.73145 862.263,-1.76855 971.5,11C 1080.02,23.8723 1182.35,56.039 1278.5,107.5 Z"/></g>
<g><path style="opacity:0.929" fill="#185f48" d="M 648.5,33.5 C 646.485,34.9238 644.152,35.5905 641.5,35.5C 643.515,34.0762 645.848,33.4095 648.5,33.5 Z"/></g>
<g><path style="opacity:0.929" fill="#185f48" d="M 637.5,36.5 C 635.485,37.9238 633.152,38.5905 630.5,38.5C 632.515,37.0762 634.848,36.4095 637.5,36.5 Z"/></g>
<g><path style="opacity:0.929" fill="#195f49" d="M 630.5,38.5 C 628.485,39.9238 626.152,40.5905 623.5,40.5C 625.515,39.0762 627.848,38.4095 630.5,38.5 Z"/></g>
<g><path style="opacity:0.894" fill="#195c47" d="M 623.5,40.5 C 620.495,42.2766 617.162,43.2766 613.5,43.5C 616.505,41.7234 619.838,40.7234 623.5,40.5 Z"/></g>
<g><path style="opacity:0.957" fill="#1a634c" d="M 610.5,44.5 C 604.501,47.2762 598.167,49.2762 591.5,50.5C 597.499,47.7238 603.833,45.7238 610.5,44.5 Z"/></g>
<g><path style="opacity:0.922" fill="#164d3b" d="M 584.5,52.5 C 583.365,54.2132 581.698,54.8799 579.5,54.5C 580.93,53.4625 582.597,52.7959 584.5,52.5 Z"/></g>
<g><path style="opacity:0.922" fill="#194938" d="M 1278.5,107.5 C 1279.71,107.932 1280.71,108.599 1281.5,109.5C 1279.82,109.715 1278.82,109.048 1278.5,107.5 Z"/></g>
<g><path style="opacity:0.965" fill="#1a4e3d" d="M 1308.5,124.5 C 1309.71,124.932 1310.71,125.599 1311.5,126.5C 1309.82,126.715 1308.82,126.048 1308.5,124.5 Z"/></g>
<g><path style="opacity:0.965" fill="#1a4e3d" d="M 1313.5,127.5 C 1314.71,127.932 1315.71,128.599 1316.5,129.5C 1314.82,129.715 1313.82,129.048 1313.5,127.5 Z"/></g>
<g><path style="opacity:0.922" fill="#184737" d="M 1323.5,133.5 C 1324.71,133.932 1325.71,134.599 1326.5,135.5C 1324.82,135.715 1323.82,135.048 1323.5,133.5 Z"/></g>
<g><path style="opacity:0.765" fill="#144837" d="M 412.5,134.5 C 412.027,135.906 411.027,136.573 409.5,136.5C 409.973,135.094 410.973,134.427 412.5,134.5 Z"/></g>
<g><path style="opacity:0.965" fill="#1a4e3d" d="M 1334.5,140.5 C 1335.71,140.932 1336.71,141.599 1337.5,142.5C 1335.82,142.715 1334.82,142.048 1334.5,140.5 Z"/></g>
<g><path style="opacity:0.745" fill="#164737" d="M 374.5,159.5 C 374.027,160.906 373.027,161.573 371.5,161.5C 371.973,160.094 372.973,159.427 374.5,159.5 Z"/></g>
<g><path style="opacity:0.78" fill="#184d3b" d="M 360.5,169.5 C 360.027,170.906 359.027,171.573 357.5,171.5C 357.973,170.094 358.973,169.427 360.5,169.5 Z"/></g>
<g><path style="opacity:0.969" fill="#1a634c" d="M 336.5,187.5 C 335.415,189.587 333.749,190.92 331.5,191.5C 332.585,189.413 334.251,188.08 336.5,187.5 Z"/></g>
<g><path style="opacity:0.949" fill="#1a614b" d="M 321.5,199.5 C 320.415,201.587 318.749,202.92 316.5,203.5C 317.585,201.413 319.251,200.08 321.5,199.5 Z"/></g>
<g><path style="opacity:0.882" fill="#195945" d="M 316.5,203.5 C 315.089,205.914 313.089,207.581 310.5,208.5C 311.911,206.086 313.911,204.419 316.5,203.5 Z"/></g>
<g><path style="opacity:0.929" fill="#1b644c" d="M 309.5,209.5 C 308.089,211.914 306.089,213.581 303.5,214.5C 304.911,212.086 306.911,210.419 309.5,209.5 Z"/></g>
<g><path style="opacity:0.851" fill="#195945" d="M 303.5,214.5 C 301.761,217.243 299.427,219.243 296.5,220.5C 298.239,217.757 300.573,215.757 303.5,214.5 Z"/></g>
<g><path style="opacity:0.835" fill="#1a5a45" d="M 295.5,221.5 C 293.431,224.573 290.764,226.906 287.5,228.5C 289.569,225.427 292.236,223.094 295.5,221.5 Z"/></g>
<g><path style="opacity:0.929" fill="#1a6049" d="M 286.5,229.5 C 283.437,233.566 279.771,236.899 275.5,239.5C 278.563,235.434 282.229,232.101 286.5,229.5 Z"/></g>
<g><path style="opacity:0.808" fill="#1a523f" d="M 272.5,242.5 C 268.773,247.23 264.44,251.23 259.5,254.5C 263.227,249.77 267.56,245.77 272.5,242.5 Z"/></g>
<g><path style="opacity:0.6" fill="#163e30" d="M 241.5,272.5 C 240.92,274.749 239.587,276.415 237.5,277.5C 238.08,275.251 239.413,273.585 241.5,272.5 Z"/></g>
<g><path style="opacity:0.6" fill="#15392c" d="M 1497.5,274.5 C 1498.91,274.973 1499.57,275.973 1499.5,277.5C 1498.09,277.027 1497.43,276.027 1497.5,274.5 Z"/></g>
<g><path style="opacity:0.624" fill="#153a2d" d="M 226.5,288.5 C 226.573,290.027 225.906,291.027 224.5,291.5C 224.427,289.973 225.094,288.973 226.5,288.5 Z"/></g>
<g><path style="opacity:0.627" fill="#153a2d" d="M 1510.5,288.5 C 1511.91,288.973 1512.57,289.973 1512.5,291.5C 1511.09,291.027 1510.43,290.027 1510.5,288.5 Z"/></g>
<g><path style="opacity:0.784" fill="#174435" d="M 219.5,296.5 C 219.262,298.404 218.262,299.738 216.5,300.5C 216.738,298.596 217.738,297.262 219.5,296.5 Z"/></g>
<g><path style="opacity:0.784" fill="#174032" d="M 1517.5,296.5 C 1519.26,297.262 1520.26,298.596 1520.5,300.5C 1518.74,299.738 1517.74,298.404 1517.5,296.5 Z"/></g>
<g><path style="opacity:0.643" fill="#153b2d" d="M 211.5,305.5 C 211.573,307.027 210.906,308.027 209.5,308.5C 209.427,306.973 210.094,305.973 211.5,305.5 Z"/></g>
<g><path style="opacity:0.643" fill="#153b2e" d="M 1525.5,305.5 C 1526.91,305.973 1527.57,306.973 1527.5,308.5C 1526.09,308.027 1525.43,307.027 1525.5,305.5 Z"/></g>
<g><path style="opacity:1" fill="#a6d8c9" d="M 585.5,310.5 C 686.665,309.501 787.999,309.167 889.5,309.5C 891.833,310.167 894.167,310.833 896.5,311.5C 893.5,311.5 890.5,311.5 887.5,311.5C 787.001,310.501 686.335,310.167 585.5,310.5 Z"/></g>
<g><path style="opacity:1" fill="#fefefe" d="M 887.5,311.5 C 890.5,311.5 893.5,311.5 896.5,311.5C 897.833,311.5 899.167,311.5 900.5,311.5C 902.048,312.794 904.048,313.461 906.5,313.5C 920.164,314.273 933.831,314.94 947.5,315.5C 947.833,315.5 948.167,315.5 948.5,315.5C 959.584,317.724 970.918,319.057 982.5,319.5C 985.5,319.5 988.5,319.5 991.5,319.5C 995.21,321.136 999.21,321.802 1003.5,321.5C 1004.83,321.5 1006.17,321.5 1007.5,321.5C 1007.5,321.833 1007.5,322.167 1007.5,322.5C 1007.92,323.222 1008.58,323.722 1009.5,324C 1029.14,326.881 1048.8,329.381 1068.5,331.5C 1075.2,332.706 1081.87,334.04 1088.5,335.5C 1088.61,336.117 1088.94,336.617 1089.5,337C 1104.39,339.243 1119.05,342.41 1133.5,346.5C 1134.17,346.5 1134.83,346.5 1135.5,346.5C 1135.61,347.117 1135.94,347.617 1136.5,348C 1143.89,350.409 1151.23,352.909 1158.5,355.5C 1161.87,356.576 1165.2,357.576 1168.5,358.5C 1170.98,361.741 1174.32,363.408 1178.5,363.5C 1184.88,366.99 1191.55,369.99 1198.5,372.5C 1200.22,374.218 1202.22,375.551 1204.5,376.5C 1206.82,380.003 1210.16,382.003 1214.5,382.5C 1216.22,384.218 1218.22,385.551 1220.5,386.5C 1240.37,400.031 1259.71,414.364 1278.5,429.5C 1283.08,435.107 1288.41,439.774 1294.5,443.5C 1303.83,453.5 1313.5,463.167 1323.5,472.5C 1334.3,483.968 1343.97,496.301 1352.5,509.5C 1352.34,510.873 1352.51,512.207 1353,513.5C 1356.28,518.414 1359.78,523.08 1363.5,527.5C 1364.9,529.62 1366.57,531.62 1368.5,533.5C 1374.32,544.467 1380.65,555.134 1387.5,565.5C 1391.09,572.348 1394.42,579.348 1397.5,586.5C 1398.1,590.372 1399.77,593.705 1402.5,596.5C 1405.97,602.771 1409.47,609.105 1413,615.5C 1414.24,619.631 1415.74,623.631 1417.5,627.5C 1419.6,633.349 1421.93,639.015 1424.5,644.5C 1426.79,651.735 1429.62,658.735 1433,665.5C 1435.15,672.103 1436.98,678.769 1438.5,685.5C 1441.31,695.067 1443.64,704.733 1445.5,714.5C 1451.27,742.367 1456.27,770.367 1460.5,798.5C 1465.44,842.713 1466.78,887.046 1464.5,931.5C 1464.5,932.833 1464.5,934.167 1464.5,935.5C 1462.67,945.604 1461.67,955.937 1461.5,966.5C 1459.83,982.499 1458.17,998.499 1456.5,1014.5C 1454.42,1023.63 1452.75,1032.96 1451.5,1042.5C 1450.95,1044.63 1450.29,1046.63 1449.5,1048.5C 1446.13,1055.64 1444.13,1063.3 1443.5,1071.5C 1442.77,1072.81 1441.93,1074.14 1441,1075.5C 1438.52,1084.04 1436.35,1092.7 1434.5,1101.5C 1428.71,1109.45 1425.37,1118.45 1424.5,1128.5C 1423.66,1128.84 1423.33,1129.51 1423.5,1130.5C 1421.75,1132.03 1420.75,1134.03 1420.5,1136.5C 1419.62,1136.37 1418.96,1136.7 1418.5,1137.5C 1416.19,1142.45 1414.19,1147.45 1412.5,1152.5C 1409.49,1160.52 1406.49,1168.52 1403.5,1176.5C 1393.78,1194.57 1383.45,1212.57 1372.5,1230.5C 1354.75,1258.11 1333.75,1283.27 1309.5,1306C 1280.65,1332.37 1249.98,1356.21 1217.5,1377.5C 1214.09,1380.54 1210.09,1382.54 1205.5,1383.5C 1197.22,1386.85 1189.22,1390.51 1181.5,1394.5C 1175.98,1397.42 1170.32,1400.09 1164.5,1402.5C 1158.65,1404.56 1152.65,1406.23 1146.5,1407.5C 1141.56,1408.23 1136.89,1409.56 1132.5,1411.5C 1108.72,1418.66 1084.39,1423.66 1059.5,1426.5C 1029.23,1429.38 998.896,1431.55 968.5,1433C 926.665,1433.17 884.998,1433.67 843.5,1434.5C 838.305,1434.18 833.305,1434.51 828.5,1435.5C 764.161,1436.15 699.828,1436.82 635.5,1437.5C 618.5,1437.5 601.5,1437.5 584.5,1437.5C 585.096,1382.83 585.762,1328.17 586.5,1273.5C 598.167,1273.5 609.833,1273.5 621.5,1273.5C 622.167,1273.5 622.833,1273.5 623.5,1273.5C 624.952,1274.3 626.618,1274.8 628.5,1275C 654.831,1275.5 681.165,1275.67 707.5,1275.5C 708.167,1275.5 708.833,1275.5 709.5,1275.5C 711.631,1276.31 713.964,1276.81 716.5,1277C 783.5,1277.67 850.5,1277.67 917.5,1277C 925.011,1276.83 932.345,1276.33 939.5,1275.5C 939.833,1275.5 940.167,1275.5 940.5,1275.5C 950.717,1275.83 960.717,1275.16 970.5,1273.5C 970.833,1273.5 971.167,1273.5 971.5,1273.5C 998.211,1273.91 1024.21,1270.24 1049.5,1262.5C 1053.27,1260.97 1057.27,1259.97 1061.5,1259.5C 1066.09,1258.36 1070.76,1257.53 1075.5,1257C 1077.71,1256.02 1079.71,1254.86 1081.5,1253.5C 1086.85,1252.64 1091.85,1250.98 1096.5,1248.5C 1106.26,1243.71 1116.26,1239.21 1126.5,1235C 1127.38,1234.29 1128.05,1233.46 1128.5,1232.5C 1134.37,1229.4 1140.37,1226.57 1146.5,1224C 1152.73,1218.54 1159.4,1213.54 1166.5,1209C 1192.83,1185.84 1216.5,1160.34 1237.5,1132.5C 1239.53,1131.14 1241.19,1129.47 1242.5,1127.5C 1243.79,1126.46 1243.79,1125.29 1242.5,1124C 1108.83,1123.67 975.167,1123.33 841.5,1123C 828.177,1122.17 814.844,1121.67 801.5,1121.5C 787.468,1120.09 773.468,1118.43 759.5,1116.5C 756.361,1115.11 753.028,1113.95 749.5,1113C 738.168,1112.08 727.168,1109.75 716.5,1106C 713.518,1105.5 710.518,1105.34 707.5,1105.5C 706.167,1105.5 704.833,1105.5 703.5,1105.5C 700.392,1104.45 697.392,1103.11 694.5,1101.5C 686.985,1097.95 678.985,1095.95 670.5,1095.5C 666.37,1092.68 661.703,1091.01 656.5,1090.5C 645.913,1086.58 635.246,1082.75 624.5,1079C 622.569,1078.1 620.903,1076.93 619.5,1075.5C 614.038,1071.44 608.038,1068.44 601.5,1066.5C 593.239,1062.88 585.572,1058.55 578.5,1053.5C 573.41,1049.44 568.077,1045.61 562.5,1042C 561.207,1041.51 559.873,1041.34 558.5,1041.5C 543.035,1031.71 528.702,1020.38 515.5,1007.5C 508.5,999.833 501.167,992.5 493.5,985.5C 489.643,979.791 485.31,974.458 480.5,969.5C 479.92,967.251 478.587,965.585 476.5,964.5C 476.262,962.596 475.262,961.262 473.5,960.5C 473.5,959.833 473.5,959.167 473.5,958.5C 473.5,957.5 473.5,956.5 473.5,955.5C 489.306,958.71 505.306,960.71 521.5,961.5C 540.872,962.614 560.206,963.947 579.5,965.5C 593.32,966.721 607.32,967.555 621.5,968C 840,968.833 1058.33,968.666 1276.5,967.5C 1281.36,967.819 1286.03,967.486 1290.5,966.5C 1291.5,966.586 1292.33,966.252 1293,965.5C 1293.72,961.855 1294.22,958.188 1294.5,954.5C 1294.34,951.098 1294.68,947.764 1295.5,944.5C 1296.3,943.048 1296.8,941.382 1297,939.5C 1298.44,913.514 1298.77,887.514 1298,861.5C 1297.91,853.933 1297.08,846.6 1295.5,839.5C 1295.81,835.958 1295.48,832.625 1294.5,829.5C 1085.17,827.667 875.502,826.834 665.5,827C 643.486,825.497 621.486,823.997 599.5,822.5C 580.126,820.83 560.792,818.83 541.5,816.5C 530.117,813.984 518.783,810.817 507.5,807C 504.854,806.503 502.187,806.336 499.5,806.5C 492.585,802.973 485.252,800.64 477.5,799.5C 477.53,798.503 477.03,797.836 476,797.5C 469.692,794.649 463.192,792.649 456.5,791.5C 454.898,789.926 452.898,789.259 450.5,789.5C 446.579,787.422 442.579,785.755 438.5,784.5C 434.642,781.484 430.308,779.484 425.5,778.5C 425.167,778.5 424.833,778.5 424.5,778.5C 421.752,776.399 418.752,774.566 415.5,773C 414.207,772.51 412.873,772.343 411.5,772.5C 409.266,770.554 406.599,769.387 403.5,769C 400.598,766.583 397.598,764.416 394.5,762.5C 391.184,759.196 387.184,757.196 382.5,756.5C 380.048,754.026 377.382,752.026 374.5,750.5C 372.212,747.544 369.212,745.877 365.5,745.5C 357.545,740.849 349.879,735.682 342.5,730C 338.666,727.332 335.333,724.165 332.5,720.5C 324.779,711.778 316.446,703.778 307.5,696.5C 304.5,693.833 301.5,691.167 298.5,688.5C 293.54,681.539 288.206,674.873 282.5,668.5C 279.926,663.591 276.592,659.258 272.5,655.5C 272.279,654.265 271.612,653.265 270.5,652.5C 271.167,652.167 271.833,651.833 272.5,651.5C 278.91,654.016 285.576,655.683 292.5,656.5C 302.916,658.745 313.582,660.078 324.5,660.5C 333.958,662.019 343.625,662.685 353.5,662.5C 355.167,662.5 356.833,662.5 358.5,662.5C 366.703,663.224 375.036,663.89 383.5,664.5C 429.998,665.665 476.665,665.832 523.5,665C 544.012,664.634 564.345,663.801 584.5,662.5C 586.498,545.838 587.165,428.838 586.5,311.5C 686.833,311.5 787.167,311.5 887.5,311.5 Z"/></g>
<g><path style="opacity:1" fill="#86cab5" d="M 889.5,309.5 C 899.716,309.798 909.716,310.798 919.5,312.5C 913.178,311.986 906.845,311.653 900.5,311.5C 899.167,311.5 897.833,311.5 896.5,311.5C 894.167,310.833 891.833,310.167 889.5,309.5 Z"/></g>
<g><path style="opacity:1" fill="#d2ebe3" d="M 900.5,311.5 C 906.845,311.653 913.178,311.986 919.5,312.5C 920.833,312.5 922.167,312.5 923.5,312.5C 931.552,313.059 939.552,314.059 947.5,315.5C 933.831,314.94 920.164,314.273 906.5,313.5C 904.048,313.461 902.048,312.794 900.5,311.5 Z"/></g>
<g><path style="opacity:1" fill="#5ab699" d="M 923.5,312.5 C 932.839,312.334 942.173,312.5 951.5,313C 967.295,315.307 982.961,317.474 998.5,319.5C 996.167,319.5 993.833,319.5 991.5,319.5C 988.5,319.5 985.5,319.5 982.5,319.5C 971.371,317.636 960.037,316.303 948.5,315.5C 948.167,315.5 947.833,315.5 947.5,315.5C 939.552,314.059 931.552,313.059 923.5,312.5 Z"/></g>
<g><path style="opacity:1" fill="#d1ebe3" d="M 948.5,315.5 C 960.037,316.303 971.371,317.636 982.5,319.5C 970.918,319.057 959.584,317.724 948.5,315.5 Z"/></g>
<g><path style="opacity:0.784" fill="#174334" d="M 201.5,317.5 C 201.262,319.404 200.262,320.738 198.5,321.5C 198.738,319.596 199.738,318.262 201.5,317.5 Z"/></g>
<g><path style="opacity:0.784" fill="#163f31" d="M 1535.5,317.5 C 1537.26,318.262 1538.26,319.596 1538.5,321.5C 1536.74,320.738 1535.74,319.404 1535.5,317.5 Z"/></g>
<g><path style="opacity:1" fill="#cae8de" d="M 585.5,310.5 C 686.335,310.167 787.001,310.501 887.5,311.5C 787.167,311.5 686.833,311.5 586.5,311.5C 587.165,428.838 586.498,545.838 584.5,662.5C 584.969,545.167 585.303,427.834 585.5,310.5 Z"/></g>
<g><path style="opacity:1" fill="#9fd5c4" d="M 991.5,319.5 C 993.833,319.5 996.167,319.5 998.5,319.5C 1000.31,320.024 1001.97,320.691 1003.5,321.5C 999.21,321.802 995.21,321.136 991.5,319.5 Z"/></g>
<g><path style="opacity:1" fill="#70c0a6" d="M 1007.5,322.5 C 1007.5,322.167 1007.5,321.833 1007.5,321.5C 1019.6,321.552 1031.6,322.719 1043.5,325C 1044.42,325.278 1045.08,325.778 1045.5,326.5C 1032.85,325.002 1020.19,323.669 1007.5,322.5 Z"/></g>
<g><path style="opacity:1" fill="#d6ede6" d="M 1007.5,322.5 C 1020.19,323.669 1032.85,325.002 1045.5,326.5C 1051.72,327.961 1058.06,328.961 1064.5,329.5C 1065.83,330.167 1067.17,330.833 1068.5,331.5C 1048.8,329.381 1029.14,326.881 1009.5,324C 1008.58,323.722 1007.92,323.222 1007.5,322.5 Z"/></g>
<g><path style="opacity:0.733" fill="#174233" d="M 196.5,323.5 C 196.573,325.027 195.906,326.027 194.5,326.5C 194.427,324.973 195.094,323.973 196.5,323.5 Z"/></g>
<g><path style="opacity:0.737" fill="#174334" d="M 1540.5,323.5 C 1541.91,323.973 1542.57,324.973 1542.5,326.5C 1541.09,326.027 1540.43,325.027 1540.5,323.5 Z"/></g>
<g><path style="opacity:0.78" fill="#184838" d="M 192.5,328.5 C 192.573,330.027 191.906,331.027 190.5,331.5C 190.427,329.973 191.094,328.973 192.5,328.5 Z"/></g>
<g><path style="opacity:0.788" fill="#184838" d="M 1544.5,328.5 C 1545.91,328.973 1546.57,329.973 1546.5,331.5C 1545.09,331.027 1544.43,330.027 1544.5,328.5 Z"/></g>
<g><path style="opacity:0.769" fill="#174636" d="M 188.5,333.5 C 188.573,335.027 187.906,336.027 186.5,336.5C 186.427,334.973 187.094,333.973 188.5,333.5 Z"/></g>
<g><path style="opacity:0.769" fill="#174636" d="M 1548.5,333.5 C 1549.91,333.973 1550.57,334.973 1550.5,336.5C 1549.09,336.027 1548.43,335.027 1548.5,333.5 Z"/></g>
<g><path style="opacity:1" fill="#6abda2" d="M 1064.5,329.5 C 1079.18,331.836 1093.85,334.336 1108.5,337C 1112.61,337.677 1116.28,339.177 1119.5,341.5C 1109.26,338.986 1098.93,336.986 1088.5,335.5C 1081.87,334.04 1075.2,332.706 1068.5,331.5C 1067.17,330.833 1065.83,330.167 1064.5,329.5 Z"/></g>
<g><path style="opacity:0.714" fill="#163f31" d="M 184.5,338.5 C 184.573,340.027 183.906,341.027 182.5,341.5C 182.427,339.973 183.094,338.973 184.5,338.5 Z"/></g>
<g><path style="opacity:0.718" fill="#163f31" d="M 1552.5,338.5 C 1553.91,338.973 1554.57,339.973 1554.5,341.5C 1553.09,341.027 1552.43,340.027 1552.5,338.5 Z"/></g>
<g><path style="opacity:1" fill="#d4ece4" d="M 1088.5,335.5 C 1098.93,336.986 1109.26,338.986 1119.5,341.5C 1124.46,342.566 1129.13,344.233 1133.5,346.5C 1119.05,342.41 1104.39,339.243 1089.5,337C 1088.94,336.617 1088.61,336.117 1088.5,335.5 Z"/></g>
<g><path style="opacity:1" fill="#b3ded0" d="M 1135.5,346.5 C 1142.18,348.56 1148.85,350.726 1155.5,353C 1156.94,353.377 1157.94,354.21 1158.5,355.5C 1151.23,352.909 1143.89,350.409 1136.5,348C 1135.94,347.617 1135.61,347.117 1135.5,346.5 Z"/></g>
<g><path style="opacity:0.431" fill="#13382b" d="M 174.5,351.5 C 174.573,353.027 173.906,354.027 172.5,354.5C 172.427,352.973 173.094,351.973 174.5,351.5 Z"/></g>
<g><path style="opacity:0.431" fill="#13382b" d="M 1562.5,351.5 C 1563.91,351.973 1564.57,352.973 1564.5,354.5C 1563.09,354.027 1562.43,353.027 1562.5,351.5 Z"/></g>
<g><path style="opacity:1" fill="#7ac5ad" d="M 1168.5,358.5 C 1172.05,359.791 1175.39,361.458 1178.5,363.5C 1174.32,363.408 1170.98,361.741 1168.5,358.5 Z"/></g>
<g><path style="opacity:1" fill="#5fb89b" d="M 1178.5,363.5 C 1185.59,364.311 1192.26,366.311 1198.5,369.5C 1198.5,370.5 1198.5,371.5 1198.5,372.5C 1191.55,369.99 1184.88,366.99 1178.5,363.5 Z"/></g>
<g><path style="opacity:1" fill="#c0e3d8" d="M 1204.5,376.5 C 1206.98,377.974 1209.65,378.974 1212.5,379.5C 1213.17,380.5 1213.83,381.5 1214.5,382.5C 1210.16,382.003 1206.82,380.003 1204.5,376.5 Z"/></g>
<g><path style="opacity:0.522" fill="#154535" d="M 154.5,379.5 C 154.573,381.027 153.906,382.027 152.5,382.5C 152.427,380.973 153.094,379.973 154.5,379.5 Z"/></g>
<g><path style="opacity:0.522" fill="#154535" d="M 1582.5,379.5 C 1583.91,379.973 1584.57,380.973 1584.5,382.5C 1583.09,382.027 1582.43,381.027 1582.5,379.5 Z"/></g>
<g><path style="opacity:1" fill="#72c1a7" d="M 1212.5,379.5 C 1215.97,380.902 1218.63,383.236 1220.5,386.5C 1218.22,385.551 1216.22,384.218 1214.5,382.5C 1213.83,381.5 1213.17,380.5 1212.5,379.5 Z"/></g>
<g><path style="opacity:0.573" fill="#164b3a" d="M 152.5,382.5 C 152.573,384.027 151.906,385.027 150.5,385.5C 150.427,383.973 151.094,382.973 152.5,382.5 Z"/></g>
<g><path style="opacity:0.573" fill="#164b3a" d="M 1584.5,382.5 C 1585.91,382.973 1586.57,383.973 1586.5,385.5C 1585.09,385.027 1584.43,384.027 1584.5,382.5 Z"/></g>
<g><path style="opacity:0.576" fill="#174d3c" d="M 142.5,397.5 C 142.573,399.027 141.906,400.027 140.5,400.5C 140.427,398.973 141.094,397.973 142.5,397.5 Z"/></g>
<g><path style="opacity:0.58" fill="#174d3c" d="M 1594.5,397.5 C 1595.91,397.973 1596.57,398.973 1596.5,400.5C 1595.09,400.027 1594.43,399.027 1594.5,397.5 Z"/></g>
<g><path style="opacity:0.525" fill="#154837" d="M 140.5,400.5 C 140.573,402.027 139.906,403.027 138.5,403.5C 138.427,401.973 139.094,400.973 140.5,400.5 Z"/></g>
<g><path style="opacity:0.525" fill="#154837" d="M 1596.5,400.5 C 1597.91,400.973 1598.57,401.973 1598.5,403.5C 1597.09,403.027 1596.43,402.027 1596.5,400.5 Z"/></g>
<g><path style="opacity:0.471" fill="#144132" d="M 138.5,403.5 C 138.573,405.027 137.906,406.027 136.5,406.5C 136.427,404.973 137.094,403.973 138.5,403.5 Z"/></g>
<g><path style="opacity:0.471" fill="#144233" d="M 1598.5,403.5 C 1599.91,403.973 1600.57,404.973 1600.5,406.5C 1599.09,406.027 1598.43,405.027 1598.5,403.5 Z"/></g>
<g><path style="opacity:0.369" fill="#12362a" d="M 1600.5,406.5 C 1601.91,406.973 1602.57,407.973 1602.5,409.5C 1601.09,409.027 1600.43,408.027 1600.5,406.5 Z"/></g>
<g><path style="opacity:0.529" fill="#164938" d="M 133.5,411.5 C 133.573,413.027 132.906,414.027 131.5,414.5C 131.427,412.973 132.094,411.973 133.5,411.5 Z"/></g>
<g><path style="opacity:0.533" fill="#164a38" d="M 1603.5,411.5 C 1604.91,411.973 1605.57,412.973 1605.5,414.5C 1604.09,414.027 1603.43,413.027 1603.5,411.5 Z"/></g>
<g><path style="opacity:0.384" fill="#12392c" d="M 131.5,414.5 C 131.573,416.027 130.906,417.027 129.5,417.5C 129.427,415.973 130.094,414.973 131.5,414.5 Z"/></g>
<g><path style="opacity:0.384" fill="#123a2c" d="M 1605.5,414.5 C 1606.91,414.973 1607.57,415.973 1607.5,417.5C 1606.09,417.027 1605.43,416.027 1605.5,414.5 Z"/></g>
<g><path style="opacity:0.467" fill="#154333" d="M 128.5,419.5 C 128.573,421.027 127.906,422.027 126.5,422.5C 126.427,420.973 127.094,419.973 128.5,419.5 Z"/></g>
<g><path style="opacity:0.467" fill="#154333" d="M 1608.5,419.5 C 1609.91,419.973 1610.57,420.973 1610.5,422.5C 1609.09,422.027 1608.43,421.027 1608.5,419.5 Z"/></g>
<g><path style="opacity:1" fill="#62b99d" d="M 1278.5,429.5 C 1279.87,429.343 1281.21,429.51 1282.5,430C 1287.08,434.074 1291.08,438.574 1294.5,443.5C 1288.41,439.774 1283.08,435.107 1278.5,429.5 Z"/></g>
<g><path style="opacity:0.412" fill="#133e30" d="M 119.5,434.5 C 119.573,436.027 118.906,437.027 117.5,437.5C 117.427,435.973 118.094,434.973 119.5,434.5 Z"/></g>
<g><path style="opacity:0.412" fill="#133e30" d="M 1617.5,434.5 C 1618.91,434.973 1619.57,435.973 1619.5,437.5C 1618.09,437.027 1617.43,436.027 1617.5,434.5 Z"/></g>
<g><path style="opacity:1" fill="#88cbb6" d="M 1294.5,443.5 C 1304.41,451.909 1313.91,460.909 1323,470.5C 1323.46,471.094 1323.63,471.761 1323.5,472.5C 1313.5,463.167 1303.83,453.5 1294.5,443.5 Z"/></g>
<g><path style="opacity:1" fill="#a3d7c7" d="M 899.5,464.5 C 904.167,465.167 908.833,465.833 913.5,466.5C 878.848,464.396 844.181,464.063 809.5,465.5C 806.833,465.5 804.167,465.5 801.5,465.5C 805.647,464.675 809.981,464.175 814.5,464C 842.85,463.218 871.183,463.384 899.5,464.5 Z"/></g>
<g><path style="opacity:1" fill="#dcf0e9" d="M 899.5,464.5 C 910.518,464.557 921.518,465.057 932.5,466C 938.09,466.594 943.424,467.761 948.5,469.5C 946.833,469.5 945.167,469.5 943.5,469.5C 942.5,469.5 941.5,469.5 940.5,469.5C 935.731,468.111 930.731,467.444 925.5,467.5C 922.167,467.5 918.833,467.5 915.5,467.5C 915.167,467.5 914.833,467.5 914.5,467.5C 914.5,466.833 914.167,466.5 913.5,466.5C 908.833,465.833 904.167,465.167 899.5,464.5 Z"/></g>
<g><path style="opacity:1" fill="#26a17b" d="M 914.5,467.5 C 914.833,467.5 915.167,467.5 915.5,467.5C 943.075,471.345 970.741,475.345 998.5,479.5C 1001.17,479.5 1003.83,479.5 1006.5,479.5C 1011.29,481.599 1016.29,483.432 1021.5,485C 1029.43,487.145 1037.43,488.978 1045.5,490.5C 1055.23,493.967 1064.9,497.634 1074.5,501.5C 1077.72,503.94 1081.39,505.607 1085.5,506.5C 1087.44,507.15 1089.44,507.483 1091.5,507.5C 1099.78,512.305 1108.44,516.638 1117.5,520.5C 1124.05,523.56 1130.38,527.06 1136.5,531C 1137.93,532.886 1139.6,534.553 1141.5,536C 1145.52,538.04 1149.52,540.04 1153.5,542C 1156.77,546.105 1160.77,549.272 1165.5,551.5C 1166.58,553.587 1168.25,554.92 1170.5,555.5C 1173.54,558.54 1176.87,561.206 1180.5,563.5C 1187.5,571.167 1194.83,578.5 1202.5,585.5C 1212.81,596.142 1221.64,607.809 1229,620.5C 1232.08,625.037 1235.42,629.37 1239,633.5C 1239.47,637.11 1240.97,640.11 1243.5,642.5C 1245.82,647.803 1248.15,653.136 1250.5,658.5C 1250.5,659.5 1250.5,660.5 1250.5,661.5C 1085.17,661.5 919.833,661.5 754.5,661.5C 754.815,598.148 754.482,534.815 753.5,471.5C 764.747,469.621 776.08,468.621 787.5,468.5C 829.814,466.246 872.147,465.913 914.5,467.5 Z"/></g>
<g><path style="opacity:1" fill="#42ac8b" d="M 913.5,466.5 C 914.167,466.5 914.5,466.833 914.5,467.5C 872.147,465.913 829.814,466.246 787.5,468.5C 794.821,467.39 802.154,466.39 809.5,465.5C 844.181,464.063 878.848,464.396 913.5,466.5 Z"/></g>
<g><path style="opacity:1" fill="#bce2d6" d="M 769.5,467.5 C 763.709,468.979 757.709,469.979 751.5,470.5C 752.514,469.235 754.014,468.569 756,468.5C 760.479,467.836 764.979,467.502 769.5,467.5 Z"/></g>
<g><path style="opacity:1" fill="#80c7b1" d="M 801.5,465.5 C 804.167,465.5 806.833,465.5 809.5,465.5C 802.154,466.39 794.821,467.39 787.5,468.5C 776.08,468.621 764.747,469.621 753.5,471.5C 752.503,491.993 752.169,512.66 752.5,533.5C 752.5,576.833 752.5,620.167 752.5,663.5C 751.501,599.335 751.168,535.002 751.5,470.5C 757.709,469.979 763.709,468.979 769.5,467.5C 780.091,466.503 790.757,465.836 801.5,465.5 Z"/></g>
<g><path style="opacity:1" fill="#88cbb6" d="M 925.5,467.5 C 930.731,467.444 935.731,468.111 940.5,469.5C 935.25,469.698 930.25,469.031 925.5,467.5 Z"/></g>
<g><path style="opacity:1" fill="#8fceba" d="M 943.5,469.5 C 945.167,469.5 946.833,469.5 948.5,469.5C 951.373,469.802 954.039,470.469 956.5,471.5C 951.9,471.72 947.567,471.054 943.5,469.5 Z"/></g>
<g><path style="opacity:1" fill="#44ad8c" d="M 915.5,467.5 C 918.833,467.5 922.167,467.5 925.5,467.5C 930.25,469.031 935.25,469.698 940.5,469.5C 941.5,469.5 942.5,469.5 943.5,469.5C 947.567,471.054 951.9,471.72 956.5,471.5C 957.5,471.5 958.5,471.5 959.5,471.5C 971.232,474.376 983.232,476.376 995.5,477.5C 996.5,478.167 997.5,478.833 998.5,479.5C 970.741,475.345 943.075,471.345 915.5,467.5 Z"/></g>
<g><path style="opacity:1" fill="#abdacb" d="M 959.5,471.5 C 971.801,472.439 983.801,474.439 995.5,477.5C 983.232,476.376 971.232,474.376 959.5,471.5 Z"/></g>
<g><path style="opacity:1" fill="#cfeae2" d="M 1006.5,479.5 C 1009.19,479.336 1011.85,479.503 1014.5,480C 1022.7,482.799 1031.03,485.133 1039.5,487C 1042.02,487.586 1044.02,488.753 1045.5,490.5C 1037.43,488.978 1029.43,487.145 1021.5,485C 1016.29,483.432 1011.29,481.599 1006.5,479.5 Z"/></g>
<g><path style="opacity:1" fill="#70c0a7" d="M 1074.5,501.5 C 1078.7,502.223 1082.37,503.89 1085.5,506.5C 1081.39,505.607 1077.72,503.94 1074.5,501.5 Z"/></g>
<g><path style="opacity:1" fill="#cae8df" d="M 1091.5,507.5 C 1101.08,510.292 1109.75,514.625 1117.5,520.5C 1108.44,516.638 1099.78,512.305 1091.5,507.5 Z"/></g>
<g><path style="opacity:1" fill="#c8e7dd" d="M 1352.5,509.5 C 1356.22,513.92 1359.72,518.586 1363,523.5C 1363.49,524.793 1363.66,526.127 1363.5,527.5C 1359.78,523.08 1356.28,518.414 1353,513.5C 1352.51,512.207 1352.34,510.873 1352.5,509.5 Z"/></g>
<g><path style="opacity:1" fill="#a9d9ca" d="M 1165.5,551.5 C 1167.75,552.08 1169.42,553.413 1170.5,555.5C 1168.25,554.92 1166.58,553.587 1165.5,551.5 Z"/></g>
<g><path style="opacity:1" fill="#62ba9d" d="M 1368.5,533.5 C 1371.27,536.104 1373.93,538.938 1376.5,542C 1379.95,550.065 1383.62,557.898 1387.5,565.5C 1380.65,555.134 1374.32,544.467 1368.5,533.5 Z"/></g>
<g><path style="opacity:1" fill="#b6dfd2" d="M 1180.5,563.5 C 1181.24,563.369 1181.91,563.536 1182.5,564C 1189.76,570.756 1196.43,577.922 1202.5,585.5C 1194.83,578.5 1187.5,571.167 1180.5,563.5 Z"/></g>
<g><path style="opacity:0.922" fill="#164d3b" d="M 49.5,584.5 C 49.8799,586.698 49.2132,588.365 47.5,589.5C 47.7959,587.597 48.4625,585.93 49.5,584.5 Z"/></g>
<g><path style="opacity:0.922" fill="#164d3b" d="M 1687.5,584.5 C 1688.54,585.93 1689.2,587.597 1689.5,589.5C 1687.79,588.365 1687.12,586.698 1687.5,584.5 Z"/></g>
<g><path style="opacity:1" fill="#38a886" d="M 584.5,310.5 C 584.185,427.5 583.852,544.5 583.5,661.5C 573.319,661.173 563.319,661.506 553.5,662.5C 540.526,663.401 527.526,663.735 514.5,663.5C 462.496,663.633 410.496,663.3 358.5,662.5C 356.833,662.5 355.167,662.5 353.5,662.5C 349.5,661.833 345.5,661.167 341.5,660.5C 421.832,663.145 502.165,663.145 582.5,660.5C 582.333,547.5 582.5,434.5 583,321.5C 583.177,317.644 583.677,313.977 584.5,310.5 Z"/></g>
<g><path style="opacity:1" fill="#c0e3d8" d="M 1397.5,586.5 C 1400.23,589.295 1401.9,592.628 1402.5,596.5C 1399.77,593.705 1398.1,590.372 1397.5,586.5 Z"/></g>
<g><path style="opacity:0.898" fill="#154b39" d="M 41.5,608.5 C 41.8799,610.698 41.2132,612.365 39.5,613.5C 39.7959,611.597 40.4625,609.93 41.5,608.5 Z"/></g>
<g><path style="opacity:0.898" fill="#154b39" d="M 1695.5,608.5 C 1696.54,609.93 1697.2,611.597 1697.5,613.5C 1695.79,612.365 1695.12,610.698 1695.5,608.5 Z"/></g>
<g><path style="opacity:1" fill="#6abea4" d="M 584.5,310.5 C 584.833,310.5 585.167,310.5 585.5,310.5C 585.303,427.834 584.969,545.167 584.5,662.5C 574.167,662.5 563.833,662.5 553.5,662.5C 563.319,661.506 573.319,661.173 583.5,661.5C 583.852,544.5 584.185,427.5 584.5,310.5 Z"/></g>
<g><path style="opacity:0.929" fill="#185943" d="M 35.5,628.5 C 35.5905,631.152 34.9238,633.485 33.5,635.5C 33.4095,632.848 34.0762,630.515 35.5,628.5 Z"/></g>
<g><path style="opacity:0.929" fill="#185943" d="M 1701.5,628.5 C 1702.92,630.515 1703.59,632.848 1703.5,635.5C 1702.08,633.485 1701.41,631.152 1701.5,628.5 Z"/></g>
<g><path style="opacity:0.929" fill="#175742" d="M 33.5,635.5 C 33.5905,638.152 32.9238,640.485 31.5,642.5C 31.4095,639.848 32.0762,637.515 33.5,635.5 Z"/></g>
<g><path style="opacity:1" fill="#64ba9e" d="M 1417.5,627.5 C 1422.99,631.684 1425.32,637.351 1424.5,644.5C 1421.93,639.015 1419.6,633.349 1417.5,627.5 Z"/></g>
<g><path style="opacity:0.929" fill="#175742" d="M 1703.5,635.5 C 1704.92,637.515 1705.59,639.848 1705.5,642.5C 1704.08,640.485 1703.41,638.152 1703.5,635.5 Z"/></g>
<g><path style="opacity:1" fill="#bce2d6" d="M 1243.5,642.5 C 1248.08,647.651 1251.08,653.651 1252.5,660.5C 1252.17,660.5 1251.83,660.5 1251.5,660.5C 1251.67,659.508 1251.34,658.842 1250.5,658.5C 1248.15,653.136 1245.82,647.803 1243.5,642.5 Z"/></g>
<g><path style="opacity:0.725" fill="#165540" d="M 30.5,646.5 C 30.5905,649.152 29.9238,651.485 28.5,653.5C 28.4095,650.848 29.0762,648.515 30.5,646.5 Z"/></g>
<g><path style="opacity:0.733" fill="#165540" d="M 1706.5,646.5 C 1707.92,648.515 1708.59,650.848 1708.5,653.5C 1707.08,651.485 1706.41,649.152 1706.5,646.5 Z"/></g>
<g><path style="opacity:1" fill="#57b597" d="M 292.5,656.5 C 299.175,656.334 305.842,656.5 312.5,657C 319.912,658.607 327.245,659.773 334.5,660.5C 331.167,660.5 327.833,660.5 324.5,660.5C 313.582,660.078 302.916,658.745 292.5,656.5 Z"/></g>
<g><path style="opacity:1" fill="#88cbb6" d="M 324.5,660.5 C 327.833,660.5 331.167,660.5 334.5,660.5C 336.833,660.5 339.167,660.5 341.5,660.5C 345.5,661.167 349.5,661.833 353.5,662.5C 343.625,662.685 333.958,662.019 324.5,660.5 Z"/></g>
<g><path style="opacity:1" fill="#36a784" d="M 753.5,471.5 C 754.482,534.815 754.815,598.148 754.5,661.5C 919.833,661.5 1085.17,661.5 1250.5,661.5C 1250.5,660.5 1250.5,659.5 1250.5,658.5C 1251.34,658.842 1251.67,659.508 1251.5,660.5C 1085.84,662.499 919.837,663.165 753.5,662.5C 753.832,619.33 753.499,576.33 752.5,533.5C 752.169,512.66 752.503,491.993 753.5,471.5 Z"/></g>
<g><path style="opacity:1" fill="#67bca2" d="M 752.5,533.5 C 753.499,576.33 753.832,619.33 753.5,662.5C 919.837,663.165 1085.84,662.499 1251.5,660.5C 1251.83,660.5 1252.17,660.5 1252.5,660.5C 1252.5,661.5 1252.5,662.5 1252.5,663.5C 1085.83,663.5 919.167,663.5 752.5,663.5C 752.5,620.167 752.5,576.833 752.5,533.5 Z"/></g>
<g><path style="opacity:1" fill="#62ba9d" d="M 272.5,655.5 C 276.592,659.258 279.926,663.591 282.5,668.5C 278.546,666.38 275.379,663.38 273,659.5C 272.51,658.207 272.343,656.873 272.5,655.5 Z"/></g>
<g><path style="opacity:1" fill="#71c1a8" d="M 358.5,662.5 C 410.496,663.3 462.496,663.633 514.5,663.5C 471.003,664.499 427.337,664.832 383.5,664.5C 375.036,663.89 366.703,663.224 358.5,662.5 Z"/></g>
<g><path style="opacity:1" fill="#b8e0d4" d="M 553.5,662.5 C 563.833,662.5 574.167,662.5 584.5,662.5C 564.345,663.801 544.012,664.634 523.5,665C 476.665,665.832 429.998,665.665 383.5,664.5C 427.337,664.832 471.003,664.499 514.5,663.5C 527.526,663.735 540.526,663.401 553.5,662.5 Z"/></g>
<g><path style="opacity:1" fill="#ddf0ea" d="M 1252.5,660.5 C 1254.71,661.455 1255.04,662.955 1253.5,665C 1170,665.167 1086.5,665.333 1003,665.5C 919.164,665.5 835.664,664.833 752.5,663.5C 919.167,663.5 1085.83,663.5 1252.5,663.5C 1252.5,662.5 1252.5,661.5 1252.5,660.5 Z"/></g>
<g><path style="opacity:1" fill="#7cc6ae" d="M 298.5,688.5 C 301.5,691.167 304.5,693.833 307.5,696.5C 312.167,701.5 316.833,706.5 321.5,711.5C 320.761,711.631 320.094,711.464 319.5,711C 311.906,703.911 304.906,696.411 298.5,688.5 Z"/></g>
<g><path style="opacity:1" fill="#d1ebe3" d="M 307.5,696.5 C 316.446,703.778 324.779,711.778 332.5,720.5C 328.562,717.902 324.895,714.902 321.5,711.5C 316.833,706.5 312.167,701.5 307.5,696.5 Z"/></g>
<g><path style="opacity:1" fill="#74c1a8" d="M 1438.5,685.5 C 1439.67,689.167 1441.51,692.501 1444,695.5C 1445.79,704.454 1447.29,713.454 1448.5,722.5C 1447.25,719.913 1446.25,717.246 1445.5,714.5C 1443.64,704.733 1441.31,695.067 1438.5,685.5 Z"/></g>
<g><path style="opacity:1" fill="#76c3aa" d="M 1452.5,741.5 C 1453.12,741.611 1453.62,741.944 1454,742.5C 1455.88,750.071 1457.05,757.738 1457.5,765.5C 1455.34,757.723 1453.68,749.723 1452.5,741.5 Z"/></g>
<g><path style="opacity:1" fill="#c1e3d8" d="M 365.5,745.5 C 369.212,745.877 372.212,747.544 374.5,750.5C 370.778,750.139 367.778,748.472 365.5,745.5 Z"/></g>
<g><path style="opacity:1" fill="#daefe8" d="M 1445.5,714.5 C 1446.25,717.246 1447.25,719.913 1448.5,722.5C 1449.83,728.833 1451.17,735.167 1452.5,741.5C 1453.68,749.723 1455.34,757.723 1457.5,765.5C 1457.95,770.863 1458.62,776.196 1459.5,781.5C 1459.91,787.161 1460.24,792.828 1460.5,798.5C 1456.27,770.367 1451.27,742.367 1445.5,714.5 Z"/></g>
<g><path style="opacity:1" fill="#b7dfd2" d="M 382.5,756.5 C 387.184,757.196 391.184,759.196 394.5,762.5C 389.962,761.564 385.962,759.564 382.5,756.5 Z"/></g>
<g><path style="opacity:1" fill="#9cd3c2" d="M 411.5,772.5 C 412.873,772.343 414.207,772.51 415.5,773C 418.752,774.566 421.752,776.399 424.5,778.5C 419.707,777.267 415.374,775.267 411.5,772.5 Z"/></g>
<g><path style="opacity:1" fill="#a0d5c4" d="M 425.5,778.5 C 430.308,779.484 434.642,781.484 438.5,784.5C 437.127,784.657 435.793,784.49 434.5,784C 431.404,782.128 428.404,780.295 425.5,778.5 Z"/></g>
<g><path style="opacity:1" fill="#80c7b0" d="M 450.5,789.5 C 452.898,789.259 454.898,789.926 456.5,791.5C 462.247,793.638 467.914,795.971 473.5,798.5C 467.322,797.386 461.322,795.553 455.5,793C 453.767,791.811 452.1,790.644 450.5,789.5 Z"/></g>
<g><path style="opacity:1" fill="#d1ebe3" d="M 456.5,791.5 C 463.192,792.649 469.692,794.649 476,797.5C 477.03,797.836 477.53,798.503 477.5,799.5C 475.901,799.768 474.568,799.434 473.5,798.5C 467.914,795.971 462.247,793.638 456.5,791.5 Z"/></g>
<g><path style="opacity:1" fill="#c5e6db" d="M 477.5,799.5 C 485.252,800.64 492.585,802.973 499.5,806.5C 491.966,804.543 484.633,802.21 477.5,799.5 Z"/></g>
<g><path style="opacity:1" fill="#cce9df" d="M 499.5,806.5 C 502.187,806.336 504.854,806.503 507.5,807C 518.783,810.817 530.117,813.984 541.5,816.5C 526.892,815.347 512.892,812.014 499.5,806.5 Z"/></g>
<g><path style="opacity:1" fill="#bde2d6" d="M 1459.5,781.5 C 1461.04,787.953 1462.04,794.62 1462.5,801.5C 1466.18,839.415 1467.35,877.415 1466,915.5C 1465.83,921.016 1465.33,926.349 1464.5,931.5C 1466.78,887.046 1465.44,842.713 1460.5,798.5C 1460.24,792.828 1459.91,787.161 1459.5,781.5 Z"/></g>
<g><path style="opacity:1" fill="#a8d9c9" d="M 541.5,816.5 C 560.792,818.83 580.126,820.83 599.5,822.5C 601.833,823.167 604.167,823.833 606.5,824.5C 592.859,823.145 579.192,821.978 565.5,821C 557.311,819.805 549.311,818.305 541.5,816.5 Z"/></g>
<g><path style="opacity:1" fill="#d0eae2" d="M 599.5,822.5 C 621.486,823.997 643.486,825.497 665.5,827C 875.502,826.834 1085.17,827.667 1294.5,829.5C 1087.83,829.667 881.166,829.5 674.5,829C 652.502,827.389 630.502,825.889 608.5,824.5C 607.833,824.5 607.167,824.5 606.5,824.5C 604.167,823.833 601.833,823.167 599.5,822.5 Z"/></g>
<g><path style="opacity:1" fill="#60ba9e" d="M 608.5,824.5 C 630.502,825.889 652.502,827.389 674.5,829C 881.166,829.5 1087.83,829.667 1294.5,829.5C 1295.48,832.625 1295.81,835.958 1295.5,839.5C 1295.5,842.167 1295.5,844.833 1295.5,847.5C 1294.81,842.1 1294.15,836.6 1293.5,831C 1086.83,830.667 880.167,830.333 673.5,830C 653.168,828.738 632.835,827.571 612.5,826.5C 611.005,826.011 609.671,825.345 608.5,824.5 Z"/></g>
<g><path style="opacity:1" fill="#35a784" d="M 612.5,826.5 C 632.835,827.571 653.168,828.738 673.5,830C 880.167,830.333 1086.83,830.667 1293.5,831C 1294.15,836.6 1294.81,842.1 1295.5,847.5C 1296.49,852.64 1296.82,857.974 1296.5,863.5C 1296.5,873.5 1296.5,883.5 1296.5,893.5C 1295.08,872.992 1293.75,852.325 1292.5,831.5C 1085.17,831.667 877.833,831.5 670.5,831C 650.973,830.039 631.639,828.539 612.5,826.5 Z"/></g>
<g><path style="opacity:1" fill="#51b293" d="M 1462.5,801.5 C 1464.05,811.107 1465.55,820.774 1467,830.5C 1468.89,861.169 1468.89,891.835 1467,922.5C 1466.77,929.056 1465.93,935.389 1464.5,941.5C 1464.5,939.5 1464.5,937.5 1464.5,935.5C 1464.5,934.167 1464.5,932.833 1464.5,931.5C 1465.33,926.349 1465.83,921.016 1466,915.5C 1467.35,877.415 1466.18,839.415 1462.5,801.5 Z"/></g>
<g><path style="opacity:1" fill="#c5e6db" d="M 1295.5,839.5 C 1297.08,846.6 1297.91,853.933 1298,861.5C 1298.77,887.514 1298.44,913.514 1297,939.5C 1296.8,941.382 1296.3,943.048 1295.5,944.5C 1297.5,917.361 1297.84,890.361 1296.5,863.5C 1296.82,857.974 1296.49,852.64 1295.5,847.5C 1295.5,844.833 1295.5,842.167 1295.5,839.5 Z"/></g>
<g><path style="opacity:1" fill="#62ba9e" d="M 1296.5,863.5 C 1297.84,890.361 1297.5,917.361 1295.5,944.5C 1294.68,947.764 1294.34,951.098 1294.5,954.5C 1293.83,955.5 1293.17,956.5 1292.5,957.5C 1294.32,936.198 1295.65,914.865 1296.5,893.5C 1296.5,883.5 1296.5,873.5 1296.5,863.5 Z"/></g>
<g><path style="opacity:1" fill="#69bda2" d="M 479.5,954.5 C 476.123,954.041 472.789,953.374 469.5,952.5C 469.622,955.292 470.956,957.292 473.5,958.5C 473.5,959.167 473.5,959.833 473.5,960.5C 469.576,958.248 467.243,954.915 466.5,950.5C 471.289,950.654 475.622,951.987 479.5,954.5 Z"/></g>
<g><path style="opacity:1" fill="#67bda2" d="M 496.5,956.5 C 513.694,957.717 530.694,959.384 547.5,961.5C 536.503,960.792 525.503,960.125 514.5,959.5C 508.335,958.695 502.335,957.695 496.5,956.5 Z"/></g>
<g><path style="opacity:1" fill="#d8eee7" d="M 479.5,954.5 C 485.085,955.726 490.752,956.393 496.5,956.5C 502.335,957.695 508.335,958.695 514.5,959.5C 516.833,960.167 519.167,960.833 521.5,961.5C 505.306,960.71 489.306,958.71 473.5,955.5C 473.5,956.5 473.5,957.5 473.5,958.5C 470.956,957.292 469.622,955.292 469.5,952.5C 472.789,953.374 476.123,954.041 479.5,954.5 Z"/></g>
<g><path style="opacity:1" fill="#a2d6c6" d="M 1464.5,935.5 C 1464.5,937.5 1464.5,939.5 1464.5,941.5C 1464.41,947.516 1464.07,953.516 1463.5,959.5C 1462.83,961.833 1462.17,964.167 1461.5,966.5C 1461.67,955.937 1462.67,945.604 1464.5,935.5 Z"/></g>
<g><path style="opacity:1" fill="#bae1d5" d="M 514.5,959.5 C 525.503,960.125 536.503,960.792 547.5,961.5C 548.833,961.5 550.167,961.5 551.5,961.5C 566.183,962.638 580.85,963.972 595.5,965.5C 590.167,965.5 584.833,965.5 579.5,965.5C 560.206,963.947 540.872,962.614 521.5,961.5C 519.167,960.833 516.833,960.167 514.5,959.5 Z"/></g>
<g><path style="opacity:1" fill="#3fab8a" d="M 1292.5,960.5 C 1291.96,962.117 1291.63,963.784 1291.5,965.5C 1265.5,965.5 1239.5,965.5 1213.5,965.5C 1019.67,965.833 825.999,965.5 632.5,964.5C 851.833,964.5 1071.17,964.5 1290.5,964.5C 1290.23,962.62 1290.9,961.287 1292.5,960.5 Z"/></g>
<g><path style="opacity:1" fill="#73c2a9" d="M 551.5,961.5 C 578.482,962.988 605.482,963.988 632.5,964.5C 825.999,965.5 1019.67,965.833 1213.5,965.5C 1213.5,965.833 1213.5,966.167 1213.5,966.5C 1014.49,966.816 815.494,966.483 616.5,965.5C 609.5,965.5 602.5,965.5 595.5,965.5C 580.85,963.972 566.183,962.638 551.5,961.5 Z"/></g>
<g><path style="opacity:1" fill="#a0d6c5" d="M 1294.5,954.5 C 1294.22,958.188 1293.72,961.855 1293,965.5C 1292.33,966.252 1291.5,966.586 1290.5,966.5C 1264.83,966.5 1239.17,966.5 1213.5,966.5C 1213.5,966.167 1213.5,965.833 1213.5,965.5C 1239.5,965.5 1265.5,965.5 1291.5,965.5C 1291.63,963.784 1291.96,962.117 1292.5,960.5C 1292.5,959.5 1292.5,958.5 1292.5,957.5C 1293.17,956.5 1293.83,955.5 1294.5,954.5 Z"/></g>
<g><path style="opacity:1" fill="#c0e4d9" d="M 616.5,965.5 C 815.494,966.483 1014.49,966.816 1213.5,966.5C 1239.17,966.5 1264.83,966.5 1290.5,966.5C 1286.03,967.486 1281.36,967.819 1276.5,967.5C 1060.17,967.667 843.833,967.5 627.5,967C 623.644,966.823 619.977,966.323 616.5,965.5 Z"/></g>
<g><path style="opacity:1" fill="#8dcdb9" d="M 476.5,964.5 C 478.587,965.585 479.92,967.251 480.5,969.5C 478.413,968.415 477.08,966.749 476.5,964.5 Z"/></g>
<g><path style="opacity:1" fill="#eff8f5" d="M 579.5,965.5 C 584.833,965.5 590.167,965.5 595.5,965.5C 602.5,965.5 609.5,965.5 616.5,965.5C 619.977,966.323 623.644,966.823 627.5,967C 843.833,967.5 1060.17,967.667 1276.5,967.5C 1058.33,968.666 840,968.833 621.5,968C 607.32,967.555 593.32,966.721 579.5,965.5 Z"/></g>
<g><path style="opacity:1" fill="#5eb89b" d="M 1463.5,959.5 C 1463.28,978.321 1460.95,996.654 1456.5,1014.5C 1458.17,998.499 1459.83,982.499 1461.5,966.5C 1462.17,964.167 1462.83,961.833 1463.5,959.5 Z"/></g>
<g><path style="opacity:1" fill="#78c4ac" d="M 493.5,985.5 C 501.167,992.5 508.5,999.833 515.5,1007.5C 514.761,1007.63 514.094,1007.46 513.5,1007C 506.239,1000.24 499.572,993.078 493.5,985.5 Z"/></g>
<g><path style="opacity:1" fill="#77c3ab" d="M 1456.5,1014.5 C 1455.66,1023.2 1454.5,1031.86 1453,1040.5C 1452.72,1041.42 1452.22,1042.08 1451.5,1042.5C 1452.75,1032.96 1454.42,1023.63 1456.5,1014.5 Z"/></g>
<g><path style="opacity:1" fill="#c9e7de" d="M 558.5,1041.5 C 559.873,1041.34 561.207,1041.51 562.5,1042C 568.077,1045.61 573.41,1049.44 578.5,1053.5C 571.101,1050.78 564.434,1046.78 558.5,1041.5 Z"/></g>
<g><path style="opacity:1" fill="#d1ebe3" d="M 1449.5,1048.5 C 1448.75,1056.62 1446.75,1064.28 1443.5,1071.5C 1444.13,1063.3 1446.13,1055.64 1449.5,1048.5 Z"/></g>
<g><path style="opacity:1" fill="#ceeae1" d="M 601.5,1066.5 C 608.038,1068.44 614.038,1071.44 619.5,1075.5C 612.903,1073.53 606.903,1070.53 601.5,1066.5 Z"/></g>
<g><path style="opacity:1" fill="#c8e7dd" d="M 1443.5,1071.5 C 1443.2,1074.52 1442.7,1077.52 1442,1080.5C 1439.5,1087.55 1437,1094.55 1434.5,1101.5C 1436.35,1092.7 1438.52,1084.04 1441,1075.5C 1441.93,1074.14 1442.77,1072.81 1443.5,1071.5 Z"/></g>
<g><path style="opacity:1" fill="#b5ded1" d="M 656.5,1090.5 C 661.703,1091.01 666.37,1092.68 670.5,1095.5C 665.431,1094.72 660.764,1093.05 656.5,1090.5 Z"/></g>
<g><path style="opacity:1" fill="#d2ebe3" d="M 670.5,1095.5 C 678.985,1095.95 686.985,1097.95 694.5,1101.5C 693.167,1101.5 691.833,1101.5 690.5,1101.5C 683.446,1100.48 676.779,1098.48 670.5,1095.5 Z"/></g>
<g><path style="opacity:1" fill="#89cbb6" d="M 690.5,1101.5 C 691.833,1101.5 693.167,1101.5 694.5,1101.5C 697.392,1103.11 700.392,1104.45 703.5,1105.5C 698.711,1105.35 694.378,1104.01 690.5,1101.5 Z"/></g>
<g><path style="opacity:1" fill="#c9e7de" d="M 707.5,1105.5 C 710.518,1105.34 713.518,1105.5 716.5,1106C 727.168,1109.75 738.168,1112.08 749.5,1113C 753.028,1113.95 756.361,1115.11 759.5,1116.5C 741.703,1114.54 724.37,1110.87 707.5,1105.5 Z"/></g>
<g><path style="opacity:1" fill="#cbe8df" d="M 1434.5,1101.5 C 1431.93,1110.88 1428.6,1119.88 1424.5,1128.5C 1425.37,1118.45 1428.71,1109.45 1434.5,1101.5 Z"/></g>
<g><path style="opacity:1" fill="#f0f8f6" d="M 801.5,1121.5 C 814.844,1121.67 828.177,1122.17 841.5,1123C 975.167,1123.33 1108.83,1123.67 1242.5,1124C 1243.79,1125.29 1243.79,1126.46 1242.5,1127.5C 1242.59,1126.5 1242.25,1125.67 1241.5,1125C 1103.5,1124.67 965.5,1124.33 827.5,1124C 818.666,1123.32 809.999,1122.48 801.5,1121.5 Z"/></g>
<g><path style="opacity:1" fill="#c3e5da" d="M 759.5,1116.5 C 773.468,1118.43 787.468,1120.09 801.5,1121.5C 809.999,1122.48 818.666,1123.32 827.5,1124C 965.5,1124.33 1103.5,1124.67 1241.5,1125C 1242.25,1125.67 1242.59,1126.5 1242.5,1127.5C 1241.19,1129.47 1239.53,1131.14 1237.5,1132.5C 1237.5,1132.17 1237.5,1131.83 1237.5,1131.5C 1238.17,1130.5 1238.83,1129.5 1239.5,1128.5C 1240.4,1127.79 1240.74,1126.79 1240.5,1125.5C 1102.83,1125.5 965.167,1125.5 827.5,1125.5C 810.524,1124.04 793.524,1122.37 776.5,1120.5C 770.885,1118.91 765.219,1117.58 759.5,1116.5 Z"/></g>
<g><path style="opacity:1" fill="#7bc5ae" d="M 827.5,1125.5 C 965.167,1125.5 1102.83,1125.5 1240.5,1125.5C 1240.74,1126.79 1240.4,1127.79 1239.5,1128.5C 1102.34,1126.83 965.003,1125.83 827.5,1125.5 Z"/></g>
<g><path style="opacity:1" fill="#41ac8b" d="M 776.5,1120.5 C 793.524,1122.37 810.524,1124.04 827.5,1125.5C 965.003,1125.83 1102.34,1126.83 1239.5,1128.5C 1238.83,1129.5 1238.17,1130.5 1237.5,1131.5C 1237.17,1131.5 1236.83,1131.5 1236.5,1131.5C 1236.5,1130.17 1236.5,1128.83 1236.5,1127.5C 1099.5,1127.67 962.5,1127.5 825.5,1127C 809.431,1126.07 793.431,1124.4 777.5,1122C 776.944,1121.62 776.611,1121.12 776.5,1120.5 Z"/></g>
<g><path style="opacity:1" fill="#70bfa5" d="M 1423.5,1130.5 C 1423.97,1134.42 1422.97,1137.75 1420.5,1140.5C 1420.5,1139.17 1420.5,1137.83 1420.5,1136.5C 1420.75,1134.03 1421.75,1132.03 1423.5,1130.5 Z"/></g>
<g><path style="opacity:1" fill="#cce8df" d="M 1420.5,1136.5 C 1420.5,1137.83 1420.5,1139.17 1420.5,1140.5C 1418.35,1144.01 1416.35,1147.68 1414.5,1151.5C 1413.83,1151.83 1413.17,1152.17 1412.5,1152.5C 1414.19,1147.45 1416.19,1142.45 1418.5,1137.5C 1418.96,1136.7 1419.62,1136.37 1420.5,1136.5 Z"/></g>
<g><path style="opacity:1" fill="#79c4ac" d="M 1414.5,1151.5 C 1412.17,1160.49 1408.5,1168.82 1403.5,1176.5C 1406.49,1168.52 1409.49,1160.52 1412.5,1152.5C 1413.17,1152.17 1413.83,1151.83 1414.5,1151.5 Z"/></g>
<g><path style="opacity:1" fill="#91cfbb" d="M 1236.5,1131.5 C 1236.83,1131.5 1237.17,1131.5 1237.5,1131.5C 1237.5,1131.83 1237.5,1132.17 1237.5,1132.5C 1216.5,1160.34 1192.83,1185.84 1166.5,1209C 1159.4,1213.54 1152.73,1218.54 1146.5,1224C 1140.37,1226.57 1134.37,1229.4 1128.5,1232.5C 1147,1221.74 1164.34,1209.24 1180.5,1195C 1200.49,1174.85 1219.16,1153.69 1236.5,1131.5 Z"/></g>
<g><path style="opacity:1" fill="#b2ddd0" d="M 1096.5,1248.5 C 1091.85,1250.98 1086.85,1252.64 1081.5,1253.5C 1086.08,1250.86 1091.08,1249.19 1096.5,1248.5 Z"/></g>
<g><path style="opacity:1" fill="#c1e4d8" d="M 1081.5,1253.5 C 1079.71,1254.86 1077.71,1256.02 1075.5,1257C 1070.76,1257.53 1066.09,1258.36 1061.5,1259.5C 1067.8,1256.59 1074.47,1254.59 1081.5,1253.5 Z"/></g>
<g><path style="opacity:1" fill="#82c8b2" d="M 1022.5,1265.5 C 1024.5,1265.5 1026.5,1265.5 1028.5,1265.5C 1016.25,1269.25 1003.58,1271.25 990.5,1271.5C 1001.31,1270.27 1011.98,1268.27 1022.5,1265.5 Z"/></g>
<g><path style="opacity:1" fill="#7cc6af" d="M 597.5,1271.5 C 610.5,1271.5 623.5,1271.5 636.5,1271.5C 658.824,1272.74 681.157,1273.74 703.5,1274.5C 676.831,1274.31 650.164,1273.98 623.5,1273.5C 622.833,1273.5 622.167,1273.5 621.5,1273.5C 613.5,1272.83 605.5,1272.17 597.5,1271.5 Z"/></g>
<g><path style="opacity:1" fill="#d2ebe3" d="M 1049.5,1262.5 C 1024.21,1270.24 998.211,1273.91 971.5,1273.5C 977.666,1272.6 984,1271.94 990.5,1271.5C 1003.58,1271.25 1016.25,1269.25 1028.5,1265.5C 1035.48,1264.28 1042.48,1263.28 1049.5,1262.5 Z"/></g>
<g><path style="opacity:1" fill="#38a885" d="M 1022.5,1265.5 C 1011.98,1268.27 1001.31,1270.27 990.5,1271.5C 984,1271.94 977.666,1272.6 971.5,1273.5C 971.167,1273.5 970.833,1273.5 970.5,1273.5C 965.167,1273.5 959.833,1273.5 954.5,1273.5C 872.173,1274.45 789.84,1274.79 707.5,1274.5C 706.167,1274.5 704.833,1274.5 703.5,1274.5C 681.157,1273.74 658.824,1272.74 636.5,1271.5C 736.157,1273.44 835.823,1273.94 935.5,1273C 964.652,1272.1 993.652,1269.6 1022.5,1265.5 Z"/></g>
<g><path style="opacity:1" fill="#dcefe9" d="M 623.5,1273.5 C 650.164,1273.98 676.831,1274.31 703.5,1274.5C 704.833,1274.5 706.167,1274.5 707.5,1274.5C 707.5,1274.83 707.5,1275.17 707.5,1275.5C 681.165,1275.67 654.831,1275.5 628.5,1275C 626.618,1274.8 624.952,1274.3 623.5,1273.5 Z"/></g>
<g><path style="opacity:1" fill="#6dbfa5" d="M 954.5,1273.5 C 949.833,1274.17 945.167,1274.83 940.5,1275.5C 940.167,1275.5 939.833,1275.5 939.5,1275.5C 862.833,1276.83 786.167,1276.83 709.5,1275.5C 708.833,1275.5 708.167,1275.5 707.5,1275.5C 707.5,1275.17 707.5,1274.83 707.5,1274.5C 789.84,1274.79 872.173,1274.45 954.5,1273.5 Z"/></g>
<g><path style="opacity:1" fill="#b2ded0" d="M 954.5,1273.5 C 959.833,1273.5 965.167,1273.5 970.5,1273.5C 960.717,1275.16 950.717,1275.83 940.5,1275.5C 945.167,1274.83 949.833,1274.17 954.5,1273.5 Z"/></g>
<g><path style="opacity:1" fill="#d1ebe3" d="M 709.5,1275.5 C 786.167,1276.83 862.833,1276.83 939.5,1275.5C 932.345,1276.33 925.011,1276.83 917.5,1277C 850.5,1277.67 783.5,1277.67 716.5,1277C 713.964,1276.81 711.631,1276.31 709.5,1275.5 Z"/></g>
<g><path style="opacity:0.918" fill="#194939" d="M 102.5,1283.5 C 104.048,1283.82 104.715,1284.82 104.5,1286.5C 103.599,1285.71 102.932,1284.71 102.5,1283.5 Z"/></g>
<g><path style="opacity:1" fill="#b9e0d4" d="M 585.5,1271.5 C 589.5,1271.5 593.5,1271.5 597.5,1271.5C 605.5,1272.17 613.5,1272.83 621.5,1273.5C 609.833,1273.5 598.167,1273.5 586.5,1273.5C 585.762,1328.17 585.096,1382.83 584.5,1437.5C 601.5,1437.5 618.5,1437.5 635.5,1437.5C 635.5,1437.83 635.5,1438.17 635.5,1438.5C 618.167,1438.5 600.833,1438.5 583.5,1438.5C 584.01,1382.83 584.676,1327.16 585.5,1271.5 Z"/></g>
<g><path style="opacity:1" fill="#a1d6c5" d="M 1372.5,1230.5 C 1367.1,1242.07 1360.27,1252.74 1352,1262.5C 1316.45,1303.73 1276.29,1339.56 1231.5,1370C 1226.94,1372.78 1222.27,1375.28 1217.5,1377.5C 1249.98,1356.21 1280.65,1332.37 1309.5,1306C 1333.75,1283.27 1354.75,1258.11 1372.5,1230.5 Z"/></g>
<g><path style="opacity:0.925" fill="#184838" d="M 128.5,1328.5 C 130.048,1328.82 130.715,1329.82 130.5,1331.5C 129.599,1330.71 128.932,1329.71 128.5,1328.5 Z"/></g>
<g><path style="opacity:0.922" fill="#184737" d="M 133.5,1336.5 C 135.048,1336.82 135.715,1337.82 135.5,1339.5C 134.599,1338.71 133.932,1337.71 133.5,1336.5 Z"/></g>
<g><path style="opacity:0.965" fill="#1a4e3d" d="M 135.5,1339.5 C 137.048,1339.82 137.715,1340.82 137.5,1342.5C 136.599,1341.71 135.932,1340.71 135.5,1339.5 Z"/></g>
<g><path style="opacity:1" fill="#cae8df" d="M 1205.5,1383.5 C 1202.57,1385.65 1199.57,1387.81 1196.5,1390C 1192.95,1390.88 1189.61,1392.04 1186.5,1393.5C 1184.88,1394.04 1183.22,1394.37 1181.5,1394.5C 1189.22,1390.51 1197.22,1386.85 1205.5,1383.5 Z"/></g>
<g><path style="opacity:1" fill="#86cab4" d="M 1186.5,1393.5 C 1182.83,1395.57 1179,1397.57 1175,1399.5C 1171.6,1400.96 1168.1,1401.96 1164.5,1402.5C 1170.32,1400.09 1175.98,1397.42 1181.5,1394.5C 1183.22,1394.37 1184.88,1394.04 1186.5,1393.5 Z"/></g>
<g><path style="opacity:1" fill="#5fb99d" d="M 585.5,1271.5 C 584.676,1327.16 584.01,1382.83 583.5,1438.5C 582.833,1428.34 582.5,1418.01 582.5,1407.5C 582.636,1361.82 583.636,1316.49 585.5,1271.5 Z"/></g>
<g><path style="opacity:1" fill="#c0e3d8" d="M 1146.5,1407.5 C 1143.37,1409.4 1140.03,1410.74 1136.5,1411.5C 1135.17,1411.5 1133.83,1411.5 1132.5,1411.5C 1136.89,1409.56 1141.56,1408.23 1146.5,1407.5 Z"/></g>
<g><path style="opacity:1" fill="#73c2a9" d="M 1132.5,1411.5 C 1133.83,1411.5 1135.17,1411.5 1136.5,1411.5C 1136.38,1412.59 1135.71,1413.25 1134.5,1413.5C 1086.95,1425.1 1038.62,1432.44 989.5,1435.5C 986.167,1435.5 982.833,1435.5 979.5,1435.5C 984.167,1434.83 988.833,1434.17 993.5,1433.5C 1011.44,1431.59 1029.44,1430.09 1047.5,1429C 1051.67,1428.29 1055.67,1427.46 1059.5,1426.5C 1084.39,1423.66 1108.72,1418.66 1132.5,1411.5 Z"/></g>
<g><path style="opacity:1" fill="#eaf6f2" d="M 1059.5,1426.5 C 1055.67,1427.46 1051.67,1428.29 1047.5,1429C 1029.44,1430.09 1011.44,1431.59 993.5,1433.5C 943.507,1434.41 893.507,1434.74 843.5,1434.5C 884.998,1433.67 926.665,1433.17 968.5,1433C 998.896,1431.55 1029.23,1429.38 1059.5,1426.5 Z"/></g>
<g><path style="opacity:1" fill="#bee3d7" d="M 993.5,1433.5 C 988.833,1434.17 984.167,1434.83 979.5,1435.5C 975.833,1435.5 972.167,1435.5 968.5,1435.5C 921.833,1435.5 875.167,1435.5 828.5,1435.5C 833.305,1434.51 838.305,1434.18 843.5,1434.5C 893.507,1434.74 943.507,1434.41 993.5,1433.5 Z"/></g>
<g><path style="opacity:1" fill="#7dc6af" d="M 828.5,1435.5 C 875.167,1435.5 921.833,1435.5 968.5,1435.5C 857.669,1436.98 746.669,1437.98 635.5,1438.5C 635.5,1438.17 635.5,1437.83 635.5,1437.5C 699.828,1436.82 764.161,1436.15 828.5,1435.5 Z"/></g>
<g><path style="opacity:1" fill="#3caa88" d="M 968.5,1435.5 C 972.167,1435.5 975.833,1435.5 979.5,1435.5C 982.833,1435.5 986.167,1435.5 989.5,1435.5C 987.031,1436.32 984.365,1436.82 981.5,1437C 848.673,1439.2 716.006,1439.7 583.5,1438.5C 600.833,1438.5 618.167,1438.5 635.5,1438.5C 746.669,1437.98 857.669,1436.98 968.5,1435.5 Z"/></g>
<g><path style="opacity:0.6" fill="#15392c" d="M 269.5,1502.5 C 271.027,1502.43 272.027,1503.09 272.5,1504.5C 270.973,1504.57 269.973,1503.91 269.5,1502.5 Z"/></g>
<g><path style="opacity:0.62" fill="#15392c" d="M 283.5,1515.5 C 285.027,1515.43 286.027,1516.09 286.5,1517.5C 284.973,1517.57 283.973,1516.91 283.5,1515.5 Z"/></g>
<g><path style="opacity:0.769" fill="#174032" d="M 291.5,1522.5 C 293.404,1522.74 294.738,1523.74 295.5,1525.5C 293.596,1525.26 292.262,1524.26 291.5,1522.5 Z"/></g>
<g><path style="opacity:0.655" fill="#153b2e" d="M 300.5,1530.5 C 302.027,1530.43 303.027,1531.09 303.5,1532.5C 301.973,1532.57 300.973,1531.91 300.5,1530.5 Z"/></g>
<g><path style="opacity:0.776" fill="#163f31" d="M 312.5,1540.5 C 314.404,1540.74 315.738,1541.74 316.5,1543.5C 314.596,1543.26 313.262,1542.26 312.5,1540.5 Z"/></g>
<g><path style="opacity:0.737" fill="#174334" d="M 318.5,1545.5 C 320.027,1545.43 321.027,1546.09 321.5,1547.5C 319.973,1547.57 318.973,1546.91 318.5,1545.5 Z"/></g>
<g><path style="opacity:0.788" fill="#184838" d="M 323.5,1549.5 C 325.027,1549.43 326.027,1550.09 326.5,1551.5C 324.973,1551.57 323.973,1550.91 323.5,1549.5 Z"/></g>
<g><path style="opacity:0.769" fill="#174636" d="M 328.5,1553.5 C 330.027,1553.43 331.027,1554.09 331.5,1555.5C 329.973,1555.57 328.973,1554.91 328.5,1553.5 Z"/></g>
<g><path style="opacity:0.714" fill="#163f31" d="M 333.5,1557.5 C 335.027,1557.43 336.027,1558.09 336.5,1559.5C 334.973,1559.57 333.973,1558.91 333.5,1557.5 Z"/></g>
<g><path style="opacity:0.443" fill="#13392c" d="M 346.5,1567.5 C 348.027,1567.43 349.027,1568.09 349.5,1569.5C 347.973,1569.57 346.973,1568.91 346.5,1567.5 Z"/></g>
<g><path style="opacity:0.522" fill="#154535" d="M 374.5,1587.5 C 376.027,1587.43 377.027,1588.09 377.5,1589.5C 375.973,1589.57 374.973,1588.91 374.5,1587.5 Z"/></g>
<g><path style="opacity:0.573" fill="#164b39" d="M 377.5,1589.5 C 379.027,1589.43 380.027,1590.09 380.5,1591.5C 378.973,1591.57 377.973,1590.91 377.5,1589.5 Z"/></g>
<g><path style="opacity:0.58" fill="#174e3c" d="M 392.5,1599.5 C 394.027,1599.43 395.027,1600.09 395.5,1601.5C 393.973,1601.57 392.973,1600.91 392.5,1599.5 Z"/></g>
<g><path style="opacity:0.529" fill="#154837" d="M 395.5,1601.5 C 397.027,1601.43 398.027,1602.09 398.5,1603.5C 396.973,1603.57 395.973,1602.91 395.5,1601.5 Z"/></g>
<g><path style="opacity:0.475" fill="#144233" d="M 398.5,1603.5 C 400.027,1603.43 401.027,1604.09 401.5,1605.5C 399.973,1605.57 398.973,1604.91 398.5,1603.5 Z"/></g>
<g><path style="opacity:0.369" fill="#12362a" d="M 401.5,1605.5 C 403.027,1605.43 404.027,1606.09 404.5,1607.5C 402.973,1607.57 401.973,1606.91 401.5,1605.5 Z"/></g>
<g><path style="opacity:0.529" fill="#164938" d="M 406.5,1608.5 C 408.027,1608.43 409.027,1609.09 409.5,1610.5C 407.973,1610.57 406.973,1609.91 406.5,1608.5 Z"/></g>
<g><path style="opacity:0.388" fill="#123a2c" d="M 409.5,1610.5 C 411.027,1610.43 412.027,1611.09 412.5,1612.5C 410.973,1612.57 409.973,1611.91 409.5,1610.5 Z"/></g>
<g><path style="opacity:0.467" fill="#144333" d="M 414.5,1613.5 C 416.027,1613.43 417.027,1614.09 417.5,1615.5C 415.973,1615.57 414.973,1614.91 414.5,1613.5 Z"/></g>
<g><path style="opacity:0.416" fill="#133e30" d="M 429.5,1622.5 C 431.027,1622.43 432.027,1623.09 432.5,1624.5C 430.973,1624.57 429.973,1623.91 429.5,1622.5 Z"/></g>
<g><path style="opacity:0.922" fill="#164d3b" d="M 579.5,1692.5 C 581.698,1692.12 583.365,1692.79 584.5,1694.5C 582.597,1694.2 580.93,1693.54 579.5,1692.5 Z"/></g>
<g><path style="opacity:0.898" fill="#154b39" d="M 603.5,1700.5 C 605.698,1700.12 607.365,1700.79 608.5,1702.5C 606.597,1702.2 604.93,1701.54 603.5,1700.5 Z"/></g>
<g><path style="opacity:0.929" fill="#185944" d="M 623.5,1706.5 C 626.152,1706.41 628.485,1707.08 630.5,1708.5C 627.848,1708.59 625.515,1707.92 623.5,1706.5 Z"/></g>
<g><path style="opacity:0.929" fill="#175843" d="M 630.5,1708.5 C 633.152,1708.41 635.485,1709.08 637.5,1710.5C 634.848,1710.59 632.515,1709.92 630.5,1708.5 Z"/></g>
<g><path style="opacity:0.733" fill="#175541" d="M 641.5,1711.5 C 644.152,1711.41 646.485,1712.08 648.5,1713.5C 645.848,1713.59 643.515,1712.92 641.5,1711.5 Z"/></g>
</svg>
