<?xml version="1.0" standalone="no"?>
<!DOCTYPE svg PUBLIC "-//W3C//DTD SVG 20010904//EN"
        "http://www.w3.org/TR/2001/REC-SVG-20010904/DTD/svg10.dtd">
<svg version="1.0" xmlns="http://www.w3.org/2000/svg"
     width="512.000000pt" height="512.000000pt" viewBox="0 0 512.000000 512.000000"
     preserveAspectRatio="xMidYMid meet">

    <g transform="translate(0.000000,512.000000) scale(0.100000,-0.100000)"
       fill="#26a17b" stroke="none">
        <path d="M2370 5113 c-371 -35 -653 -114 -961 -269 -245 -122 -444 -268 -655
-478 -224 -225 -366 -423 -500 -701 -158 -326 -237 -650 -251 -1020 -15 -426
73 -832 263 -1214 133 -269 271 -459 488 -677 221 -220 412 -357 681 -489 188
-92 309 -137 500 -185 500 -126 1002 -102 1490 71 149 53 407 182 540 271 299
199 573 480 769 788 72 113 188 353 235 486 235 662 194 1372 -115 1993 -124
250 -263 447 -458 648 -216 224 -428 378 -711 518 -296 146 -572 225 -900 255
-102 9 -333 11 -415 3z m1071 -1188 c44 -42 59 -83 59 -163 l0 -69 63 -23
c181 -65 325 -210 395 -398 35 -96 42 -253 13 -300 -30 -47 -77 -72 -136 -72
-95 0 -149 57 -160 169 -14 130 -92 244 -200 292 -74 33 -175 37 -247 10 -226
-86 -296 -361 -137 -536 72 -78 133 -105 264 -115 125 -10 196 -29 285 -76
166 -87 281 -230 331 -409 30 -110 24 -288 -13 -387 -71 -189 -214 -333 -395
-398 l-63 -23 0 -69 c0 -80 -15 -121 -59 -162 -25 -24 -42 -30 -91 -34 -51 -4
-65 -1 -95 19 -55 38 -75 84 -75 172 l0 75 -52 17 c-132 42 -278 161 -351 285
-46 80 -82 193 -91 285 -6 61 -4 76 16 115 31 60 77 90 140 90 27 0 62 -7 78
-15 41 -21 80 -82 80 -125 0 -60 29 -153 63 -202 120 -174 359 -198 509 -51
26 26 58 72 73 106 25 54 27 68 23 146 -5 104 -33 165 -103 230 -68 62 -120
82 -247 92 -298 24 -516 191 -604 464 -31 93 -37 242 -15 335 52 217 227 412
425 474 l56 18 0 74 c0 88 22 140 72 173 27 18 44 21 95 18 53 -2 67 -7 94
-32z m-1447 -221 c33 -9 93 -32 131 -52 96 -50 234 -189 294 -296 59 -104 110
-241 111 -294 0 -90 -54 -151 -141 -160 -88 -8 -143 33 -174 130 -49 151 -156
297 -250 343 -55 28 -174 28 -230 0 -100 -48 -210 -207 -255 -365 -53 -193
-53 -707 0 -900 30 -107 94 -224 160 -290 75 -76 116 -95 210 -95 94 0 135 19
210 95 58 59 124 172 155 268 31 97 86 138 174 130 87 -9 141 -70 141 -160 -1
-53 -52 -190 -111 -294 -60 -107 -198 -246 -294 -296 -104 -54 -181 -71 -300
-66 -68 3 -119 11 -159 26 -263 96 -457 364 -523 722 -22 122 -25 668 -4 795
64 392 281 680 571 761 65 18 211 17 284 -2z"/>
    </g>
</svg>
