<svg width="16" height="16" version="1.1" id="Layer_1" xmlns="http://www.w3.org/2000/svg" xmlns:xlink="http://www.w3.org/1999/xlink" x="0px" y="0px"
     viewBox="0 0 512 512" style="enable-background:new 0 0 512 512;" xml:space="preserve">
<path style="fill:#09b54e;" d="M256,0C114.616,0,0,114.616,0,256s114.616,256,256,256s256-114.616,256-256S397.384,0,256,0z"/>
  <path style="fill:#FFFFFF;" d="M382.664,408H129.336C115.4,408,104,396.6,104,382.664V129.336C104,115.4,115.4,104,129.336,104
	h253.328C396.6,104,408,115.4,408,129.336v253.328C408,396.6,396.6,408,382.664,408z"/>
  <path d="M327.128,337.368c-9.288,5.184-25.12,10.368-42.592,10.368c-26.76,0-51.32-10.928-66.616-31.128
	c-7.384-9.288-12.832-21.016-15.296-35.488h-17.752v-19.392h15.016c0-1.36,0-3,0-4.64c0-2.72,0.28-5.448,0.28-8.184h-15.296V229.52
	h18.296c3.544-14.752,10.112-27.304,18.832-37.408c15.576-17.472,37.408-27.84,63.072-27.84c16.656,0,31.128,3.824,40.952,8.184
	l-7.648,31.128c-7.088-3-18.28-6.568-30.304-6.568c-13.088,0-25.12,4.384-33.568,14.752c-3.824,4.36-6.824,10.648-8.744,17.752h68
	v19.376h-72.096c-0.264,2.744-0.264,5.744-0.264,8.464c0,1.64,0,2.72,0,4.36h72.36v19.392h-68.536
	c1.904,8.184,4.904,14.472,9.008,19.112c8.728,9.832,21.576,13.912,35.232,13.912c12.552,0,25.384-4.088,31.128-7.088
	L327.128,337.368z"/>
</svg>