<svg width="20" height="20" viewBox="0 0 20 20" fill="none" xmlns="http://www.w3.org/2000/svg">
<circle cx="10" cy="10" r="10" fill="#2F323C"/>
<path fill-rule="evenodd" clip-rule="evenodd" d="M15 13.8088V9.00825C15 7.64649 14.271 7 13.0468 7C12.0289 7 11.1486 7.60523 10.7634 8.21045C10.5158 7.45392 9.89684 7 8.92022 7C7.90234 7 7.02201 7.63274 6.74691 8.03164V7.16506H5V13.8088H6.74691V9.33838C7.00825 8.96699 7.51719 8.55433 8.12242 8.55433C8.83769 8.55433 9.11279 8.9945 9.11279 9.61348V13.8088H10.8735V9.32462C11.121 8.96699 11.63 8.55433 12.249 8.55433C12.9642 8.55433 13.2393 8.9945 13.2393 9.61348V13.8088H15Z" fill="white"/>
</svg>
