<svg version="1.1" id="Слой_1" xmlns="http://www.w3.org/2000/svg" xmlns:xlink="http://www.w3.org/1999/xlink" x="0px" y="0px"
	 viewBox="0 0 16 16" style="enable-background:new 0 0 16 16;" xml:space="preserve">
<style type="text/css">
	.st0{fill:#D43B43;}
	.st1{fill:#FFFFFF;}
</style>
<circle class="st0" cx="8" cy="8" r="8"/>
<g>
	<path class="st1" d="M7.4,10.4c0.3,0,0.3-0.1,0.3-0.4c0-0.8,0-1.6,0-2.4c0-0.1,0-0.2-0.1-0.3c-0.1-0.1-0.3,0-0.3,0.1
		C7.2,7.5,7.1,7.5,7.1,7.6c-0.4,0.8-0.8,1.7-1.2,2.5c-0.2,0.3-0.4,0.5-0.8,0.4c0,0,0,0-0.1,0c-0.1,0-0.1-0.4,0-0.4
		c0.1,0.1,0.2,0.1,0.3,0.2c0.1,0.1,0.2,0,0.3-0.1c0.1-0.2,0.1-0.4,0-0.6C5.3,8.9,5,8.3,4.6,7.7C4.6,7.5,4.5,7.3,4.3,7.2
		c0,0,0-0.1,0-0.1c0,0,0.1-0.1,0.1-0.1c0.3,0,0.7,0,1,0c0,0,0.1,0.1,0.1,0.2c-0.1,0-0.1,0-0.2,0c0,0.1,0,0.1,0,0.2
		C5.5,8,5.8,8.5,6,9c0,0,0,0,0,0.1c0.1-0.2,0.2-0.3,0.2-0.5c0.2-0.4,0.3-0.7,0.5-1.1c0-0.1,0.1-0.2-0.1-0.3c0,0,0-0.1,0-0.2
		c0,0,0.1-0.1,0.1-0.1c0.5,0,1,0,1.4,0c0.1,0,0.1,0.1,0.2,0.1c0.3,0.7,0.6,1.4,1,2.1c0,0.1,0.1,0.1,0.1,0.2c0-0.1,0.1-0.1,0.1-0.2
		c0.3-0.7,0.6-1.4,1-2.1C10.6,7.1,10.6,7,10.8,7c0.2,0,0.4,0,0.6,0c0.2,0,0.2,0,0.2,0.2c-0.3,0-0.3,0.1-0.3,0.4c0,0.8,0,1.6,0,2.4
		c0,0.3,0,0.3,0.3,0.4c0,0.1,0,0.2-0.1,0.2c-0.3,0-0.7,0-1,0c-0.1,0-0.2-0.1-0.1-0.2c0.3,0,0.3-0.1,0.3-0.4c0-0.7,0-1.4,0-2.1
		c0,0.1-0.1,0.1-0.1,0.1c-0.4,0.8-0.7,1.6-1.1,2.3c0,0.1-0.1,0.1-0.1,0.2c0-0.1-0.1-0.1-0.1-0.2c-0.3-0.8-0.7-1.6-1-2.4
		c0,0,0-0.1-0.1-0.1C8,8,8,8,8,8.1C8,8.7,8,9.4,8,10c0,0.3,0,0.3,0.3,0.3c0,0.2,0,0.2-0.1,0.2c-0.2,0-0.5,0-0.7,0
		C7.4,10.6,7.3,10.5,7.4,10.4z"/>
	<path class="st1" d="M15.1,5.4c0,0.3-0.1,0.6-0.4,0.7c-0.2,0.1-0.4,0.1-0.7,0.2c-0.2,0-0.3,0-0.5,0c-0.5,0-0.8,0.2-1,0.7
		c-0.2,0.4-0.2,0.8-0.1,1.2c0.1,0.6,0.2,1.1,0.6,1.6c0.1,0.1,0.2,0.2,0.3,0.3c0.4,0.2,0.8,0.1,1-0.3c0.2-0.4,0.2-0.8,0.2-1.2
		c0-0.3-0.1-0.6-0.3-0.9c-0.2-0.3-0.5-0.5-0.8-0.4c-0.3,0.1-0.4,0.2-0.5,0.5c0,0.2-0.1,0.3-0.1,0.5c0,0.1,0,0.1-0.1,0.1
		c-0.1,0-0.1,0-0.1-0.1c0-0.3,0-0.5,0.1-0.8C12.8,7.2,13.1,7,13.5,7c0.9-0.1,1.5,0.5,1.7,1.4c0.1,0.5,0,1-0.2,1.4
		c-0.3,0.5-0.8,0.8-1.4,0.8c-0.7,0-1.2-0.4-1.4-1C12,9.3,12,9,11.9,8.7c-0.1-0.6,0-1.2,0.1-1.7c0.2-0.5,0.5-1,1-1.2
		c0.2-0.1,0.3-0.1,0.5-0.1c0.3,0,0.6,0,0.9,0c0.2,0,0.3,0,0.4-0.2C15,5.4,15,5.4,15.1,5.4z"/>
	<path class="st1" d="M1.8,7.4c0,0.5,0,1.1,0,1.6c0,0.4,0,0.7,0,1.1c0,0.2,0.1,0.2,0.2,0.3c0,0,0.1,0.1,0.1,0.1c0,0-0.1,0.1-0.1,0.1
		c-0.4,0-0.7,0-1.1,0c-0.1,0-0.1-0.1-0.1-0.2c0.3-0.1,0.3-0.1,0.3-0.4c0-0.8,0-1.6,0-2.4c0-0.3,0-0.3-0.3-0.4C0.8,7,0.8,7,0.9,7
		C2,7,3,7,4,7c0.2,0,0.2,0,0.2,0.2C3.9,7.3,3.9,7.3,3.9,7.6c0,0.8,0,1.6,0,2.4c0,0.3,0,0.3,0.3,0.4c0,0.1,0,0.2-0.1,0.2
		c-0.3,0-0.7,0-1,0c-0.1,0-0.2-0.1-0.1-0.2c0.3-0.1,0.3-0.1,0.3-0.4c0-0.8,0-1.6,0-2.4c0-0.1,0-0.2-0.2-0.2c-0.4,0-0.7,0-1.1,0
		C1.9,7.4,1.8,7.4,1.8,7.4z"/>
</g>
</svg>
