<svg version="1.1" id="Слой_1" xmlns="http://www.w3.org/2000/svg" xmlns:xlink="http://www.w3.org/1999/xlink" x="0px" y="0px"
	 viewBox="0 0 16 16" style="enable-background:new 0 0 16 16;" xml:space="preserve">
<style type="text/css">
	.st0{fill:#FEF102;}
	.st1{fill:#FFFFFF;}
</style>
<circle class="st0" cx="8" cy="8" r="8"/>
<path d="M10.6,5.4c-0.2,0.1-0.3,0.3-0.4,0.4c0,0,0,0.1,0,0.1c0,0.4,0,0.8,0,1.2c0,0.1,0,0.1-0.1,0.2C9.9,7.5,9.7,7.7,9.5,8
	c0,0,0.1,0.1,0.1,0.1c1.1,1.1,2.3,2.3,3.4,3.4c0.1,0.1,0.1,0.1,0,0.2c-0.4,0.4-0.8,0.8-1.2,1.2c-0.1,0.1-0.1,0.1-0.2,0
	c-0.6-0.6-1.1-1.1-1.7-1.7c-0.6-0.6-1.2-1.2-1.7-1.7C8,9.4,8,9.5,7.9,9.5c-1.1,1.1-2.3,2.3-3.4,3.4c-0.1,0.1-0.1,0.1-0.2,0
	c-0.4-0.4-0.8-0.8-1.2-1.2c-0.1-0.1-0.1-0.1,0-0.2c1.1-1.1,2.3-2.3,3.4-3.4c0.1-0.1,0.1-0.1,0-0.2C6.3,7.7,6.1,7.5,5.9,7.4
	C5.9,7.3,5.8,7.2,5.8,7.1c0-0.4,0-0.8,0-1.1c0-0.1,0-0.1-0.1-0.2C5.6,5.6,5.5,5.5,5.4,5.4c0,0.2,0,0.5,0,0.7c0,0.3-0.1,0.6-0.3,0.8
	C4.8,7,4.9,7.1,4.6,6.8C4.2,6.4,3.8,6,3.4,5.6C3.3,5.5,3.2,5.4,3.1,5.3C3.1,5.3,3.1,5.3,3,5.3C2.9,5.4,2.8,5.5,2.7,5.6
	c0,0,0,0-0.1,0.1c0-0.1,0-0.1,0-0.1c0.1-0.7,0.3-1.3,0.7-1.9c0.3-0.3,0.6-0.6,1-0.7c0.4-0.1,0.8,0,1.2,0.2C5.7,3.3,5.8,3.5,6,3.6
	c0.5,0.5,1,1,1.5,1.5c0.1,0.1,0.1,0.1,0,0.2C7.3,5.4,7.2,5.4,7.1,5.5c0,0,0,0.1,0,0.1C7.4,5.9,7.7,6.2,8,6.5c0,0,0,0,0.1,0
	C8.2,6.3,8.3,6.2,8.5,6c0.1-0.1,0.2-0.3,0.4-0.4c0.1-0.1,0.1-0.1,0-0.1C8.8,5.4,8.7,5.3,8.6,5.2c-0.1-0.1-0.1-0.1,0-0.2
	C9.1,4.5,9.7,4,10.3,3.4C10.6,3,11.1,2.9,11.6,3c0.3,0.1,0.6,0.3,0.9,0.5c0.3,0.3,0.6,0.7,0.7,1.2c0.1,0.3,0.2,0.6,0.2,0.9
	c0,0,0,0,0,0.1c-0.2-0.2-0.3-0.3-0.5-0.5c-0.2,0.2-0.4,0.4-0.6,0.7c-0.3,0.3-0.7,0.7-1,1c-0.1,0.1-0.1,0.1-0.2,0
	c-0.1-0.1-0.3-0.2-0.4-0.4c0,0-0.1-0.1-0.1-0.2c0-0.3,0-0.6,0-0.8C10.6,5.5,10.6,5.5,10.6,5.4z"/>
</svg>
