<svg version="1.1" id="Слой_1" xmlns="http://www.w3.org/2000/svg" xmlns:xlink="http://www.w3.org/1999/xlink" x="0px" y="0px"
	 viewBox="0 0 16 16" style="enable-background:new 0 0 16 16;" xml:space="preserve">
<style type="text/css">
	.st0{fill:#00D195;}
	.st1{fill:#FEFEFE;}
</style>
<circle class="st0" cx="8" cy="8" r="8"/>
<g>
	<path class="st1" d="M9.2,4.2c0.7-0.2,1.3-0.4,2-0.5c0,0,0.1,0,0.1,0c0,0,0-0.1,0-0.1c-0.1-0.1-0.3-0.2-0.4-0.3
		c-0.5-0.3-1-0.6-1.5-0.8c0,0-0.1-0.1-0.2-0.1c0.1,0,0.1,0,0.1,0c1.2,0.1,2.3,0.4,3.3,1c0.1,0,0.1,0,0.2,0c0.3-0.1,0.6-0.1,0.9-0.1
		c0.1,0,0.1,0,0.1,0.1c-0.1,0.2-0.3,0.4-0.5,0.5c-0.1,0.1-0.2,0.2-0.1,0.3c0,0.1,0,0.3,0,0.4c-0.1,0.9-0.2,1.8-0.5,2.6c0,0,0,0,0,0
		c0-0.2,0-0.5,0-0.7c0-0.5-0.1-1-0.2-1.5c-0.1-0.4-0.1-0.4-0.5-0.2c-0.6,0.3-1.1,0.6-1.7,0.9c0,0-0.1,0-0.1,0c0-0.1,0.1-0.1,0.1-0.1
		c0.3-0.3,0.6-0.7,0.8-1c0,0,0.1-0.1,0.1-0.1c0-0.1-0.1,0-0.2,0C10,4.4,9.1,4.5,8.1,4.7c0,0,0,0-0.1,0c0.1-0.1,0.2-0.1,0.4-0.2
		c0.1-0.1,0.2-0.1,0.4-0.1C8.9,4.3,9.1,4.2,9.2,4.2z"/>
	<path class="st1" d="M3.1,8.7c0-0.1,0-0.1,0-0.1C3.5,7.9,4,7.2,4.5,6.7c0.1-0.1,0.1-0.2,0-0.2C4.1,6.3,3.7,6.2,3.4,6.2
		c0,0-0.1,0-0.2,0c0,0,0.1-0.1,0.1-0.1C4,5.9,4.6,5.8,5.2,5.9c0.1,0,0.2,0,0.4-0.1c0.3-0.2,0.7-0.4,1-0.5c0.1,0,0.1-0.1,0.2,0
		C6.7,5.4,6.6,5.5,6.6,5.7C6.4,6,6.4,6,6.7,6c0.7,0.1,1.4,0.4,2,0.7c0,0,0.1,0.1,0.1,0.1c-0.2,0-0.3,0-0.5-0.1
		C7.7,6.7,7,6.7,6.3,6.8C6.2,6.8,6.1,6.9,6,7C5.9,7.5,5.8,8,5.7,8.4c0,0.1,0,0.2-0.1,0.2c-0.1,0-0.1-0.1-0.1-0.1
		C5.4,8.1,5.2,7.7,5.1,7.4C5.1,7.2,5,7.2,4.9,7.3C4.3,7.7,3.8,8.1,3.3,8.6C3.3,8.6,3.2,8.7,3.1,8.7z"/>
	<path class="st1" d="M4.2,11.8c-0.1,0.1,0,0.1,0,0.2c0.3,0.3,0.6,0.5,1,0.6c0,0,0.1,0,0.1,0.1c-0.4,0-0.7-0.1-1.1-0.1
		C4,12.5,4,12.5,4,12.8c0,0.2,0,0.4,0.1,0.5c-0.1,0-0.1-0.1-0.1-0.1c-0.3-0.3-0.5-0.6-0.7-1c0-0.1-0.1-0.1-0.1-0.1
		c-0.3-0.1-0.5-0.3-0.8-0.4c0,0,0,0,0,0c-0.1-0.1-0.2-0.1-0.2-0.1c0-0.1,0.2-0.1,0.2-0.1c0.1-0.1,0.3-0.1,0.4-0.1
		c0.1,0,0.1-0.1,0.1-0.2c-0.1-0.5,0-1,0-1.5c0-0.1,0-0.1,0.1-0.2C3,9.5,3,9.6,3,9.7c0.1,0.4,0.2,0.9,0.4,1.3
		c0.1,0.1,0.1,0.1,0.2,0.1C3.9,11,4.2,11,4.5,10.9c0,0,0.1,0,0.1,0c0,0,0,0.1,0,0.1C4.4,11.3,4.3,11.5,4.2,11.8z"/>
	<path class="st1" d="M9.3,11.8c0,0.1-0.1,0.2-0.2,0.2c-0.2,0.2-0.4,0.4-0.6,0.5c-0.1,0.1-0.1,0.2-0.1,0.3c0.1,0.2,0.1,0.3-0.2,0.3
		c-0.2,0-0.5,0.1-0.7,0.2c-0.3,0.2-0.7,0.3-1,0.4c0,0-0.1,0-0.1,0c0.2-0.1,0.3-0.3,0.5-0.4c0,0,0.1-0.1,0.1-0.1
		c0-0.1-0.1-0.1-0.2-0.1c-0.2-0.1-0.4-0.1-0.5-0.2c0.1,0,0.2,0,0.2,0c0.1,0,0.2,0,0.4,0c0.6,0,0.9-0.4,1.2-0.8
		c0.1,0,0.1-0.2,0.2-0.2c0.1,0.1,0.1,0.1,0.1,0.2c0,0.1,0.1,0.2,0.2,0.1C8.7,12.1,8.9,12,9,11.9c0.1,0,0.1-0.1,0.2,0
		C9.2,11.9,9.3,11.8,9.3,11.8z"/>
</g>
</svg>
