<svg id="Слой_1" data-name="Слой 1" xmlns="http://www.w3.org/2000/svg" viewBox="0 0 20 20"><defs><style>.cls-1{fill:#d13f2e;}.cls-2{fill:#fff;}</style></defs><title>alfa</title><circle class="cls-1" cx="10" cy="10" r="10"/><path class="cls-2" d="M15,12.5c-.78-2.1-1.53-4.21-2.3-6.32-.37-1-.74-2.07-1.16-3.08a1.65,1.65,0,0,0-1.4-1.05,1.35,1.35,0,0,0-.4,0,2,2,0,0,0-.53.18,2,2,0,0,0-1,1.28c-.4,1-.77,2.11-1.16,3.17-.71,2-1.41,3.92-2.13,5.87-.1.27,0,.41.23.5.47.16.92.36,1.37.54.24.09.4.05.49-.22.18-.54.4-1.07.58-1.61a.41.41,0,0,1,.46-.33h3.11a1.53,1.53,0,0,1,1.45,1c.11.3.22.59.32.89s.27.36.54.24c.42-.17.83-.35,1.26-.49S15.16,12.84,15,12.5Zm-5-3.12H8.49C8.64,8.91,8.8,8.45,9,8H9c.33-1,.67-2,1-3h.11l1,3h0c.15.46.3.92.46,1.39Z"/><rect class="cls-2" x="4.91" y="16.01" width="10.19" height="1.94"/></svg>