<svg width="20" height="20" viewBox="0 0 20 20" fill="none" xmlns="http://www.w3.org/2000/svg">
<circle cx="10" cy="10" r="10" fill="white"/>
<path d="M16.0003 7.59975C16.0003 9.58057 14.4004 11.1995 12.4005 11.1995C10.4197 11.1995 8.80078 9.58057 8.80078 7.59975C8.80078 5.61894 10.4007 4 12.3815 4C14.4004 4 16.0003 5.61894 16.0003 7.59975Z" fill="#FFB600"/>
<path d="M12.4005 4C14.3813 4 16.0003 5.61894 16.0003 7.59975C16.0003 9.58057 14.4004 11.1995 12.4005 11.1995C10.4197 11.1995 8.80078 9.58057 8.80078 7.59975" fill="#F7981D"/>
<path d="M12.3994 4C14.3802 4 15.9992 5.61894 15.9992 7.59975C15.9992 9.58057 14.3993 11.1995 12.3994 11.1995" fill="#FF8500"/>
<path d="M7.56166 4C5.59989 4.01905 4 5.61894 4 7.59975C4 9.58057 5.59989 11.1995 7.59975 11.1995C8.53302 11.1995 9.37106 10.8376 10.0186 10.2662C10.152 10.152 10.2662 10.0186 10.3805 9.88531H9.63771C9.54248 9.77103 9.44724 9.63771 9.37106 9.52343H10.6472C10.7233 9.40915 10.7995 9.27583 10.8567 9.1425H9.16155C9.10441 9.02822 9.04727 8.8949 9.00918 8.76158H10.99C11.1043 8.3997 11.1805 8.01877 11.1805 7.6188C11.1805 7.35215 11.1424 7.10455 11.1043 6.85695H8.8949C8.91395 6.72362 8.95204 6.60934 8.99013 6.47602H10.9709C10.9329 6.3427 10.8757 6.20937 10.8186 6.09509H9.1425C9.19964 5.96177 9.27583 5.84749 9.35201 5.71417H10.6281C10.5519 5.58084 10.4567 5.44752 10.3424 5.33324H9.63771C9.75199 5.19992 9.86626 5.08564 9.99959 4.97136C9.37106 4.38093 8.51397 4.03809 7.58071 4.03809C7.58071 4 7.58071 4 7.56166 4Z" fill="#FF5050"/>
<path d="M4 7.59975C4 9.58056 5.59989 11.1995 7.59975 11.1995C8.53302 11.1995 9.37106 10.8376 10.0186 10.2662C10.152 10.152 10.2662 10.0186 10.3805 9.8853H9.63771C9.54248 9.77102 9.44724 9.6377 9.37106 9.52342H10.6472C10.7233 9.40914 10.7995 9.27582 10.8567 9.1425H9.16155C9.10441 9.02822 9.04727 8.89489 9.00918 8.76157H10.99C11.1043 8.39969 11.1805 8.01876 11.1805 7.61879C11.1805 7.35214 11.1424 7.10454 11.1043 6.85694H8.8949C8.91395 6.72362 8.95204 6.60934 8.99013 6.47601H10.9709C10.9329 6.34269 10.8757 6.20936 10.8186 6.09509H9.1425C9.19964 5.96176 9.27583 5.84749 9.35201 5.71416H10.6281C10.5519 5.58084 10.4567 5.44751 10.3424 5.33323H9.63771C9.75199 5.19991 9.86626 5.08563 9.99959 4.97136C9.37106 4.38092 8.51397 4.03809 7.58071 4.03809H7.56166" fill="#E52836"/>
<path d="M7.59669 11.1995C8.52996 11.1995 9.36799 10.8376 10.0156 10.2662C10.1489 10.152 10.2632 10.0186 10.3774 9.8853H9.63464C9.53941 9.77102 9.44418 9.6377 9.36799 9.52342H10.6441C10.7203 9.40914 10.7965 9.27582 10.8536 9.1425H9.15848C9.10134 9.02822 9.04421 8.89489 9.00611 8.76157H10.9869C11.1012 8.39969 11.1774 8.01876 11.1774 7.61879C11.1774 7.35214 11.1393 7.10454 11.1012 6.85694H8.89184C8.91088 6.72362 8.94897 6.60934 8.98707 6.47601H10.9679C10.9298 6.34269 10.8727 6.20936 10.8155 6.09509H9.13944C9.19658 5.96176 9.27276 5.84749 9.34895 5.71416H10.625C10.5489 5.58084 10.4536 5.44751 10.3394 5.33323H9.63464C9.74892 5.19991 9.8632 5.08563 9.99652 4.97136C9.36799 4.38092 8.51091 4.03809 7.57764 4.03809H7.55859" fill="#CB2026"/>
<path d="M8.87656 8.51372L8.9337 8.18993C8.91465 8.18993 8.87656 8.20898 8.83847 8.20898C8.70514 8.20898 8.6861 8.1328 8.70514 8.0947L8.81942 7.42808H9.02893L9.08607 7.0662H8.89561L8.9337 6.83765H8.55277C8.55277 6.83765 8.32422 8.0947 8.32422 8.24707C8.32422 8.47563 8.45754 8.57086 8.62896 8.57086C8.74324 8.57086 8.83847 8.53277 8.87656 8.51372Z" fill="white"/>
<path d="M9.01172 7.90417C9.01172 8.43747 9.3736 8.5708 9.67834 8.5708C9.96403 8.5708 10.0783 8.51366 10.0783 8.51366L10.1545 8.15178C10.1545 8.15178 9.94499 8.24701 9.75453 8.24701C9.33551 8.24701 9.41169 7.94227 9.41169 7.94227H10.1926C10.1926 7.94227 10.2497 7.69466 10.2497 7.59943C10.2497 7.35183 10.1164 7.04709 9.69739 7.04709C9.29741 7.009 9.01172 7.42801 9.01172 7.90417ZM9.67834 7.35183C9.88785 7.35183 9.84976 7.59943 9.84976 7.61848H9.43074C9.43074 7.59943 9.46883 7.35183 9.67834 7.35183Z" fill="white"/>
<path d="M12.0944 8.51374L12.1706 8.09473C12.1706 8.09473 11.9801 8.18996 11.8468 8.18996C11.5802 8.18996 11.4659 7.98045 11.4659 7.75189C11.4659 7.29478 11.6944 7.04718 11.9611 7.04718C12.1516 7.04718 12.3039 7.16146 12.3039 7.16146L12.3611 6.76149C12.3611 6.76149 12.1325 6.66626 11.923 6.66626C11.4849 6.66626 11.0469 7.04718 11.0469 7.77094C11.0469 8.2471 11.2754 8.57088 11.7325 8.57088C11.8849 8.57088 12.0944 8.51374 12.0944 8.51374Z" fill="white"/>
<path d="M6.78236 7.00928C6.51571 7.00928 6.32524 7.08546 6.32524 7.08546L6.2681 7.40925C6.2681 7.40925 6.43952 7.33306 6.68712 7.33306C6.82045 7.33306 6.93473 7.35211 6.93473 7.46639C6.93473 7.54257 6.91568 7.56162 6.91568 7.56162C6.91568 7.56162 6.8014 7.56162 6.74426 7.56162C6.42047 7.56162 6.05859 7.69494 6.05859 8.133C6.05859 8.47583 6.28715 8.55202 6.42047 8.55202C6.68712 8.55202 6.8014 8.3806 6.82045 8.3806L6.8014 8.53297H7.14424L7.29661 7.48543C7.29661 7.02832 6.91568 7.00928 6.78236 7.00928ZM6.85854 7.86636C6.85854 7.9235 6.82045 8.22823 6.59189 8.22823C6.47761 8.22823 6.43952 8.133 6.43952 8.07586C6.43952 7.98063 6.49666 7.84731 6.78236 7.84731C6.8395 7.86636 6.85854 7.86636 6.85854 7.86636Z" fill="white"/>
<path d="M7.65779 8.55178C7.75302 8.55178 8.22918 8.57083 8.22918 8.05658C8.22918 7.58042 7.77207 7.67566 7.77207 7.48519C7.77207 7.38996 7.84825 7.35187 7.98158 7.35187C8.03872 7.35187 8.24823 7.37092 8.24823 7.37092L8.30537 7.02808C8.30537 7.02808 8.17204 6.98999 7.94349 6.98999C7.65779 6.98999 7.3721 7.10427 7.3721 7.48519C7.3721 7.92326 7.84825 7.88516 7.84825 8.05658C7.84825 8.17086 7.71493 8.1899 7.6197 8.1899C7.44828 8.1899 7.27687 8.13277 7.27687 8.13277L7.21973 8.4756C7.23877 8.51369 7.334 8.55178 7.65779 8.55178Z" fill="white"/>
<path d="M15.2575 6.70435L15.1813 7.2186C15.1813 7.2186 15.029 7.02813 14.8194 7.02813C14.4766 7.02813 14.1719 7.44715 14.1719 7.94236C14.1719 8.2471 14.3242 8.57088 14.648 8.57088C14.8766 8.57088 15.0099 8.41851 15.0099 8.41851L14.9909 8.55184H15.3718L15.6575 6.72339L15.2575 6.70435ZM15.0861 7.7138C15.0861 7.92331 14.9909 8.18996 14.7814 8.18996C14.648 8.18996 14.5718 8.07568 14.5718 7.88522C14.5718 7.58048 14.7052 7.39001 14.8766 7.39001C15.0099 7.39001 15.0861 7.48524 15.0861 7.7138Z" fill="white"/>
<path d="M4.70563 8.53279L4.93419 7.16146L4.97228 8.53279H5.23893L5.73413 7.16146L5.52462 8.53279H5.92459L6.22933 6.70435H5.60081L5.21988 7.82808L5.20083 6.70435H4.64849L4.34375 8.53279H4.70563Z" fill="white"/>
<path d="M10.6104 8.53272C10.7247 7.9042 10.7437 7.38995 11.0104 7.48518C11.0485 7.23758 11.1056 7.14235 11.1437 7.04712C11.1437 7.04712 11.1247 7.04712 11.0675 7.04712C10.8961 7.04712 10.7628 7.27567 10.7628 7.27567L10.8009 7.06617H10.439L10.1914 8.55177H10.6104V8.53272Z" fill="white"/>
<path d="M12.9738 7.00928C12.7071 7.00928 12.5166 7.08546 12.5166 7.08546L12.4595 7.40925C12.4595 7.40925 12.6309 7.33306 12.8785 7.33306C13.0119 7.33306 13.1261 7.35211 13.1261 7.46639C13.1261 7.54257 13.1071 7.56162 13.1071 7.56162C13.1071 7.56162 12.9928 7.56162 12.9357 7.56162C12.6119 7.56162 12.25 7.69494 12.25 8.133C12.25 8.47583 12.4786 8.55202 12.6119 8.55202C12.8785 8.55202 12.9928 8.3806 13.0119 8.3806L12.9928 8.53297H13.3356L13.488 7.48543C13.5071 7.02832 13.1071 7.00928 12.9738 7.00928ZM13.069 7.86636C13.069 7.9235 13.0309 8.22823 12.8023 8.22823C12.6881 8.22823 12.65 8.133 12.65 8.07586C12.65 7.98063 12.7071 7.84731 12.9928 7.84731C13.0499 7.86636 13.0499 7.86636 13.069 7.86636Z" fill="white"/>
<path d="M13.8087 8.53272C13.9229 7.9042 13.942 7.38995 14.2086 7.48518C14.2467 7.23758 14.3039 7.14235 14.342 7.04712C14.342 7.04712 14.3229 7.04712 14.2658 7.04712C14.0944 7.04712 13.961 7.27567 13.961 7.27567L13.9991 7.06617H13.6373L13.3896 8.55177H13.8087V8.53272Z" fill="white"/>
<path d="M8.28613 8.24707C8.28613 8.47563 8.41946 8.57086 8.59087 8.57086C8.7242 8.57086 8.83848 8.53277 8.87657 8.51372L8.93371 8.18993C8.91466 8.18993 8.87657 8.20898 8.83848 8.20898C8.70515 8.20898 8.68611 8.1328 8.70515 8.0947L8.81943 7.42808H9.02894L9.08608 7.0662H8.89561L8.93371 6.83765" fill="#DCE5E5"/>
<path d="M9.19922 7.90417C9.19922 8.43747 9.37064 8.5708 9.67538 8.5708C9.96107 8.5708 10.0753 8.51366 10.0753 8.51366L10.1515 8.15178C10.1515 8.15178 9.94203 8.24701 9.75156 8.24701C9.33254 8.24701 9.40873 7.94227 9.40873 7.94227H10.1896C10.1896 7.94227 10.2468 7.69466 10.2468 7.59943C10.2468 7.35183 10.1134 7.04709 9.69442 7.04709C9.29445 7.009 9.19922 7.42801 9.19922 7.90417ZM9.67538 7.35183C9.88489 7.35183 9.92298 7.59943 9.92298 7.61848H9.42777C9.42777 7.59943 9.46587 7.35183 9.67538 7.35183Z" fill="#DCE5E5"/>
<path d="M12.0954 8.51374L12.1716 8.09473C12.1716 8.09473 11.9811 8.18996 11.8478 8.18996C11.5811 8.18996 11.4668 7.98045 11.4668 7.75189C11.4668 7.29478 11.6954 7.04718 11.962 7.04718C12.1525 7.04718 12.3049 7.16146 12.3049 7.16146L12.362 6.76149C12.362 6.76149 12.1335 6.66626 11.9239 6.66626C11.4859 6.66626 11.2383 7.04718 11.2383 7.77094C11.2383 8.2471 11.2764 8.57088 11.7335 8.57088C11.8859 8.57088 12.0954 8.51374 12.0954 8.51374Z" fill="#DCE5E5"/>
<path d="M6.2681 7.42804C6.2681 7.42804 6.43952 7.35186 6.68712 7.35186C6.82045 7.35186 6.93473 7.3709 6.93473 7.48518C6.93473 7.56137 6.91568 7.58041 6.91568 7.58041C6.91568 7.58041 6.8014 7.58041 6.74426 7.58041C6.42047 7.58041 6.05859 7.71374 6.05859 8.1518C6.05859 8.49463 6.28715 8.57081 6.42047 8.57081C6.68712 8.57081 6.8014 8.3994 6.82045 8.3994L6.8014 8.55177H7.14424L7.29661 7.50423C7.29661 7.06617 6.91568 7.04712 6.76331 7.04712L6.2681 7.42804ZM7.04901 7.86611C7.04901 7.92324 6.82045 8.22798 6.59189 8.22798C6.47761 8.22798 6.43952 8.13275 6.43952 8.07561C6.43952 7.98038 6.49666 7.84706 6.78236 7.84706C6.8395 7.86611 7.04901 7.86611 7.04901 7.86611Z" fill="#DCE5E5"/>
<path d="M7.23828 8.51369C7.23828 8.51369 7.35256 8.55178 7.67635 8.55178C7.77158 8.55178 8.24774 8.57083 8.24774 8.05658C8.24774 7.58042 7.79062 7.67566 7.79062 7.48519C7.79062 7.38996 7.86681 7.35187 8.00013 7.35187C8.05727 7.35187 8.26678 7.37092 8.26678 7.37092L8.32392 7.02808C8.32392 7.02808 8.1906 6.98999 7.96204 6.98999C7.67635 6.98999 7.58111 7.10427 7.58111 7.48519C7.58111 7.92326 7.86681 7.88516 7.86681 8.05658C7.86681 8.17086 7.73349 8.1899 7.63825 8.1899" fill="#DCE5E5"/>
<path d="M15.1807 7.21859C15.1807 7.21859 15.0283 7.02813 14.8188 7.02813C14.476 7.02813 14.3617 7.44714 14.3617 7.94235C14.3617 8.24709 14.3236 8.57087 14.6474 8.57087C14.876 8.57087 15.0093 8.4185 15.0093 8.4185L14.9903 8.55183H15.3712L15.6569 6.72339L15.1807 7.21859ZM15.1617 7.71379C15.1617 7.9233 14.9903 8.18995 14.7807 8.18995C14.6474 8.18995 14.5712 8.07567 14.5712 7.88521C14.5712 7.58047 14.7046 7.39001 14.876 7.39001C15.0093 7.39001 15.1617 7.48524 15.1617 7.71379Z" fill="#DCE5E5"/>
<path d="M4.70563 8.53279L4.93419 7.16146L4.97228 8.53279H5.23893L5.73413 7.16146L5.52462 8.53279H5.92459L6.22933 6.70435H5.75318L5.21988 7.82808L5.20083 6.70435H4.99132L4.34375 8.53279H4.70563Z" fill="#DCE5E5"/>
<path d="M10.2109 8.53272H10.6109C10.7252 7.9042 10.7442 7.38995 11.0109 7.48518C11.049 7.23758 11.1061 7.14235 11.1442 7.04712C11.1442 7.04712 11.1252 7.04712 11.068 7.04712C10.8966 7.04712 10.7633 7.27567 10.7633 7.27567L10.8014 7.06617" fill="#DCE5E5"/>
<path d="M12.4595 7.42804C12.4595 7.42804 12.6309 7.35186 12.8785 7.35186C13.0119 7.35186 13.1261 7.3709 13.1261 7.48518C13.1261 7.56137 13.1071 7.58041 13.1071 7.58041C13.1071 7.58041 12.9928 7.58041 12.9357 7.58041C12.6119 7.58041 12.25 7.71374 12.25 8.1518C12.25 8.49463 12.4786 8.57081 12.6119 8.57081C12.8785 8.57081 12.9928 8.3994 13.0119 8.3994L12.9928 8.55177H13.3356L13.488 7.50423C13.488 7.06617 13.1071 7.04712 12.9547 7.04712L12.4595 7.42804ZM13.2404 7.86611C13.2404 7.92324 13.0119 8.22798 12.7833 8.22798C12.669 8.22798 12.6309 8.13275 12.6309 8.07561C12.6309 7.98038 12.6881 7.84706 12.9738 7.84706C13.0499 7.86611 13.2404 7.86611 13.2404 7.86611Z" fill="#DCE5E5"/>
<path d="M13.4102 8.53272H13.8101C13.9244 7.9042 13.9435 7.38995 14.2101 7.48518C14.2482 7.23758 14.3053 7.14235 14.3434 7.04712C14.3434 7.04712 14.3244 7.04712 14.2672 7.04712C14.0958 7.04712 13.9625 7.27567 13.9625 7.27567L14.0006 7.06617" fill="#DCE5E5"/>
<path d="M8.39844 16.033L9.00791 12.6047H9.9602L9.36978 16.033H8.39844Z" fill="#3C58BF"/>
<path d="M8.39844 16.033L9.17932 12.6047H9.9602L9.36978 16.033H8.39844Z" fill="#293688"/>
<path d="M12.8164 12.6428C12.6259 12.5667 12.3212 12.4905 11.9403 12.4905C10.988 12.4905 10.3023 12.9666 10.3023 13.6523C10.3023 14.1665 10.7785 14.4332 11.1594 14.6046C11.5403 14.776 11.6546 14.8903 11.6546 15.0426C11.6546 15.2712 11.3498 15.3855 11.0832 15.3855C10.7023 15.3855 10.4928 15.3283 10.169 15.195L10.0357 15.1379L9.90234 15.9187C10.1309 16.014 10.5499 16.1092 10.988 16.1092C11.9974 16.1092 12.664 15.6331 12.664 14.9093C12.664 14.5093 12.4164 14.2046 11.845 13.957C11.5022 13.7856 11.2927 13.6904 11.2927 13.519C11.2927 13.3666 11.4641 13.2142 11.845 13.2142C12.1688 13.2142 12.3974 13.2714 12.5688 13.3475L12.664 13.3856L12.8164 12.6428Z" fill="#3C58BF"/>
<path d="M12.8164 12.6428C12.6259 12.5667 12.3212 12.4905 11.9403 12.4905C10.988 12.4905 10.4737 12.9666 10.4737 13.6523C10.4737 14.1665 10.7785 14.4332 11.1594 14.6046C11.5403 14.776 11.6546 14.8903 11.6546 15.0426C11.6546 15.2712 11.3498 15.3855 11.0832 15.3855C10.7023 15.3855 10.4928 15.3283 10.169 15.195L10.0357 15.1379L9.90234 15.9187C10.1309 16.014 10.5499 16.1092 10.988 16.1092C11.9974 16.1092 12.664 15.6331 12.664 14.9093C12.664 14.5093 12.4164 14.2046 11.845 13.957C11.5022 13.7856 11.2927 13.6904 11.2927 13.519C11.2927 13.3666 11.4641 13.2142 11.845 13.2142C12.1688 13.2142 12.3974 13.2714 12.5688 13.3475L12.664 13.3856L12.8164 12.6428Z" fill="#293688"/>
<path d="M14.4549 12.6047C14.2263 12.6047 14.0549 12.6238 13.9597 12.8523L12.5312 16.033H13.5597L13.7502 15.4616H14.9691L15.0834 16.033H15.9976L15.1977 12.6047H14.4549ZM14.0168 14.8902C14.074 14.7188 14.3977 13.8808 14.3977 13.8808C14.3977 13.8808 14.4739 13.6713 14.5311 13.538L14.5882 13.8618C14.5882 13.8618 14.7787 14.7188 14.8168 14.9093H14.0168V14.8902Z" fill="#3C58BF"/>
<path d="M14.6834 12.6047C14.4549 12.6047 14.2835 12.6238 14.1882 12.8523L12.5312 16.033H13.5597L13.7502 15.4616H14.9691L15.0834 16.033H15.9976L15.1977 12.6047H14.6834ZM14.0168 14.8902C14.093 14.6998 14.3977 13.8808 14.3977 13.8808C14.3977 13.8808 14.4739 13.6713 14.5311 13.538L14.5882 13.8618C14.5882 13.8618 14.7787 14.7188 14.8168 14.9093H14.0168V14.8902Z" fill="#293688"/>
<path d="M6.64719 15.0045L6.55196 14.5093C6.38055 13.9379 5.82822 13.3094 5.21875 13.0047L6.07582 16.052H7.10429L8.64701 12.6238H7.61853L6.64719 15.0045Z" fill="#3C58BF"/>
<path d="M6.64719 15.0045L6.55196 14.5093C6.38055 13.9379 5.82822 13.3094 5.21875 13.0047L6.07582 16.052H7.10429L8.64701 12.6238H7.80899L6.64719 15.0045Z" fill="#293688"/>
<path d="M4 12.6047L4.17141 12.6428C5.39035 12.9285 6.22837 13.6523 6.55215 14.5093L6.20932 12.8904C6.15219 12.6619 5.98077 12.6047 5.77127 12.6047H4Z" fill="#FFBC00"/>
<path d="M4 12.6047C5.21894 12.8904 6.22837 13.6332 6.55215 14.4903L6.22837 13.138C6.17123 12.9095 5.98077 12.7761 5.77127 12.7761L4 12.6047Z" fill="#F7981D"/>
<path d="M4 12.6047C5.21894 12.8904 6.22837 13.6332 6.55215 14.4903L6.3236 13.7475C6.26646 13.5189 6.19028 13.2904 5.92364 13.1952L4 12.6047Z" fill="#ED7C00"/>
<path d="M7.59899 14.8902L6.95143 14.2426L6.6467 14.9664L6.57052 14.4902C6.3991 13.9188 5.84677 13.2903 5.2373 12.9856L6.09437 16.0329H7.12285L7.59899 14.8902Z" fill="#051244"/>
<path d="M9.3688 16.0331L8.54983 15.1951L8.39746 16.0331H9.3688Z" fill="#051244"/>
<path d="M11.5584 14.8521C11.6345 14.9282 11.6726 14.9854 11.6536 15.0616C11.6536 15.2901 11.3489 15.4044 11.0822 15.4044C10.7013 15.4044 10.4918 15.3472 10.168 15.2139L10.0347 15.1568L9.90137 15.9377C10.1299 16.0329 10.5489 16.1281 10.987 16.1281C11.5965 16.1281 12.0916 15.9567 12.3773 15.652L11.5584 14.8521Z" fill="#051244"/>
<path d="M12.667 16.0329H13.5621L13.7526 15.4615H14.9715L15.0858 16.0329H16L15.6762 14.6425L14.5335 13.5378L14.5906 13.8426C14.5906 13.8426 14.7811 14.6996 14.8192 14.8901H14.0193C14.0954 14.6996 14.4002 13.8807 14.4002 13.8807C14.4002 13.8807 14.4764 13.6712 14.5335 13.5378" fill="#051244"/>
</svg>
