<svg version="1.1" id="Слой_1" xmlns="http://www.w3.org/2000/svg" xmlns:xlink="http://www.w3.org/1999/xlink" x="0px" y="0px"
	 viewBox="0 0 16 16" style="enable-background:new 0 0 16 16;" xml:space="preserve">
<style type="text/css">
	.st0{fill:#024B45;}
	.st1{fill:#FFFFFF;}
</style>
<circle class="st0" cx="8" cy="8" r="8"/>
<g>
	<path class="st1" d="M7.7,11.8c0-0.2,0-0.4,0-0.6c-1,0-2,0-3,0c0-0.7,0-1.4,0-2c0.2,0,0.5,0,0.7,0c0,0.5,0,0.9,0,1.4
		c0.2,0,0.3,0,0.5,0c0-0.5,0-0.9,0-1.4c0.3,0,0.5,0,0.8,0c0,0.5,0,0.9,0,1.4c0.2,0,0.3,0,0.5,0c0-0.5,0-0.9,0-1.4c0.3,0,0.5,0,0.8,0
		c0,0.5,0,0.9,0,1.4c0.1,0,0.2,0,0.4,0c0,0.4,0,0.8,0,1.2C8.1,11.8,7.9,11.8,7.7,11.8z"/>
	<path class="st1" d="M13.7,10.7c0.1,0,0.2,0,0.3,0c0,0.4,0,0.7,0,1.1c-0.2,0-0.4,0-0.6,0c0-0.2,0-0.4,0-0.6c-0.4,0-0.9,0-1.3,0
		c0,0.2,0,0.4,0,0.6c-0.2,0-0.4,0-0.6,0c0,0-0.1-0.1-0.1-0.1c0-0.3,0-0.7,0-1c0.4-0.1,0.4-0.4,0.5-0.7c0-0.3,0-0.5,0-0.8
		c0.6,0,1.3,0,1.9,0C13.7,9.6,13.7,10.1,13.7,10.7z M12.5,9.7c-0.1,0.3-0.1,0.7-0.2,1c0.2,0,0.4,0,0.6,0c0-0.3,0-0.6,0-1
		C12.8,9.7,12.6,9.7,12.5,9.7z"/>
	<path class="st1" d="M10.2,9.2c0.3-0.2,0.6-0.1,0.9-0.1c0,0.7,0,1.4,0,2.2c-0.5,0.1-0.7,0-0.8-0.1c-0.6,0.3-1.1,0.2-1.5-0.2
		c-0.3-0.4-0.3-1.1,0-1.5C9.1,9.1,9.8,8.9,10.2,9.2z M10.3,10.2c0-0.3-0.2-0.5-0.5-0.5c-0.3,0-0.5,0.2-0.5,0.5
		c0,0.3,0.2,0.5,0.5,0.5C10.1,10.7,10.3,10.5,10.3,10.2z"/>
	<path class="st1" d="M3.2,9c-0.7,0-1.2,0.5-1.2,1.2c0,0.7,0.5,1.2,1.2,1.2c0.7,0,1.2-0.5,1.2-1.2C4.4,9.5,3.9,9,3.2,9z M3.2,10.7
		c-0.3,0-0.6-0.3-0.6-0.6c0-0.3,0.3-0.6,0.6-0.6c0.3,0,0.6,0.3,0.6,0.6C3.8,10.5,3.6,10.7,3.2,10.7z"/>
</g>
<path class="st1" d="M9.1,7.2c0.5-0.3,0.9-0.7,1-1.3c0.1-0.4,0-0.8-0.3-1c-0.3-0.3-0.7-0.2-1,0C7.8,5.3,7.5,6.3,8.1,7.2
	c-0.6,0-1.2,0-1.9,0C6.3,7,6.3,6.8,6.4,6.7c0.3-0.8,0.8-1.4,1.3-2c0.5-0.5,0.9-1.1,0.8-1.8c0-0.2,0-0.4-0.1-0.5
	c0-0.1-0.2-0.2-0.3-0.2c0.4,0.9,0.1,1.6-0.4,2.3C7.4,4.8,7,5,6.5,5.1c-0.7,0.1-1.2-0.3-1.2-1c0-0.9,0.6-1.7,1.5-2
	C6.8,2.1,6.7,2.2,6.6,2.2C6.1,2.6,5.8,3.1,5.9,3.7C5.9,4.3,6.4,4.6,7,4.4C8,4.2,8.4,3,7.9,2.1c0,0,0-0.1-0.1-0.2c0.6,0,1.2,0,2,0
	C9.5,2.6,9.2,3.1,9,3.6c0.4,0,0.8,0,1.2,0c0.4,0,0.8,0,1.1-0.2c-0.5,0-1.1,0.1-1.6,0.1c0.1-0.5,0.6-0.7,1-0.6c0,0,0.1,0,0.1,0
	c0.3,0,0.6-0.1,0.9-0.1c0.1,0,0.2,0,0.2,0c0,0,0.1,0.2,0,0.2c-0.2,0.3-0.2,0.8-0.7,0.7c0,0-0.1,0-0.1,0c-0.2,0.5-0.6,0.3-0.9,0.1
	C9.7,3.8,9.2,3.8,8.9,4C8,4.5,7.5,5.2,7.3,6.1c0,0.2,0,0.4,0.1,0.6C7.4,7,7.5,7.1,7.8,7C7.4,6.2,7.7,5.5,8.1,4.9
	c0.3-0.5,0.8-0.8,1.3-0.8c0.6-0.1,1.1,0.3,1.1,1C10.6,6,10,6.8,9.1,7.2z"/>
</svg>
