<svg id="Слой_1" data-name="Слой 1" xmlns="http://www.w3.org/2000/svg" viewBox="0 0 20 20"><defs><style>.cls-1{fill:#f18919;}.cls-2{fill:#fff;}</style></defs><title>киви</title><circle class="cls-1" cx="10" cy="10" r="10"/><path class="cls-2" d="M14.67,12.49A3,3,0,0,0,12,9.78v0a.71.71,0,0,1,.2,0h1c.13,0,.18,0,.19-.17a4.15,4.15,0,0,0-2.93-4.29A4,4,0,0,0,5.47,7.77a4.16,4.16,0,0,0,2.3,5.34,3.63,3.63,0,0,0,1.71.28,5.16,5.16,0,0,1,0-1.3l.06,0a1.33,1.33,0,0,1,.14.19,4.37,4.37,0,0,0,2.17,1.92,15.31,15.31,0,0,0,1.51.42,6,6,0,0,1,3.33,2.25s0,.15,0,.23a.62.62,0,0,1-.25,0c-.37-.26-.71-.55-1.08-.8a5.63,5.63,0,0,0-3.6-.86c-.71.06-1.43.13-2.15.16A6.27,6.27,0,0,1,3.06,8.39a6.17,6.17,0,0,1,4-5.09,5.77,5.77,0,0,1,2.19-.38,6.24,6.24,0,0,1,5,2.37,6,6,0,0,1,1.29,3,5.68,5.68,0,0,1-.14,2.53,14.55,14.55,0,0,1-.72,1.62S14.71,12.46,14.67,12.49Z" transform="translate(0 0)"/><path class="cls-2" d="M12.53,12.9a.82.82,0,0,1,.74.62.41.41,0,0,1-.42.45.68.68,0,0,1-.7-.79C12.18,13,12.31,12.9,12.53,12.9Z" transform="translate(0 0)"/><path class="cls-2" d="M14.3,12.65s-.06.16-.13.19-.18-.05-.23-.11a.88.88,0,0,1-.3-.64c0-.08,0-.21.09-.22a.31.31,0,0,1,.28.05A1,1,0,0,1,14.3,12.65Z" transform="translate(0 0)"/></svg>