<?xml version="1.0" encoding="utf-8"?>
<!-- Generator: Adobe Illustrator 25.0.0, SVG Export Plug-In . SVG Version: 6.00 Build 0)  -->
<svg version="1.1" id="Слой_1" xmlns="http://www.w3.org/2000/svg" xmlns:xlink="http://www.w3.org/1999/xlink" x="0px" y="0px"
	 viewBox="0 0 16 16" style="enable-background:new 0 0 16 16;" xml:space="preserve">
<style type="text/css">
	.st0{fill:#8B3EFD;}
	.st1{fill:#FFFFFF;}
	.st2{fill:#FEFEFE;}
</style>
<circle class="st0" cx="8" cy="8" r="8"/>
<g>
	<path class="st1" d="M9.5,11.7c-2.1,0-3.8-1.8-3.7-3.9c0.1-2,1.8-3.6,3.9-3.5c2,0.1,3.6,1.8,3.5,3.9C13.1,10.1,11.5,11.7,9.5,11.7z
		 M9.5,9.4c0.7,0,1.4-0.6,1.4-1.4c0-0.7-0.6-1.4-1.4-1.4C8.8,6.6,8.1,7.3,8.1,8C8.1,8.7,8.8,9.4,9.5,9.4z"/>
	<path class="st1" d="M5.8,8.1c0,0.8,0,1.7,0,2.5c0,0.1,0,0.2-0.2,0.2c-0.3,0-0.7,0-1,0c-0.1,0-0.2,0-0.2-0.1C4,9.2,3.6,7.9,3.1,6.5
		C3,6.2,2.9,5.8,2.8,5.5c0-0.1,0-0.1,0.1-0.1c0.9,0,1.8,0,2.7,0c0.1,0,0.1,0,0.1,0.1C5.8,6.4,5.8,7.2,5.8,8.1z"/>
</g>
</svg>
