<svg width="90" height="90" viewBox="0 0 90 90" fill="none" xmlns="http://www.w3.org/2000/svg">
<circle cx="45" cy="45" r="45" fill="#E8EDF1"/>
<circle cx="45" cy="45" r="24" fill="#2D9CDB"/>
<path d="M69.7488 20.2512C63.1381 13.6407 54.3488 10 45 10C35.6512 10 26.8619 13.6407 20.2512 20.2512C13.6407 26.8619 10 35.6512 10 45C10 54.3488 13.6407 63.1381 20.2512 69.7488C26.8619 76.3593 35.6512 80 45 80C54.3488 80 63.1381 76.3593 69.7488 69.7488C76.3593 63.1381 80 54.3488 80 45C80 35.6512 76.3593 26.8619 69.7488 20.2512ZM45 72.6172C29.7719 72.6172 17.3828 60.2281 17.3828 45C17.3828 29.7719 29.7719 17.3828 45 17.3828C60.2281 17.3828 72.6172 29.7719 72.6172 45C72.6172 60.2281 60.2281 72.6172 45 72.6172Z" fill="#2D9CDB"/>
<path d="M54.5 36.0346V33.4023C55.2436 32.9688 55.75 32.1714 55.75 31.25V30.625C55.75 30.2796 55.4705 30 55.125 30H33.875C33.5296 30 33.25 30.2796 33.25 30.625V31.25C33.25 32.1714 33.7564 32.9688 34.5 33.4024V36.0346C34.5 38.5114 35.5559 40.882 37.3967 42.5385L40.1317 45L37.3967 47.4615C35.5559 49.118 34.5 51.4886 34.5 53.9654V56.5976C33.7564 57.0312 33.25 57.8286 33.25 58.75V59.375C33.25 59.7204 33.5296 60 33.875 60H55.125C55.4705 60 55.7501 59.7204 55.7501 59.375V58.75C55.7501 57.8286 55.2437 57.0312 54.5001 56.5976V53.9654C54.5001 51.4886 53.4442 49.118 51.6033 47.4615L48.8683 45L51.6033 42.5385C53.4441 40.882 54.5 38.5113 54.5 36.0346ZM49.9309 40.6805L46.1638 44.0711C45.9002 44.3079 45.75 44.6454 45.75 45C45.75 45.3546 45.9002 45.6922 46.1638 45.9289L49.9309 49.3195C51.2456 50.5029 52 52.1967 52 53.9654V56.25H50.4372L44.9999 49.0003C44.7643 48.6853 44.2357 48.6853 44.0001 49.0003L38.5628 56.25H37V53.9654C37 52.1966 37.7544 50.5029 39.0691 49.3194L42.8362 45.9289C43.0999 45.6921 43.2501 45.3546 43.2501 44.9999C43.2501 44.6453 43.0999 44.3078 42.8362 44.071L39.0691 40.6805C37.7544 39.4971 37 37.8033 37 36.0346V33.75H52V36.0346C52 37.8033 51.2456 39.4971 49.9309 40.6805Z" fill="#E8EDF1"/>
<path d="M48.8077 38.7502H40.1913C39.9441 38.7502 39.7201 38.8961 39.62 39.122C39.52 39.3484 39.562 39.6121 39.7287 39.7952L44.0805 43.8101C44.1995 43.9182 44.3497 43.9718 44.4998 43.9718C44.6499 43.9718 44.8001 43.9181 44.9191 43.8101L49.2703 39.7952C49.4369 39.6121 49.479 39.3484 49.3789 39.122C49.2789 38.8961 49.0549 38.7502 48.8077 38.7502Z" fill="#E8EDF1"/>
</svg>
