<svg width="90" height="90" viewBox="0 0 90 90" fill="none" xmlns="http://www.w3.org/2000/svg">
<circle cx="45" cy="45" r="45" fill="#E8EDF1"/>
<circle cx="45" cy="45" r="24" fill="#EB5757"/>
<path d="M69.7488 20.2512C63.1381 13.6407 54.3488 10 45 10C35.6512 10 26.8619 13.6407 20.2512 20.2512C13.6407 26.8619 10 35.6512 10 45C10 54.3488 13.6407 63.1381 20.2512 69.7488C26.8619 76.3593 35.6512 80 45 80C54.3488 80 63.1381 76.3593 69.7488 69.7488C76.3593 63.1381 80 54.3488 80 45C80 35.6512 76.3593 26.8619 69.7488 20.2512ZM45 72.6172C29.7719 72.6172 17.3828 60.2281 17.3828 45C17.3828 29.7719 29.7719 17.3828 45 17.3828C60.2281 17.3828 72.6172 29.7719 72.6172 45C72.6172 60.2281 60.2281 72.6172 45 72.6172Z" fill="#EB5757"/>
<path d="M56.3033 56.3033C55.3743 57.2323 53.8258 57.2323 52.8968 56.3033L45 48.4065L37.1032 56.3033C36.1742 57.2323 34.6257 57.2323 33.6967 56.3033C32.7677 55.3743 32.7677 53.8258 33.6967 52.8968L41.5935 45L33.6967 37.1032C32.7677 36.1742 32.7677 34.6257 33.6967 33.6967C34.6257 32.7677 36.1742 32.7677 37.1032 33.6967L45 41.5935L52.8968 33.6967C53.8258 32.7677 55.3743 32.7677 56.3033 33.6967C57.2323 34.6257 57.2323 36.1742 56.3033 37.1032L48.4065 45L56.3033 52.8968C57.2323 53.8258 57.2323 55.3741 56.3033 56.3033Z" fill="#E8EDF1"/>
</svg>
